<svg width="58" height="58" viewBox="0 0 58 58" fill="none" xmlns="http://www.w3.org/2000/svg">
<path fill-rule="evenodd" clip-rule="evenodd" d="M26.5144 54.1333C27.0668 52.4762 28.1716 50.2667 28.724 48.6095C29.8287 45.2952 29.2763 44.7429 27.6192 41.9809C29.8287 40.8762 30.9335 40.3238 33.143 39.219C34.8001 38.1143 37.0097 37.0095 38.1144 35.9048C38.1144 35.9048 38.6668 35.9048 38.6668 35.3524C38.6668 36.4571 39.2192 36.4571 39.2192 38.1143C39.2192 41.4286 37.5621 44.1905 35.3525 46.4C33.143 49.1619 31.4859 50.819 28.724 52.4762C28.1716 53.0286 26.5144 54.1333 26.5144 54.1333ZM56.8954 0C57.4478 0 57.4478 0 57.4478 0C58.0001 0.552381 58.0001 0.552381 58.0001 0.552381V2.20952C58.0001 6.07619 57.4478 9.39048 55.7906 12.7048C55.2382 15.4667 54.1335 17.6762 53.0287 19.8857C50.2668 24.3048 45.2954 30.381 41.4287 33.1429C40.8763 33.6952 40.324 34.2476 40.8763 35.3524C41.9811 39.7714 40.324 44.7429 36.4573 48.6095C34.8001 50.819 25.9621 58 23.2001 58C22.6478 58 22.0954 57.4476 22.0954 56.8952C22.0954 56.3429 23.7525 54.6857 23.7525 54.1333C25.4097 51.9238 28.724 46.4 27.0668 44.1905C26.5144 43.6381 26.5144 43.6381 26.5144 43.6381C25.9621 43.0857 25.9621 43.0857 25.4097 43.0857C24.3049 43.6381 23.7525 42.5333 23.2001 41.9809C20.4382 39.7714 18.2287 37.0095 15.4668 34.2476C15.4668 34.2476 14.9144 33.6952 14.9144 33.1429C14.9144 32.5905 14.9144 32.5905 14.9144 32.0381L13.8097 30.9333C11.6001 29.2762 7.73348 31.4857 6.07634 32.5905C4.4192 33.1429 3.31443 34.2476 2.20967 35.3524C1.10491 35.9048 1.10491 35.9048 0.552529 35.3524C-0.552233 34.8 0.552529 33.6952 0.552529 33.1429C2.76205 29.2762 4.4192 26.5143 7.1811 23.2C9.39062 20.4381 13.2573 18.2286 16.5716 17.1238C20.9906 16.019 22.0954 16.5714 23.7525 17.1238C23.7525 17.1238 24.3049 17.1238 24.3049 16.5714C29.2763 11.6 34.2478 6.62857 40.8763 3.31429C41.9811 3.31429 43.0859 2.7619 44.1906 2.20952C46.4002 1.65714 49.1621 0.552381 51.3716 0.552381C53.0287 0 55.2382 0 56.8954 0V0ZM16.0192 30.381C12.1525 28.1714 11.0478 27.619 7.1811 29.8286C6.62872 29.8286 4.4192 31.4857 3.86681 31.4857C5.52396 28.7238 7.73348 25.9619 9.94301 23.7524C12.1525 21.5429 16.0192 18.781 19.3335 18.781C20.4382 18.781 21.543 18.781 22.0954 19.3333L21.543 20.4381C19.3335 23.7524 17.6763 27.0667 16.0192 30.381ZM24.8573 40.8762C24.3049 40.8762 20.9906 37.5619 19.8859 36.4571C19.8859 35.9048 17.124 33.1429 17.124 33.1429C17.124 31.4857 22.0954 23.2 23.2001 21.5429C27.6192 16.019 32.5906 10.4952 38.6668 7.18095C41.9811 10.4952 48.0573 16.019 51.3716 18.781C50.8192 19.3333 50.8192 19.3333 50.8192 19.3333C47.5049 24.8571 44.1906 28.1714 39.2192 32.5905C36.4573 34.8 34.2478 36.4571 31.4859 38.1143L25.9621 40.8762C25.4097 40.8762 24.8573 40.8762 24.8573 40.8762ZM40.8763 6.07619L41.9811 5.52381C42.5335 4.97143 46.4002 8.8381 46.9525 9.94286C47.5049 10.4952 52.4763 15.4667 53.0287 15.4667L51.924 17.1238C51.924 17.1238 49.7144 14.9143 49.1621 14.3619C48.6097 13.8095 41.4287 7.18095 40.8763 6.07619ZM53.5811 13.8095L45.2954 5.52381C45.2954 4.97143 44.1906 4.41905 44.1906 4.41905C46.9525 3.31429 50.8192 2.20952 55.7906 2.20952C55.7906 4.97143 54.6859 11.0476 53.5811 13.8095ZM13.8097 38.1143V38.6667C14.3621 39.219 19.3335 44.1905 19.8859 44.1905C19.3335 44.7429 18.7811 44.7429 18.2287 45.2952L12.7049 39.7714C13.2573 39.219 13.2573 38.6667 13.8097 38.1143ZM18.2287 47.5048C18.7811 46.9524 22.6478 45.2952 22.6478 44.7429C22.6478 44.1905 13.8097 35.3524 13.2573 35.3524C13.2573 35.3524 11.0478 39.219 10.4954 39.7714C10.4954 39.7714 10.4954 40.3238 11.0478 40.3238C12.7049 42.5333 16.5716 45.8476 18.2287 47.5048ZM35.9049 20.4381C35.9049 18.2286 38.1144 17.1238 39.7716 18.781C40.8763 20.4381 39.7716 22.6476 38.1144 22.6476C36.4573 22.6476 35.9049 21.5429 35.9049 20.4381ZM37.5621 24.3048C39.7716 24.3048 40.8763 23.7524 41.9811 22.0952C42.5335 19.8857 41.4287 17.1238 39.7716 16.5714C36.4573 15.4667 33.143 18.2286 33.6954 20.9905C34.2478 23.2 35.9049 24.3048 37.5621 24.3048Z" fill="white"/>
</svg>
