<svg width="56" height="55" viewBox="0 0 56 55" fill="none" xmlns="http://www.w3.org/2000/svg">
<path fill-rule="evenodd" clip-rule="evenodd" d="M2.69231 51.2559V27.5636C2.69231 27.0251 2.69231 27.0251 2.69231 27.0251H15.0769V51.7943H2.69231C2.69231 51.7943 2.69231 51.7943 2.69231 51.2559ZM56 27.0251V27.5636C56 28.6405 56 29.179 55.4615 30.2559C54.3846 31.8713 54.3846 30.7943 54.9231 32.4097V32.9482C55.4615 34.5636 55.4615 36.7174 54.9231 37.7943C54.3846 38.3328 53.8462 39.4097 53.3077 39.9482C54.3846 41.0251 53.8462 43.7174 53.3077 45.3328C53.3077 45.8713 52.7692 45.8713 52.7692 46.4097C52.2308 46.9482 52.2308 46.9482 52.2308 47.4867C52.2308 50.179 51.6923 52.8713 49 53.9482C48.4615 53.9482 47.3846 54.4866 46.3077 54.4866H22.0769C21.5385 54.4866 20.4615 53.4097 19.9231 53.4097C19.3846 52.8713 18.8462 52.8713 18.3077 52.3328C18.3077 51.7943 18.3077 51.7943 18.3077 51.7943C18.3077 52.3328 17.7692 52.3328 17.7692 52.8713C17.2308 53.4097 16.6923 54.4866 15.6154 54.4866H2.69231C2.15385 54.4866 1.07692 53.9482 1.07692 53.4097C0.538462 53.4097 0.538462 53.4097 0.538462 52.8713C0 52.3328 0 52.3328 0 51.7943V27.0251C0 25.9482 1.07692 24.3328 2.69231 24.3328H15.6154C16.6923 24.3328 17.7692 25.9482 18.3077 26.4867H20.4615C20.4615 26.4867 21.5385 25.4097 22.0769 25.4097C24.7692 21.6405 23.6923 22.179 25.8462 18.4097C26.3846 17.3328 26.9231 16.7943 27.4615 16.2559C28 15.7174 28 15.7174 28.5385 15.179C29.0769 14.6405 29.0769 14.6405 29.6154 14.6405C29.6154 14.102 29.6154 14.102 29.6154 14.102L31.2308 12.4867C32.8462 10.8713 34.4615 8.17896 35 5.48665C35 4.94819 35 4.94819 35 4.40973C35.5385 1.17896 37.6923 -0.436423 40.9231 0.102039C41.4615 0.6405 40.9231 0.6405 41.4615 0.6405C41.4615 0.6405 41.4615 0.6405 42 1.17896C45.2308 3.87127 45.7692 7.6405 44.1538 11.9482C43.6154 13.5636 43.0769 15.179 42 16.7943C42 17.3328 41.4615 17.3328 41.4615 17.3328C41.4615 17.8713 40.9231 18.4097 40.9231 18.9482C40.3846 19.4867 39.8462 19.4867 39.8462 20.5636C42 20.5636 43.6154 20.5636 45.7692 20.5636C46.3077 20.5636 47.3846 20.5636 48.4615 20.5636C50.0769 20.5636 51.6923 21.102 52.7692 22.179C54.3846 23.2559 56 24.8713 56 27.0251ZM53.3077 27.5636C53.3077 29.7174 52.2308 30.2559 50.6154 31.3328C51.1538 31.8713 51.6923 32.4097 52.2308 32.9482C53.3077 34.5636 52.7692 37.7943 50.6154 38.3328L49.5385 38.8713C49.5385 39.4097 49.5385 39.4097 50.0769 39.4097C50.6154 39.9482 51.1538 40.4867 51.1538 42.102C51.1538 43.179 50.6154 45.3328 50.0769 45.8713L48.4615 46.4097C48.4615 46.4097 48.4615 46.4097 49 46.9482C49.5385 47.4867 49.5385 47.4867 49.5385 48.0251C49.5385 48.5636 49.5385 49.6405 49.5385 50.179C49 51.2559 47.9231 51.7943 45.7692 51.7943H22.6154L21.5385 51.2559C20.4615 50.7174 21 50.7174 20.4615 50.179C20.4615 50.179 19.9231 49.6405 19.3846 49.6405C18.8462 49.102 18.3077 49.6405 18.3077 49.102V29.179C19.3846 29.179 19.9231 29.179 21 29.179C21.5385 29.179 21.5385 29.179 22.0769 28.6405C23.1538 28.102 24.2308 27.0251 24.7692 25.9482C24.7692 25.4097 25.3077 25.4097 25.3077 25.4097C26.3846 23.7943 26.3846 23.2559 26.9231 22.179C27.4615 21.102 28 20.0251 28.5385 18.9482C29.6154 17.3328 30.1538 17.3328 31.7692 16.2559L32.8462 15.179C32.8462 14.6405 32.8462 14.6405 32.8462 14.6405C33.3846 14.102 33.3846 14.102 33.3846 14.102L35.5385 10.8713C36.6154 9.25589 37.1538 7.6405 37.6923 5.48665C37.6923 4.40973 37.6923 2.79435 39.3077 2.79435C39.8462 2.79435 39.8462 2.79435 40.3846 2.79435L40.9231 3.33281C41.4615 4.40973 42.5385 6.56358 42.5385 7.6405C42.5385 9.25589 42.5385 9.25589 42 10.3328C41.4615 11.4097 40.9231 13.0251 40.3846 14.102C39.8462 15.179 38.7692 16.7943 38.2308 17.3328C38.2308 17.8713 37.6923 18.4097 37.6923 18.9482C37.1538 20.0251 37.1538 21.6405 38.2308 22.7174C38.7692 23.2559 39.3077 23.2559 39.8462 23.2559H47.3846C50.0769 23.2559 53.3077 24.8713 53.3077 27.5636Z" fill="white"/>
</svg>
