<svg width="49" height="59" viewBox="0 0 49 59" fill="none" xmlns="http://www.w3.org/2000/svg">
<path fill-rule="evenodd" clip-rule="evenodd" d="M22.1667 19.3958H26.8333C27.4167 19.3958 26.8333 19.3958 27.4167 19.3958C27.4167 19.9792 27.4167 19.9792 27.4167 19.9792V53.2292C27.4167 53.8125 27.4167 54.9792 26.8333 55.5625H22.1667C22.1667 49.7292 22.1667 43.3125 22.1667 37.4792C22.1667 34.5625 22.1667 31.6458 22.1667 28.1458C22.1667 25.2292 21.5833 22.3125 22.1667 19.3958ZM29.75 19.3958H46.6667C46.6667 19.9792 46.6667 27.5625 46.6667 28.7292H29.75V19.3958ZM8.75 19.3958C8.75 19.3958 18.6667 19.3958 19.25 19.3958C19.8333 19.3958 19.8333 26.3958 19.8333 28.1458L19.25 28.7292H2.33333C2.33333 27.5625 2.33333 20.5625 2.33333 19.3958C2.91667 19.3958 8.16667 19.3958 8.75 19.3958ZM26.25 15.8958C26.25 15.3125 26.25 14.1458 26.8333 13.5625C27.4167 11.8125 28.5833 7.72917 29.75 6.5625C30.3333 5.97917 30.9167 5.39583 31.5 5.39583C32.6667 4.22917 33.8333 4.8125 35 5.39583C37.3333 7.72917 34.4167 10.0625 32.6667 11.8125C32.0833 12.3958 27.4167 15.3125 26.25 15.8958ZM22.75 15.8958C22.1667 15.8958 21 15.3125 20.4167 14.7292C17.5 13.5625 14.5833 11.8125 12.8333 10.0625C9.91667 7.14583 9.91667 5.39583 12.8333 3.0625C14 1.89583 15.75 2.47917 16.9167 3.64583C17.5 4.22917 18.6667 5.97917 19.25 6.5625C19.8333 8.3125 22.75 14.1458 22.75 15.8958ZM19.25 31.6458C19.8333 31.6458 19.8333 31.6458 19.8333 31.6458C19.8333 31.6458 19.8333 31.6458 19.8333 32.2292V49.7292C19.8333 50.3125 19.8333 54.9792 19.8333 55.5625C19.25 55.5625 7.58333 55.5625 5.83333 55.5625C5.25 55.5625 5.25 55.5625 5.25 55.5625C5.25 51.4792 5.25 46.8125 5.25 42.1458C5.25 40.3958 5.25 38.0625 5.25 35.7292C5.25 35.1458 4.66667 34.5625 4.66667 33.9792C4.66667 33.9792 4.08333 33.9792 3.5 33.9792C2.33333 33.9792 2.91667 35.1458 2.91667 36.3125C2.91667 37.4792 2.33333 56.7292 2.91667 57.3125C2.91667 58.4792 6.41667 57.8958 7 57.8958H45.5C46.0833 57.3125 46.0833 57.8958 46.0833 55.5625C46.0833 54.9792 46.0833 53.8125 46.0833 52.6458C46.0833 49.7292 46.0833 34.5625 46.0833 34.5625C45.5 33.3958 44.3333 33.3958 44.3333 34.5625C43.75 35.1458 43.75 42.1458 43.75 43.3125C43.75 45.0625 43.75 55.5625 43.75 55.5625H29.75V31.6458H47.8333C48.4167 31.0625 48.4167 31.0625 49 30.4792V18.2292C49 17.6458 49 17.6458 48.4167 17.0625C48.4167 17.0625 48.4167 17.0625 47.8333 17.0625C47.25 17.0625 46.6667 17.0625 46.0833 17.0625C43.1667 17.0625 40.25 17.0625 37.3333 17.0625C35 17.0625 32.0833 17.0625 29.1667 17.0625L32.6667 14.7292C33.25 14.1458 33.25 14.1458 33.8333 14.1458C33.8333 13.5625 33.8333 13.5625 34.4167 13.5625C34.4167 13.5625 34.4167 13.5625 34.4167 12.9792C35 12.9792 35 12.9792 35 12.9792L36.1667 11.8125C36.1667 11.8125 36.1667 11.2292 36.75 11.2292C36.75 11.2292 36.75 11.2292 36.75 10.6458C37.3333 10.0625 37.9167 8.89583 38.5 7.72917C38.5 5.97917 37.9167 4.8125 36.1667 3.64583C34.4167 1.89583 32.0833 1.89583 29.75 3.64583L28.5833 4.22917C26.8333 6.5625 25.0833 10.0625 24.5 12.9792C23.9167 12.3958 22.75 5.97917 18.6667 1.89583C18.0833 1.3125 17.5 1.3125 16.9167 0.729167C15.1667 -0.4375 15.75 0.145833 14.5833 0.145833H14C13.4167 0.145833 13.4167 0.145833 12.8333 0.145833C11.0833 0.729167 9.91667 1.89583 8.75 3.64583C8.16667 4.8125 8.16667 5.39583 8.16667 7.14583C8.16667 10.6458 14 14.7292 17.5 15.8958L18.6667 16.4792V17.0625H2.33333C0.583333 17.0625 1.16667 16.4792 0 17.6458C0 17.6458 0 17.6458 0 18.2292C0 19.9792 0 22.3125 0 24.6458C0 25.8125 0 30.4792 0 31.0625C0.583333 31.6458 0.583333 31.0625 1.75 31.0625C7.58333 31.6458 13.4167 31.0625 19.25 31.6458Z" fill="white"/>
</svg>
