<svg width="69" height="58" viewBox="0 0 69 58" fill="none" xmlns="http://www.w3.org/2000/svg">
<path fill-rule="evenodd" clip-rule="evenodd" d="M55.7602 46.573C58.5276 45.7823 60.8997 47.7591 61.2951 50.1311C62.0858 52.8986 60.109 54.8753 57.737 55.666C54.9695 56.0614 52.9928 54.0846 52.2021 52.1079C51.8067 49.3405 53.7835 46.9684 55.7602 46.573ZM18.2021 46.573C20.9695 45.7823 23.3416 47.7591 23.737 49.7358C24.5276 52.8986 22.5509 54.8753 20.1788 55.666C15.0393 56.8521 11.8765 48.5498 18.2021 46.573ZM66.0393 41.8288C64.0625 42.2242 63.2718 41.8288 63.6672 39.4567H66.0393V41.8288ZM49.83 26.0149H59.3183L60.8997 32.7358H49.83V26.0149ZM49.83 21.2707C52.2021 21.2707 54.1788 21.2707 56.5509 21.2707C57.3416 21.2707 58.5276 21.2707 59.3183 21.666C59.7137 22.0614 60.109 22.8521 60.109 23.6428H49.83V21.2707ZM25.3183 12.1777C24.1323 11.7823 17.8067 7.43347 17.016 6.24743C15.4346 3.87533 18.5974 1.10789 20.9695 2.29394C22.1556 3.47998 23.737 7.03813 24.1323 8.61952C24.5276 9.41022 25.3183 11.387 25.3183 12.1777ZM29.2718 12.1777C29.2718 11.387 30.0625 9.80557 30.4579 8.61952C30.8532 6.64278 32.0393 3.47998 33.6207 2.29394C35.9928 1.10789 39.1556 3.87533 37.5742 6.24743C36.7835 7.03812 35.9928 7.82882 34.8067 8.61952C34.4114 9.01487 30.0625 11.7823 29.2718 12.1777ZM37.1788 9.41022C37.9695 8.61952 39.1556 8.22417 39.5509 6.64278C41.5276 2.29394 36.3881 -1.65955 32.4346 0.712543C30.4579 1.89859 29.2718 5.06138 28.4811 7.03813C28.0858 8.22417 27.6904 9.80557 27.2951 10.9916C26.8997 10.5963 26.109 7.82882 25.7137 7.03813C25.3183 5.85208 24.923 4.66603 24.5276 3.47998C23.7369 2.29394 22.9463 1.10789 22.1556 0.712543C18.2021 -1.65955 13.0625 2.29394 15.0393 7.03813C15.4346 8.22417 16.6207 9.01487 17.4114 9.80557C17.8067 9.80557 18.2021 10.2009 18.9928 10.5963C19.3881 10.9916 20.1788 11.387 20.1788 11.7823C19.3881 11.7823 16.6207 10.2009 15.4346 9.80557C15.0393 9.80557 13.4579 9.01487 13.0625 9.01487C11.8765 9.01487 11.4811 10.2009 12.2718 10.9916C12.6672 10.9916 17.8067 13.3637 18.9928 13.7591C19.3881 13.7591 19.7835 13.7591 20.1788 14.1544L21.3649 14.5498C18.9928 14.9451 7.1323 14.5498 5.94625 14.9451C5.15555 15.3405 4.76021 16.1311 4.76021 17.3172C4.36486 19.6893 4.36486 36.2939 4.76021 36.6893C5.15555 37.48 6.73695 37.48 6.73695 36.2939C6.73695 35.1079 6.73695 33.5265 6.73695 32.3405C6.73695 27.2009 6.73695 22.0614 6.73695 16.9218H47.8532V35.5032C47.8532 36.6893 48.2486 37.48 49.0393 37.0846C50.2253 37.0846 49.83 35.8986 49.83 35.1079C51.4114 35.1079 62.4811 34.7125 63.2718 35.1079C64.4579 35.5032 65.6439 36.2939 65.6439 37.48C61.6904 37.48 61.2951 36.2939 61.2951 41.0381C61.6904 42.2242 62.0858 43.0149 62.8765 43.4102C63.6672 44.2009 64.4579 44.2009 66.0393 44.2009V48.9451H63.2718C62.4811 47.3637 62.0858 46.573 60.8997 45.387C56.9463 43.0149 52.2021 44.5963 50.6207 48.1544C50.6207 48.5498 50.6207 48.9451 49.83 48.9451C49.83 47.3637 49.83 45.387 49.83 43.8056C49.83 42.2242 50.2253 39.8521 48.6439 39.8521C47.4579 39.8521 47.8532 42.6195 47.8532 43.8056C47.8532 45.387 47.8532 47.3637 47.8532 48.9451H25.7137C25.3183 48.1544 25.3183 47.7591 24.5276 46.9684C22.1556 43.4102 16.6207 43.4102 13.8532 46.9684C13.4579 47.7591 13.0625 48.1544 13.0625 48.9451H6.73695V46.573C7.923 46.1777 9.10904 46.573 10.2951 46.573C11.0858 46.573 12.2718 46.573 12.2718 45.387C12.2718 44.2009 11.0858 44.2009 9.89974 44.2009C8.31835 44.2009 0.806717 44.2009 0.411368 44.5963C-0.37933 45.387 0.0160189 46.1777 1.20207 46.573C2.38811 46.573 3.57416 46.1777 4.36486 46.573C4.76021 47.3637 4.36486 48.5498 4.76021 49.3405C5.5509 51.7125 9.10904 50.9218 12.6672 50.9218C12.6672 53.2939 13.4579 54.48 14.6439 55.666C15.4346 56.8521 17.016 57.6428 19.3881 57.6428C21.3649 57.6428 22.9463 56.8521 24.1323 55.666C25.3183 54.48 25.7137 53.2939 26.109 50.9218H50.2253C50.2253 53.2939 50.6207 54.48 52.2021 55.666C53.7835 57.6428 56.9463 58.4335 59.7137 57.2474C60.109 56.8521 60.5044 56.8521 60.8997 56.4567C62.4811 55.2707 63.2718 53.6893 63.6672 50.9218C64.4579 50.9218 66.0393 50.9218 66.83 50.9218C68.4114 50.9218 68.016 49.7358 68.016 48.5498C68.016 46.1777 68.016 44.2009 68.016 41.8288C68.016 39.4567 68.4114 37.48 67.2253 35.8986C66.4346 34.3172 65.2486 33.5265 63.2718 33.1311L61.6904 26.0149C62.4811 25.2242 62.4811 25.2242 62.4811 24.0381C62.4811 23.2474 62.4811 22.8521 62.0858 22.0614C60.5044 18.1079 54.9695 19.6893 49.83 19.2939C49.83 17.3172 50.2253 15.7358 48.6439 14.9451C47.8532 14.5498 45.0858 14.5498 43.8997 14.5498C40.3416 14.5498 36.7835 14.9451 33.2253 14.5498C33.6207 14.1544 34.8067 13.7591 35.5974 13.7591C36.7835 12.9684 41.923 11.387 42.3183 10.5963C42.7137 9.80557 42.3183 9.01487 41.1323 9.01487C40.3416 9.01487 35.5974 11.387 34.016 11.7823L37.1788 9.41022ZM21.3649 26.0149C22.1556 26.0149 23.3416 26.0149 24.1323 26.0149C25.3183 26.8056 26.109 29.9684 21.3649 29.573V26.0149ZM19.3881 25.2242V33.5265C19.3881 35.5032 20.5742 35.1079 20.9695 34.7125C21.7602 34.3172 21.3649 32.7358 21.3649 31.5498C23.737 31.5498 23.3416 31.5498 24.5276 33.5265C24.923 33.9218 25.3183 35.1079 26.109 35.1079C28.4811 34.7125 25.7137 31.9451 25.3183 31.1544C26.109 30.3637 26.5044 29.9684 26.8997 29.1777C27.6904 26.8056 26.109 23.6428 22.9463 23.6428C20.9695 23.6428 19.3881 23.2474 19.3881 25.2242ZM30.4579 32.7358V30.3637C31.6439 30.3637 34.016 30.7591 34.016 29.573C34.016 27.9916 31.6439 28.387 30.4579 28.387V26.0149C31.6439 26.0149 34.4114 26.0149 34.8067 25.6195C35.2021 24.8288 35.2021 24.0381 34.4114 24.0381C34.016 23.6428 30.8532 23.6428 30.0625 23.6428C27.6904 23.6428 28.4811 25.6195 28.4811 29.573C28.4811 35.5032 27.6904 35.1079 32.4346 35.1079C32.83 35.1079 34.016 35.1079 34.4114 34.7125C35.2021 34.7125 35.2021 33.9218 34.8067 33.1311C34.4114 32.7358 31.6439 32.7358 30.4579 32.7358ZM38.7602 32.7358L38.3649 30.3637C39.5509 30.3637 40.7369 30.7591 40.7369 29.573C40.7369 27.9916 39.5509 28.387 38.7602 28.387L38.3649 26.0149C39.5509 25.6195 42.3183 26.4102 42.7137 25.6195C43.109 25.2242 43.109 24.4335 42.7137 24.0381C41.923 23.6428 41.1323 23.6428 40.3416 23.6428C35.5974 23.6428 36.3881 23.2474 36.3881 29.1777C36.3881 30.7591 36.3881 32.7358 36.3881 33.9218C36.7835 35.5032 38.7602 35.1079 40.3416 35.1079C40.7369 35.1079 41.923 35.1079 42.3183 34.7125C43.109 34.7125 43.109 33.9218 43.109 33.5265C42.3183 32.7358 39.9463 33.1311 38.7602 32.7358ZM13.4579 30.3637C14.6439 30.3637 17.016 30.7591 17.016 29.573C17.016 27.9916 14.6439 28.387 13.4579 28.387V26.0149C14.6439 26.0149 16.6207 26.0149 17.4114 26.0149C18.2021 25.6195 18.5974 24.0381 17.016 23.6428C15.83 23.6428 14.2486 23.6428 13.0625 23.6428C11.4811 23.6428 11.4811 24.4335 11.4811 26.0149C11.4811 28.387 11.0858 31.1544 11.4811 33.9218C11.4811 35.5032 13.0625 35.5032 13.4579 34.3172C13.4579 33.9218 13.4579 31.1544 13.4579 30.3637ZM28.0858 44.2009C27.2951 44.5963 26.8997 45.387 27.6904 45.7823C28.0858 46.573 28.8765 46.573 29.6672 46.573C32.0393 46.573 44.2951 46.573 44.6904 46.1777C45.4811 46.1777 45.4811 45.387 45.0858 44.5963C44.6904 44.2009 43.8997 44.2009 43.109 44.2009C40.737 44.2009 28.4811 44.2009 28.0858 44.2009ZM3.17881 39.8521C1.99276 39.8521 1.99276 41.8288 3.96951 41.8288C5.15555 41.8288 16.6207 41.8288 17.016 41.8288C18.2021 41.4335 18.5974 39.8521 16.6207 39.8521H3.17881ZM18.5974 48.9451C15.83 49.7358 17.016 53.6893 19.7835 53.2939C22.5509 52.5032 21.7602 48.1544 18.5974 48.9451ZM56.5509 48.9451C53.3881 49.3405 54.5742 53.6893 57.3416 53.2939C59.7137 52.5032 59.3183 48.1544 56.5509 48.9451Z" fill="white"/>
</svg>
