<svg width="30" height="48" viewBox="0 0 30 48" fill="none" xmlns="http://www.w3.org/2000/svg">
<path fill-rule="evenodd" clip-rule="evenodd" d="M14.4998 47.0512H15.262C16.0241 46.1947 16.0241 46.1947 16.7862 45.3382C20.5969 41.9121 24.4076 35.9164 26.6941 30.7772C30.5048 23.0685 31.2669 15.3598 27.4562 7.65103C25.9319 5.08146 22.7758 2.51188 19.8348 1.65535C18.203 0.798828 16.0241 0.798828 16.0241 0.798828H14.6074C13.7377 0.798828 9.92698 0.798828 6.87843 3.36841C1.4359 7.65103 -1.50511 15.3598 0.78131 23.0685C2.30559 29.9207 6.11629 36.7729 9.92698 41.9121L11.4513 43.6251C12.2134 44.4816 12.2134 44.4816 12.9755 45.3382C13.7377 46.1947 13.7377 46.1947 14.4998 47.0512ZM15.262 41.0555C15.262 41.0555 17.5484 37.6294 18.3105 36.7729C20.5969 33.3468 25.0622 27.3511 25.8244 22.212C26.5838 17.0913 25.9319 13.6467 24.4076 10.2206C20.5969 3.36841 9.92698 3.36841 6.11629 10.2206C3.82987 13.6467 3.82987 17.9293 4.59201 22.212C5.35415 26.4946 9.16484 32.4903 9.16484 32.4903C9.16484 32.4903 11.3437 36.7729 12.1059 37.6294L14.4998 40.199C14.4998 40.199 15.1544 41.0555 15.262 41.0555ZM14.4998 8.50756C9.92698 9.36409 6.87843 13.6467 7.64057 18.7859C7.64057 23.0685 11.4513 26.4946 16.0241 26.4946C19.8348 25.6381 22.8834 21.3554 22.8834 16.2163C22.1212 11.9337 18.3105 8.50756 14.4998 8.50756ZM13.7377 11.9337C11.4513 12.7902 9.92698 15.3598 9.92698 18.7859C10.6891 21.3554 12.9755 23.0685 16.0241 23.0685C18.3105 22.212 19.8348 19.6424 19.8348 16.2163C19.0727 13.6467 16.7862 11.9337 13.7377 11.9337Z" fill="#EB653B"/>
</svg>
