<svg width="211" height="53" viewBox="0 0 211 53" fill="none" xmlns="http://www.w3.org/2000/svg">
<path d="M16.2988 51.2485H22.5988C20.9288 52.2385 19.4489 52.0786 19.4489 52.0786C19.4489 52.0786 17.9688 52.2385 16.2988 51.2485Z" fill="#FEFEFE"/>
<path d="M24.0089 50.1284H14.8989C14.6389 49.8584 14.3789 49.5487 14.1289 49.1987H24.7689C24.5189 49.5487 24.2689 49.8584 24.0089 50.1284Z" fill="#FEFEFE"/>
<path d="M25.4595 48.0688H13.4496C13.2996 47.7788 13.1595 47.4687 13.0195 47.1387H25.8795C25.7495 47.4687 25.6095 47.7788 25.4595 48.0688Z" fill="#FEFEFE"/>
<path d="M26.1992 46.0186H12.6992C12.6592 45.7186 12.6492 45.4086 12.6692 45.0986H26.2292C26.2492 45.4086 26.2392 45.7186 26.1992 46.0186Z" fill="#FEFEFE"/>
<path d="M26.0186 43.9585H12.8887C12.9487 43.6685 13.0286 43.3588 13.1086 43.0288H25.7986C25.8786 43.3588 25.9486 43.6685 26.0186 43.9585Z" fill="#FEFEFE"/>
<path d="M25.5189 41.9087H13.3789C13.4589 41.6087 13.5389 41.2988 13.6289 40.9888H25.2789C25.3589 41.2988 25.4389 41.6087 25.5189 41.9087Z" fill="#FEFEFE"/>
<path d="M24.9585 39.8486H13.9385C14.0285 39.5286 14.1185 39.2187 14.2185 38.9287H24.6885C24.7785 39.2187 24.8685 39.5286 24.9585 39.8486Z" fill="#FEFEFE"/>
<path d="M24.3089 37.8086H14.5889C14.7289 37.4386 14.8589 37.1284 14.9889 36.8784H23.9089C24.0389 37.1284 24.1689 37.4386 24.3089 37.8086Z" fill="#FEFEFE"/>
<path d="M24.0892 35.7485H14.8092C14.7692 35.4785 14.7292 35.1688 14.6992 34.8188H24.1992C24.1692 35.1688 24.1292 35.4785 24.0892 35.7485Z" fill="#FEFEFE"/>
<path d="M28.1993 33.6987H10.6993C10.2893 33.5487 9.89925 33.3488 9.57925 33.0688C9.52925 33.0188 9.47926 32.9785 9.42926 32.9385C9.38926 32.8985 9.31926 32.8488 9.23926 32.7788H29.6593C29.5793 32.8488 29.5193 32.8985 29.4693 32.9385C29.4193 32.9785 29.3693 33.0188 29.3193 33.0688C28.9993 33.3488 28.6193 33.5487 28.1993 33.6987Z" fill="#FEFEFE"/>
<path d="M30.4282 31.6387H8.46823C8.35823 31.4087 8.19824 31.0985 7.94824 30.7085H30.9482C30.6982 31.0985 30.5382 31.4087 30.4282 31.6387Z" fill="#FEFEFE"/>
<path d="M31.7286 29.5889H25.4386C25.4686 29.5689 25.4886 29.5488 25.4886 29.5488C25.7286 29.2588 26.3586 28.8687 26.3586 28.8687C26.4786 28.7987 26.6086 28.7285 26.7486 28.6685H32.1286C32.0486 29.0785 31.7886 29.4889 31.7286 29.5889ZM24.2386 29.5889H14.5786C14.5686 29.3389 14.5086 29.1284 14.5086 29.1284C14.4486 28.9684 14.3886 28.8185 14.3186 28.6685H24.8086C24.5586 28.9085 24.3686 29.0488 24.3686 29.0488C24.2186 29.1788 24.2086 29.3989 24.2386 29.5889ZM13.4586 29.5889H7.16858C7.10858 29.4889 6.85855 29.0785 6.76855 28.6685H12.1486C12.2886 28.7285 12.4186 28.7987 12.5386 28.8687C12.5386 28.8687 13.1686 29.2588 13.4086 29.5488C13.4086 29.5488 13.4286 29.5689 13.4586 29.5889Z" fill="#FEFEFE"/>
<path d="M25.8491 27.5288H19.859C19.919 27.5188 19.9491 27.5088 19.9491 27.5088C20.3391 27.1488 20.709 26.8489 21.019 26.6089H26.3791C26.3391 26.6689 26.3091 26.7388 26.2791 26.7988C26.1691 27.0488 26.0191 27.2988 25.8491 27.5288ZM18.859 27.5288H13.5591C13.2491 27.1688 12.8891 26.8689 12.5391 26.6089H17.4091C18.1291 27.1589 18.769 27.5088 18.769 27.5088C18.799 27.5188 18.829 27.5288 18.859 27.5288Z" fill="#FEFEFE"/>
<path d="M27.639 25.4893H22.819C23.229 25.1293 23.299 24.689 23.299 24.689C23.309 24.649 23.329 24.6091 23.339 24.5591H29.129C28.539 24.8991 28.039 25.2093 27.639 25.4893ZM16.209 25.4893H10.429C9.87899 25.2193 9.29898 24.9091 8.70898 24.5591H15.659C15.689 24.6991 15.709 24.7793 15.709 24.7793C15.849 25.0293 16.019 25.2593 16.209 25.4893Z" fill="#FEFEFE"/>
<path d="M31.4392 23.4292H28.0692C28.5692 23.1392 29.0092 22.829 29.3992 22.499H33.9492C33.8792 22.529 33.8392 22.5391 33.8392 22.5391C32.9592 22.8191 32.1592 23.1192 31.4392 23.4292ZM24.6892 23.4292H23.5992C23.6592 23.1092 23.6992 22.799 23.7192 22.499H24.7492C24.7392 22.859 24.7092 23.1792 24.6892 23.4292ZM15.4692 23.4292H14.3192C14.3492 23.0992 14.3992 22.789 14.4492 22.499H15.3992C15.4092 22.839 15.4392 23.1492 15.4692 23.4292ZM10.8192 23.4292H6.83917C6.33917 23.1092 5.85918 22.799 5.40918 22.499H10.0292C10.2992 22.569 10.4792 22.5293 10.4792 22.5293C10.3192 23.1593 10.7192 23.3091 10.7192 23.3091C10.7492 23.3491 10.7892 23.3892 10.8192 23.4292Z" fill="#FEFEFE"/>
<path d="M36.1592 21.3789H30.4992C30.7492 21.0789 30.9592 20.769 31.1492 20.459H36.6192C36.5792 20.779 36.5692 20.9692 36.5692 20.9692C36.4792 21.1092 36.3392 21.2389 36.1592 21.3789ZM24.7292 21.3789H23.7492C23.7392 21.0489 23.7092 20.739 23.6692 20.459H24.6192C24.6792 20.759 24.7092 21.0689 24.7292 21.3789ZM15.4192 21.3789H14.7392C14.8592 21.0189 14.9892 20.709 15.1192 20.459H15.5192C15.4692 20.769 15.4392 21.0789 15.4192 21.3789ZM8.7392 21.3789H3.7692C3.2892 21.0489 3.00922 20.8491 3.00922 20.8491C2.80922 20.7291 2.61922 20.599 2.44922 20.459H5.94922C6.40922 20.789 6.75922 20.979 6.75922 20.979C6.77922 20.799 6.78922 20.619 6.78922 20.459H8.31921C8.44921 20.829 8.5892 21.1289 8.7392 21.3789Z" fill="#FEFEFE"/>
<path d="M36.8289 19.3193H34.1489C34.4389 19.0693 34.7389 18.7592 34.9989 18.3892H37.0889C36.9789 18.7192 36.8889 19.0293 36.8289 19.3193ZM33.1489 19.3193H31.7189C31.8489 19.0093 31.949 18.6892 32.039 18.3892H33.349C33.269 18.7392 33.1989 19.0593 33.1489 19.3193ZM24.2989 19.3193H23.419C23.309 18.9193 23.1789 18.6092 23.0789 18.3892H23.629C23.919 18.6192 24.1389 18.9393 24.2989 19.3193ZM8.15895 19.3193H6.73894C6.68894 18.9493 6.61894 18.6392 6.54893 18.3892H8.22896C8.16896 18.7092 8.15895 19.0293 8.15895 19.3193ZM4.71895 19.3193H1.31895C1.06895 18.9993 0.848945 18.6792 0.668945 18.3892H4.14894C4.28894 18.7292 4.48895 19.0393 4.71895 19.3193Z" fill="#FEFEFE"/>
<path d="M37.5089 17.269H35.5188C35.5188 17.269 35.5788 16.8891 35.6189 16.3491H37.9789C37.8089 16.6591 37.6489 16.969 37.5089 17.269ZM33.6289 17.269H32.2889C32.3389 16.929 32.3789 16.6191 32.3889 16.3491H33.8988C33.7989 16.6591 33.7089 16.969 33.6289 17.269ZM8.42885 17.269H7.51884C7.60884 16.929 7.68885 16.6191 7.77885 16.3491H8.46886C8.44886 16.6991 8.43885 17.029 8.42885 17.269ZM7.34886 17.269H6.01884C5.84884 16.959 5.69884 16.6491 5.57884 16.3491H6.80885C7.02885 16.8091 7.22886 17.109 7.34886 17.269ZM3.93886 17.269H0.138854C0.0588545 16.969 0.0188539 16.6591 0.0288539 16.3491H1.69887C1.81887 16.6091 2.00884 16.8491 2.29884 17.0591C2.29884 17.0591 2.30886 16.7691 2.28886 16.3491H3.71886C3.81886 16.7491 3.89886 17.079 3.93886 17.269Z" fill="#FEFEFE"/>
<path d="M38.2889 15.209H35.6589C35.6489 14.909 35.6189 14.5891 35.5789 14.2891H38.3789C38.3389 14.6391 38.3089 14.959 38.2889 15.209ZM34.2889 15.209H32.3789C32.3589 14.889 32.3389 14.5791 32.3389 14.2891H33.6989C33.7189 14.3491 33.7189 14.3789 33.7189 14.3789C33.7289 14.3489 33.7389 14.3191 33.7489 14.2891H34.7189C34.5689 14.5591 34.4289 14.869 34.2889 15.209ZM8.62888 15.209H8.21887C8.60887 14.409 8.89886 14.3789 8.89886 14.3789C8.77886 14.5989 8.68888 14.899 8.62888 15.209ZM6.35886 15.209H5.15887C5.05887 14.889 4.97887 14.5691 4.90887 14.2891H6.09888C6.17888 14.6291 6.26886 14.929 6.35886 15.209ZM3.39886 15.209H2.11887C2.04887 14.889 1.92886 14.5691 1.76886 14.3091C1.76886 14.3091 1.58888 14.699 1.53888 15.209H0.0888672C0.118867 14.869 0.148873 14.5691 0.188873 14.2891H3.05887C3.18887 14.5891 3.29886 14.899 3.39886 15.209Z" fill="#FEFEFE"/>
<path d="M38.539 13.1689H37.039C37.089 12.8889 37.129 12.5793 37.159 12.2393H38.7189C38.6489 12.5493 38.589 12.8689 38.539 13.1689ZM36.4889 13.1689H34.1089C34.2989 12.6689 34.479 12.269 34.479 12.269C34.489 12.259 34.499 12.2493 34.509 12.2393H36.2489C36.3689 12.5693 36.4489 12.8989 36.4889 13.1689ZM33.4289 13.1689H32.3689C32.3989 12.8089 32.4389 12.4993 32.4889 12.2393H33.139C33.249 12.5493 33.3489 12.8689 33.4289 13.1689ZM5.87895 13.1689H4.70894C4.65894 12.7489 4.64894 12.5093 4.64894 12.5093C4.64894 12.4193 4.64894 12.3293 4.64894 12.2393H5.75896C5.78896 12.5693 5.82895 12.8789 5.87895 13.1689ZM2.80894 13.1689H0.418945C0.528945 12.7389 0.658951 12.4493 0.768951 12.2393H2.78896C2.77896 12.6093 2.78894 12.9189 2.80894 13.1689Z" fill="#FEFEFE"/>
<path d="M39.0387 11.1094H37.2086C37.2186 10.7994 37.2187 10.4892 37.2187 10.1792H39.4087C39.2687 10.4692 39.1487 10.7794 39.0387 11.1094ZM36.2686 11.1094H34.8887C34.8687 10.7894 34.7686 10.5894 34.7686 10.5894C34.6886 10.4494 34.6087 10.3092 34.5287 10.1792H36.3586C36.3386 10.5392 36.3086 10.8494 36.2686 11.1094ZM5.68866 11.1094H4.66867C4.67867 10.7794 4.69867 10.4692 4.72867 10.1792H5.66867C5.66867 10.4992 5.67866 10.8094 5.68866 11.1094ZM2.83865 11.1094H1.13867C1.13867 10.7594 1.13867 10.4592 1.13867 10.1792H2.93866C2.89866 10.4992 2.85865 10.8094 2.83865 11.1094Z" fill="#FEFEFE"/>
<path d="M39.8989 9.05908H37.1989C37.1889 8.73908 37.1689 8.42916 37.1589 8.13916H38.0289C38.0189 8.35916 38.0089 8.52891 38.0089 8.62891C37.9989 8.69891 38.0489 8.75904 38.1189 8.76904C38.1589 8.77904 38.2089 8.7793 38.2489 8.7793C38.3489 8.7693 38.4389 8.69912 38.4689 8.59912C38.5089 8.44912 38.5389 8.28916 38.5689 8.13916H39.9289C39.9189 8.51916 39.9089 8.82908 39.8989 9.05908ZM36.3189 9.05908H33.9289C33.7689 8.72908 33.6189 8.42916 33.4989 8.13916H34.9689C35.1989 8.63916 35.2789 8.979 35.2789 8.979C35.4689 8.749 35.5789 8.44916 35.6489 8.13916H36.1689C36.2489 8.45916 36.2889 8.76908 36.3189 9.05908ZM5.71893 9.05908H4.87894C4.93894 8.71908 5.00892 8.40916 5.07892 8.13916H5.86893C5.78893 8.52916 5.73893 8.85908 5.71893 9.05908ZM3.14893 9.05908H1.16895C1.19895 8.46908 1.21893 8.20898 1.21893 8.20898C1.22893 8.17898 1.22894 8.15916 1.22894 8.13916H2.68893C2.69893 8.22916 2.70892 8.26904 2.70892 8.26904C2.72892 8.22904 2.74892 8.17916 2.76892 8.13916H3.39893C3.29893 8.44916 3.21893 8.75908 3.14893 9.05908Z" fill="#FEFEFE"/>
<path d="M39.9192 6.99902H38.6891C38.6991 6.68902 38.6991 6.3791 38.6791 6.0791H39.8792C39.8992 6.3891 39.9092 6.70902 39.9192 6.99902ZM38.0191 6.99902H37.0891C37.0491 6.47902 37.0191 6.14893 37.0191 6.14893C37.0291 6.11893 37.0291 6.0991 37.0291 6.0791H37.9492C37.9792 6.3891 37.9991 6.70902 38.0191 6.99902ZM35.8192 6.99902H35.7592C35.7592 6.89902 35.7592 6.84912 35.7592 6.84912C35.7792 6.89912 35.7992 6.94902 35.8192 6.99902ZM34.3291 6.99902H33.0692C32.9492 6.63902 32.8691 6.3291 32.8091 6.0791H33.6091C33.8891 6.3891 34.1291 6.69902 34.3291 6.99902ZM6.17914 6.99902H5.50916C5.73916 6.54902 5.97916 6.2591 6.19916 6.0791H6.60913C6.43913 6.3591 6.29914 6.67902 6.17914 6.99902ZM3.79913 6.99902H3.36914C3.61914 6.55902 3.81916 6.2691 3.97916 6.0791H4.22916C4.06916 6.3791 3.92913 6.68902 3.79913 6.99902ZM2.62915 6.99902H1.36914C1.41914 6.66902 1.46915 6.3591 1.53915 6.0791H2.65915C2.63915 6.4091 2.62915 6.71902 2.62915 6.99902Z" fill="#FEFEFE"/>
<path d="M39.7593 4.94922H38.5893C38.5493 4.63922 38.5093 4.3293 38.4593 4.0293H39.5893C39.6593 4.3293 39.7093 4.64922 39.7593 4.94922ZM37.7693 4.94922H37.0493C37.0193 4.60922 36.9593 4.2993 36.8793 4.0293H37.4793C37.5993 4.3093 37.6993 4.62922 37.7693 4.94922ZM2.78934 4.94922H1.81934C1.92934 4.60922 2.04934 4.2993 2.16934 4.0293H3.00934C2.91934 4.3393 2.84934 4.64922 2.78934 4.94922Z" fill="#FEFEFE"/>
<path d="M39.2784 2.88916H38.2284C38.1484 2.55916 38.0684 2.24924 37.9984 1.96924H38.8683C39.0283 2.24924 39.1684 2.55916 39.2784 2.88916ZM36.5384 2.88916H36.3983C36.3683 2.84916 36.3583 2.8291 36.3583 2.8291C36.4183 2.8391 36.4784 2.86916 36.5384 2.88916ZM3.46835 2.88916H2.81836C3.19836 2.37916 3.56835 2.10924 3.83835 1.96924H4.10834C3.85834 2.24924 3.64835 2.55916 3.46835 2.88916Z" fill="#FEFEFE"/>
<path d="M37.9379 0.849121H37.6579C37.6179 0.709121 37.5879 0.628906 37.5879 0.628906C37.7079 0.688906 37.8279 0.769121 37.9379 0.849121Z" fill="#FEFEFE"/>
<path d="M73.0283 19.7993C73.0283 24.7393 69.4383 28.7593 64.3783 28.7593H57.4883V10.8394H64.3783C69.4383 10.8394 73.0283 14.8593 73.0283 19.7993ZM71.6683 19.7993C71.6683 15.5493 68.7083 12.1191 64.3783 12.1191H58.8783V27.4692H64.3783C68.7083 27.4692 71.6683 24.0393 71.6683 19.7993Z" fill="#FEFEFE"/>
<path d="M90.6086 22.4092C90.6086 22.6092 90.5786 22.819 90.5786 23.019H78.7086C79.0286 25.909 81.2786 27.8091 84.2686 27.8091C86.4186 27.8091 88.0386 26.829 88.7986 25.479L89.9486 26.1392C88.8786 27.8792 86.8386 29.0391 84.2386 29.0391C80.2086 29.0391 77.3486 26.2194 77.3486 22.3594C77.3486 18.5894 80.1286 15.6792 84.1386 15.6792C88.1186 15.6792 90.6086 18.8992 90.6086 22.4092ZM78.7086 21.769H89.2486C88.9586 18.639 86.7086 16.9092 84.1386 16.9092C81.1486 16.9092 78.9786 18.929 78.7086 21.769Z" fill="#FEFEFE"/>
<path d="M107.998 22.4092C107.998 22.6092 107.978 22.819 107.978 23.019H96.108C96.428 25.909 98.6781 27.8091 101.658 27.8091C103.808 27.8091 105.438 26.829 106.198 25.479L107.348 26.1392C106.278 27.8792 104.228 29.0391 101.638 29.0391C97.5981 29.0391 94.748 26.2194 94.748 22.3594C94.748 18.5894 97.518 15.6792 101.528 15.6792C105.518 15.6792 107.998 18.8992 107.998 22.4092ZM96.108 21.769H106.638C106.348 18.639 104.098 16.9092 101.528 16.9092C98.548 16.9092 96.368 18.929 96.108 21.769Z" fill="#FEFEFE"/>
<path d="M118.718 15.7793V17.0093C116.468 17.0093 114.338 18.3592 114.338 21.6392V28.7593H113.028V15.959H114.338V18.4692C115.238 16.4392 116.938 15.7793 118.718 15.7793Z" fill="#FEFEFE"/>
<path d="M134.178 28.7593L124.978 19.9292V28.7593H123.588V10.8394H124.978V19.1792L133.908 10.8394H135.768L126.498 19.5391L136.038 28.7593H134.178Z" fill="#FEFEFE"/>
<path d="M151.968 15.959V28.7593H150.628V25.8594C149.528 27.7794 147.508 29.0391 144.998 29.0391C141.278 29.0391 138.208 26.1394 138.208 22.3594C138.208 18.5694 141.278 15.6792 144.998 15.6792C147.508 15.6792 149.528 16.9291 150.628 18.8491V15.959H151.968ZM150.628 22.3594C150.628 19.3094 148.218 16.9092 145.098 16.9092C141.978 16.9092 139.548 19.3094 139.548 22.3594C139.548 25.3994 141.978 27.8091 145.098 27.8091C148.218 27.8091 150.628 25.3994 150.628 22.3594Z" fill="#FEFEFE"/>
<path d="M157.968 10.0693H159.278V28.7593H157.968V10.0693Z" fill="#FEFEFE"/>
<path d="M176.278 15.959L170.618 29.9292C169.618 32.3892 167.678 34.0491 165.428 33.8691V32.6689C167.188 32.8189 168.518 31.5392 169.338 29.6792L169.618 28.9893L163.598 15.959H165.008L170.298 27.3491L174.858 15.959H176.278Z" fill="#FEFEFE"/>
<path d="M192.938 15.959V28.7593H191.598V25.8594C190.498 27.7794 188.487 29.0391 185.967 29.0391C182.247 29.0391 179.188 26.1394 179.188 22.3594C179.188 18.5694 182.247 15.6792 185.967 15.6792C188.487 15.6792 190.498 16.9291 191.598 18.8491V15.959H192.938ZM191.598 22.3594C191.598 19.3094 189.187 16.9092 186.077 16.9092C182.957 16.9092 180.517 19.3094 180.517 22.3594C180.517 25.3994 182.957 27.8091 186.077 27.8091C189.187 27.8091 191.598 25.3994 191.598 22.3594Z" fill="#FEFEFE"/>
<path d="M210.017 20.7891V28.7593H208.688V20.7891C208.688 18.4391 207.297 16.9092 204.837 16.9092C202.267 16.9092 200.247 18.539 200.247 21.999V28.7593H198.938V15.959H200.247V18.3892C201.247 16.4992 202.918 15.6792 204.938 15.6792C208.057 15.6792 210.017 17.6991 210.017 20.7891Z" fill="#FEFEFE"/>
<path d="M57.4883 40.9688C57.4883 39.6588 58.5083 38.6587 59.8783 38.6587C60.7683 38.6587 61.5283 39.0986 61.8583 39.7886L61.4783 39.9985C61.2183 39.4485 60.5983 39.0786 59.8783 39.0786C58.7783 39.0786 57.9583 39.9188 57.9583 40.9688C57.9583 42.0187 58.7783 42.8589 59.8783 42.8589C60.6083 42.8589 61.2083 42.4787 61.5083 41.9287L61.8883 42.1587C61.5283 42.8387 60.7683 43.2788 59.8783 43.2788C58.5083 43.2788 57.4883 42.2787 57.4883 40.9688ZM185.288 41.9585C185.288 42.6385 184.838 43.1787 183.888 43.1787H181.698V38.7588H183.718C184.608 38.7588 185.068 39.2685 185.068 39.9185C185.068 40.3485 184.878 40.7084 184.488 40.8984C185.018 41.0684 185.288 41.4585 185.288 41.9585ZM182.148 39.1885V40.7188H183.718C184.298 40.7188 184.608 40.4385 184.608 39.9385C184.608 39.4685 184.288 39.1885 183.718 39.1885H182.148ZM184.838 41.9385C184.838 41.4585 184.488 41.1587 183.888 41.1587H182.148V42.7485H183.888C184.498 42.7485 184.838 42.4485 184.838 41.9385ZM175.168 40.9688C175.168 39.6588 176.228 38.6587 177.558 38.6587C178.868 38.6587 179.928 39.6588 179.928 40.9688C179.928 42.2787 178.868 43.2788 177.558 43.2788C176.228 43.2788 175.168 42.2787 175.168 40.9688ZM179.468 40.9688C179.468 39.9188 178.628 39.0786 177.558 39.0786C176.478 39.0786 175.628 39.9188 175.628 40.9688C175.628 42.0187 176.478 42.8589 177.558 42.8589C178.628 42.8589 179.468 42.0187 179.468 40.9688ZM173.398 38.7588V43.1787H172.938V41.1787H170.108V43.1787H169.658V38.7588H170.108V40.7588H172.938V38.7588H173.398ZM167.578 38.7588V43.1787H167.118V39.5288L164.228 43.1787H163.828V38.7588H164.288V42.4087L167.178 38.7588H167.578ZM162.158 41.9985C162.158 42.6685 161.598 43.2788 160.488 43.2788C159.468 43.2788 158.948 42.8188 158.718 42.2388L159.108 42.0186C159.278 42.5086 159.698 42.8589 160.488 42.8589C161.258 42.8589 161.688 42.4787 161.688 41.9688C161.688 41.4887 161.308 41.1587 160.698 41.1587H160.068V40.7188H160.518C161.108 40.7188 161.478 40.3987 161.478 39.9087C161.478 39.4387 161.048 39.0786 160.408 39.0786C159.808 39.0786 159.368 39.3388 159.178 39.7988L158.798 39.5889C159.038 39.0489 159.578 38.6587 160.408 38.6587C161.368 38.6587 161.928 39.2287 161.928 39.8887C161.928 40.3187 161.708 40.6984 161.288 40.8984C161.848 41.0784 162.158 41.4885 162.158 41.9985ZM157.038 38.7588V43.1787H156.578V42.1787C156.198 42.8487 155.498 43.2788 154.628 43.2788C153.338 43.2788 152.278 42.2787 152.278 40.9688C152.278 39.6588 153.338 38.6587 154.628 38.6587C155.498 38.6587 156.198 39.0888 156.578 39.7588V38.7588H157.038ZM156.578 40.9688C156.578 39.9188 155.738 39.0786 154.668 39.0786C153.588 39.0786 152.738 39.9188 152.738 40.9688C152.738 42.0187 153.588 42.8589 154.668 42.8589C155.738 42.8589 156.578 42.0187 156.578 40.9688ZM151.278 39.1885H148.898V43.1787H148.438V38.7588H151.278V39.1885ZM146.368 38.7588V43.1787H145.908V42.1787C145.518 42.8487 144.828 43.2788 143.958 43.2788C142.668 43.2788 141.608 42.2787 141.608 40.9688C141.608 39.6588 142.668 38.6587 143.958 38.6587C144.828 38.6587 145.518 39.0888 145.908 39.7588V38.7588H146.368ZM145.908 40.9688C145.908 39.9188 145.068 39.0786 143.988 39.0786C142.908 39.0786 142.068 39.9188 142.068 40.9688C142.068 42.0187 142.908 42.8589 143.988 42.8589C145.068 42.8589 145.908 42.0187 145.908 40.9688ZM139.838 43.1787H139.368V39.4287L137.678 42.0386H137.618L135.908 39.4087V43.1787H135.458V38.7588H135.988L137.638 41.2988L139.288 38.7588H139.838V43.1787ZM130.208 43.1787L128.668 41.2485L127.138 43.1787H126.588L128.398 40.9087L126.698 38.7588H127.248L128.668 40.5488L130.108 38.7588H130.648L128.958 40.8984L130.758 43.1787H130.208ZM123.848 41.8286C123.848 42.6386 123.158 43.1787 122.348 43.1787H120.558V38.7588H121.008V40.4688H122.348C123.158 40.4688 123.848 41.0086 123.848 41.8286ZM123.388 41.8286C123.388 41.2586 122.918 40.9087 122.348 40.9087H121.008V42.7485H122.348C122.918 42.7485 123.388 42.3886 123.388 41.8286ZM124.998 38.7588V43.1787H124.548V38.7588H124.998ZM118.478 38.7588V43.1787H118.018V41.1787H115.188V43.1787H114.738V38.7588H115.188V40.7588H118.018V38.7588H118.478ZM112.658 38.7588V43.1787H112.198V41.1787H109.368V43.1787H108.908V38.7588H109.368V40.7588H112.198V38.7588H112.658ZM106.838 43.1787H106.378V41.4585H105.398L103.978 43.1787H103.388L104.838 41.4487C104.128 41.3687 103.538 40.8489 103.538 40.1089C103.538 39.2989 104.228 38.7588 105.038 38.7588H106.838V43.1787ZM106.378 41.0288V39.1885H105.038C104.468 39.1885 104.008 39.5489 104.008 40.1089C104.008 40.6789 104.468 41.0288 105.038 41.0288H106.378ZM102.288 41.8286C102.288 42.6386 101.598 43.1787 100.798 43.1787H98.9983V38.7588H99.4483V40.4688H100.798C101.598 40.4688 102.288 41.0086 102.288 41.8286ZM101.828 41.8286C101.828 41.2586 101.368 40.9087 100.798 40.9087H99.4483V42.7485H100.798C101.368 42.7485 101.828 42.3886 101.828 41.8286ZM96.9183 43.1787H96.4683V39.1885H94.1883V41.3188C94.1883 42.8688 93.5083 43.2487 92.6583 43.1787V42.7686C93.3583 42.8286 93.7283 42.4688 93.7283 41.3188V38.7588H96.9183V43.1787ZM91.1683 38.7588V43.1787H90.6983V42.1787C90.3183 42.8487 89.6183 43.2788 88.7483 43.2788C87.4683 43.2788 86.3983 42.2787 86.3983 40.9688C86.3983 39.6588 87.4683 38.6587 88.7483 38.6587C89.6183 38.6587 90.3183 39.0888 90.6983 39.7588V38.7588H91.1683ZM90.6983 40.9688C90.6983 39.9188 89.8683 39.0786 88.7883 39.0786C87.7083 39.0786 86.8683 39.9188 86.8683 40.9688C86.8683 42.0187 87.7083 42.8589 88.7883 42.8589C89.8683 42.8589 90.6983 42.0187 90.6983 40.9688ZM84.9583 43.1787L82.5583 41.0088V43.1787H82.1083V38.7588H82.5583V40.7686L84.8483 38.7588H85.4883L83.0483 40.8784L85.5783 43.1787H84.9583ZM77.3283 41.8286C77.3283 42.6386 76.6383 43.1787 75.8283 43.1787H74.0383V38.7588H74.4883V40.4688H75.8283C76.6383 40.4688 77.3283 41.0086 77.3283 41.8286ZM76.8583 41.8286C76.8583 41.2586 76.3983 40.9087 75.8283 40.9087H74.4883V42.7485H75.8283C76.3983 42.7485 76.8583 42.3886 76.8583 41.8286ZM72.5383 39.1885H70.8883V43.1787H70.4383V39.1885H68.7783V38.7588H72.5383V39.1885ZM67.7983 40.9888C67.7983 41.0588 67.7983 41.1287 67.7983 41.1987H63.6883C63.7983 42.1987 64.5783 42.8589 65.6083 42.8589C66.3483 42.8589 66.9183 42.5188 67.1783 42.0488L67.5783 42.2788C67.2083 42.8788 66.4983 43.2788 65.5983 43.2788C64.1983 43.2788 63.2083 42.3088 63.2083 40.9688C63.2083 39.6688 64.1783 38.6587 65.5683 38.6587C66.9383 38.6587 67.7983 39.7688 67.7983 40.9888ZM63.6883 40.7686H67.3283C67.2283 39.6786 66.4483 39.0786 65.5683 39.0786C64.5283 39.0786 63.7783 39.7786 63.6883 40.7686Z" fill="#FEFEFE"/>
<path d="M57.3086 40.9688C57.3086 40.2587 57.5786 39.6287 58.0486 39.1787C58.4986 38.7387 59.1486 38.4688 59.8786 38.4688C60.3486 38.4688 60.7986 38.5888 61.1686 38.7988C61.5386 39.0188 61.8386 39.3285 62.0186 39.7085L62.0986 39.8687L61.3986 40.2686L61.3086 40.0786C61.1986 39.8386 60.9986 39.6388 60.7586 39.4888C60.5086 39.3488 60.2086 39.2686 59.8786 39.2686C59.3786 39.2686 58.9486 39.4588 58.6386 39.7588C58.3286 40.0588 58.1386 40.4887 58.1386 40.9688C58.1386 41.4488 58.3286 41.8687 58.6386 42.1787C58.9486 42.4787 59.3786 42.6685 59.8786 42.6685C60.2086 42.6685 60.4986 42.5887 60.7486 42.4487C60.9986 42.3087 61.2086 42.0986 61.3486 41.8486L61.4386 41.6787L62.1386 42.0786L62.0586 42.2388C61.8586 42.6188 61.5486 42.9287 61.1586 43.1387C60.7886 43.3487 60.3486 43.4688 59.8786 43.4688C59.1486 43.4688 58.4986 43.1988 58.0486 42.7588C57.5786 42.3088 57.3086 41.6788 57.3086 40.9688ZM58.3086 39.4487C57.9186 39.8287 57.6786 40.3587 57.6786 40.9688C57.6786 41.5687 57.9186 42.1088 58.3086 42.4888C58.6986 42.8688 59.2486 43.0889 59.8786 43.0889C60.2886 43.0889 60.6586 42.9888 60.9786 42.8188C61.2486 42.6688 61.4686 42.4688 61.6286 42.2188L61.5686 42.1885C61.4086 42.4285 61.1886 42.6286 60.9286 42.7686C60.6286 42.9486 60.2686 43.0386 59.8786 43.0386C59.2786 43.0386 58.7586 42.8187 58.3786 42.4487C57.9986 42.0687 57.7686 41.5487 57.7686 40.9688C57.7686 40.3888 57.9986 39.8688 58.3786 39.4888C58.7586 39.1188 59.2786 38.8887 59.8786 38.8887C60.2686 38.8887 60.6386 38.9885 60.9386 39.1685C61.1986 39.3085 61.4086 39.5085 61.5586 39.7485L61.5986 39.7188C61.4486 39.4787 61.2386 39.2784 60.9786 39.1284C60.6686 38.9484 60.2886 38.8486 59.8786 38.8486C59.2486 38.8486 58.6986 39.0687 58.3086 39.4487ZM185.479 41.9585C185.479 42.3685 185.329 42.7385 185.029 42.9985C184.769 43.2285 184.389 43.3687 183.889 43.3687H181.509V38.5688H183.719C184.189 38.5688 184.559 38.6987 184.819 38.9287C185.109 39.1687 185.259 39.5185 185.259 39.9185C185.259 40.1685 185.199 40.4089 185.079 40.6089C185.029 40.6989 184.959 40.7889 184.869 40.8589C185.019 40.9489 185.139 41.0587 185.229 41.1787C185.399 41.3987 185.479 41.6685 185.479 41.9585ZM184.789 42.7188C184.999 42.5287 185.099 42.2585 185.099 41.9585C185.099 41.7485 185.049 41.5587 184.929 41.4087C184.849 41.2987 184.739 41.2087 184.589 41.1387C184.629 41.1587 184.669 41.1888 184.709 41.2188C184.909 41.3888 185.029 41.6385 185.029 41.9385C185.029 42.2585 184.919 42.5087 184.709 42.6787C184.519 42.8487 184.239 42.9385 183.889 42.9385H181.959V40.9688H183.889C183.989 40.9688 184.069 40.9688 184.159 40.9888L183.989 40.9287L184.159 40.8486C184.029 40.8886 183.889 40.9087 183.719 40.9087H181.959V38.9985H183.719C184.049 38.9985 184.309 39.0888 184.499 39.2388C184.689 39.4088 184.799 39.6485 184.799 39.9385C184.799 40.2485 184.699 40.4887 184.499 40.6587L184.419 40.7188C184.569 40.6488 184.689 40.5387 184.759 40.4087C184.839 40.2787 184.889 40.0985 184.889 39.9185C184.889 39.6285 184.779 39.3785 184.579 39.2085C184.389 39.0385 184.099 38.9385 183.719 38.9385H181.889V42.9985H183.889C184.289 42.9985 184.589 42.8888 184.789 42.7188ZM182.339 39.3784V40.5288H183.719C183.959 40.5288 184.139 40.4784 184.259 40.3784C184.369 40.2784 184.419 40.1285 184.419 39.9385C184.419 39.7585 184.359 39.6188 184.259 39.5288C184.139 39.4288 183.959 39.3784 183.719 39.3784H182.339ZM184.649 41.9385C184.649 41.7585 184.589 41.6088 184.469 41.5088C184.339 41.3988 184.149 41.3389 183.889 41.3389H182.339V42.5586H183.889C184.149 42.5586 184.339 42.4984 184.469 42.3984C184.589 42.2984 184.649 42.1385 184.649 41.9385ZM174.979 40.9688C174.979 40.2587 175.269 39.6385 175.729 39.1885C176.189 38.7385 176.839 38.4688 177.559 38.4688C178.269 38.4688 178.909 38.7385 179.369 39.1885C179.829 39.6385 180.119 40.2587 180.119 40.9688C180.119 41.6688 179.829 42.2988 179.369 42.7388C178.909 43.1988 178.269 43.4688 177.559 43.4688C176.839 43.4688 176.189 43.1985 175.729 42.7485C175.269 42.2985 174.979 41.6688 174.979 40.9688ZM175.989 39.4585C175.599 39.8385 175.359 40.3687 175.359 40.9688C175.359 41.5687 175.599 42.0985 175.989 42.4785C176.389 42.8585 176.939 43.0889 177.559 43.0889C178.169 43.0889 178.719 42.8585 179.109 42.4785C179.499 42.0985 179.739 41.5687 179.739 40.9688C179.739 40.3687 179.499 39.8385 179.109 39.4585C178.719 39.0785 178.169 38.8486 177.559 38.8486C176.939 38.8486 176.389 39.0785 175.989 39.4585ZM179.279 40.9688C179.279 40.4887 179.089 40.0688 178.779 39.7588C178.469 39.4588 178.039 39.2686 177.559 39.2686C177.069 39.2686 176.629 39.4588 176.319 39.7588C176.009 40.0688 175.819 40.4887 175.819 40.9688C175.819 41.4388 176.009 41.8687 176.319 42.1787C176.629 42.4787 177.069 42.6685 177.559 42.6685C178.039 42.6685 178.469 42.4787 178.779 42.1787C179.089 41.8687 179.279 41.4488 179.279 40.9688ZM179.049 39.4888C179.419 39.8688 179.659 40.3888 179.659 40.9688C179.659 41.5487 179.419 42.0685 179.049 42.4385C178.669 42.8185 178.139 43.0386 177.559 43.0386C176.969 43.0386 176.439 42.8185 176.059 42.4385C175.679 42.0685 175.439 41.5487 175.439 40.9688C175.439 40.3888 175.679 39.8685 176.059 39.4985C176.439 39.1185 176.969 38.8887 177.559 38.8887C178.139 38.8887 178.669 39.1188 179.049 39.4888ZM173.589 38.7588V43.3687H172.749V41.3687H170.299V43.3687H169.469V38.5688H170.299V40.5688H172.749V38.5688H173.589V38.7588ZM173.209 42.9985V38.9385H173.129V40.9487H169.919V38.9385H169.839V42.9985H169.919V40.9888H173.129V42.9985H173.209ZM167.769 38.7588V43.3687H166.929V40.0688L164.319 43.3687H163.649V38.5688H164.469V41.8784L167.089 38.5688H167.769V38.7588ZM167.389 42.9985V38.9385H167.269L164.099 42.9487V38.9385H164.019V42.9985H164.139L167.299 38.9785V42.9985H167.389ZM162.339 41.9985C162.339 42.4085 162.159 42.7986 161.799 43.0786C161.489 43.3186 161.059 43.4688 160.489 43.4688C159.979 43.4688 159.579 43.3587 159.269 43.1787C158.909 42.9587 158.679 42.6488 158.549 42.2988L158.489 42.1484L159.209 41.7388L159.289 41.9487C159.359 42.1687 159.499 42.3585 159.699 42.4785C159.889 42.5985 160.149 42.6685 160.489 42.6685C160.819 42.6685 161.079 42.5887 161.249 42.4688C161.419 42.3488 161.509 42.1688 161.509 41.9688C161.509 41.7887 161.429 41.6286 161.299 41.5186C161.159 41.4086 160.959 41.3389 160.699 41.3389H159.879V40.5288H160.519C160.769 40.5288 160.969 40.4689 161.099 40.3589C161.219 40.2489 161.289 40.0987 161.289 39.9087C161.289 39.7287 161.209 39.5685 161.059 39.4585C160.909 39.3385 160.679 39.2686 160.409 39.2686C160.139 39.2686 159.909 39.3287 159.739 39.4287C159.559 39.5287 159.429 39.6787 159.349 39.8687L159.269 40.0688L158.559 39.6685L158.629 39.5088C158.769 39.1888 159.009 38.9188 159.329 38.7388C159.619 38.5688 159.979 38.4688 160.409 38.4688C160.909 38.4688 161.319 38.6186 161.609 38.8486C161.939 39.1186 162.119 39.4887 162.119 39.8887C162.119 40.1387 162.049 40.3889 161.919 40.5889C161.859 40.6889 161.779 40.7887 161.679 40.8687C161.839 40.9587 161.969 41.0687 162.079 41.1987C162.249 41.4287 162.339 41.6985 162.339 41.9985ZM161.569 42.7886C161.839 42.5786 161.969 42.2985 161.969 41.9985C161.969 41.7785 161.899 41.5887 161.779 41.4287C161.689 41.3187 161.569 41.2184 161.409 41.1484C161.459 41.1684 161.499 41.1985 161.539 41.2285C161.759 41.4085 161.879 41.6688 161.879 41.9688C161.879 42.2987 161.739 42.5686 161.469 42.7686C161.239 42.9386 160.899 43.0386 160.489 43.0386C160.079 43.0386 159.749 42.9588 159.499 42.7988C159.289 42.6688 159.129 42.4888 159.019 42.2788L158.959 42.3188C159.069 42.5288 159.229 42.7189 159.459 42.8589C159.719 43.0089 160.049 43.0889 160.489 43.0889C160.969 43.0889 161.329 42.9686 161.569 42.7886ZM160.699 40.9688C160.789 40.9688 160.879 40.9688 160.959 40.9888L160.779 40.9287L160.959 40.8486C160.829 40.8886 160.679 40.9087 160.519 40.9087H160.259V40.9688H160.699ZM161.339 40.6387L161.259 40.7085C161.409 40.6285 161.519 40.5187 161.599 40.3887C161.689 40.2487 161.739 40.0787 161.739 39.8887C161.739 39.5987 161.609 39.3384 161.379 39.1484C161.149 38.9584 160.819 38.8486 160.409 38.8486C160.049 38.8486 159.749 38.9286 159.519 39.0586C159.319 39.1686 159.159 39.3288 159.049 39.5088L159.099 39.5386C159.209 39.3586 159.359 39.2089 159.549 39.1089C159.779 38.9689 160.069 38.8887 160.409 38.8887C160.769 38.8887 161.069 38.9987 161.289 39.1587C161.529 39.3487 161.659 39.6087 161.659 39.9087C161.659 40.2087 161.549 40.4687 161.339 40.6387ZM157.229 38.7588V43.3687H156.389V42.7388C156.239 42.9088 156.059 43.0487 155.859 43.1587C155.499 43.3587 155.089 43.4688 154.629 43.4688C153.929 43.4688 153.289 43.1988 152.829 42.7388C152.379 42.2888 152.089 41.6688 152.089 40.9688C152.089 40.2687 152.379 39.6487 152.829 39.1987C153.289 38.7387 153.929 38.4688 154.629 38.4688C155.089 38.4688 155.499 38.5788 155.859 38.7788C156.059 38.8888 156.239 39.0287 156.389 39.1987V38.5688H157.229V38.7588ZM156.849 42.9985V38.9385H156.769V40.4585L156.629 40.2188C156.719 40.4488 156.769 40.6988 156.769 40.9688C156.769 41.2287 156.719 41.4787 156.629 41.7188L156.769 41.4785V42.9985H156.849ZM155.669 42.8286C155.869 42.7186 156.039 42.5787 156.189 42.4087L156.159 42.4385C155.779 42.8185 155.249 43.0386 154.669 43.0386C154.079 43.0386 153.549 42.8185 153.169 42.4385C152.789 42.0685 152.549 41.5487 152.549 40.9688C152.549 40.3888 152.789 39.8685 153.169 39.4985C153.549 39.1185 154.079 38.8887 154.669 38.8887C155.249 38.8887 155.779 39.1188 156.159 39.4888L156.179 39.5186C156.039 39.3586 155.869 39.2189 155.669 39.1089C155.379 38.9389 155.019 38.8486 154.629 38.8486C154.029 38.8486 153.489 39.0788 153.089 39.4688C152.709 39.8388 152.469 40.3687 152.469 40.9688C152.469 41.5687 152.709 42.0887 153.089 42.4688C153.489 42.8587 154.029 43.0889 154.629 43.0889C155.019 43.0889 155.379 42.9986 155.669 42.8286ZM156.389 40.9688C156.389 40.4887 156.199 40.0688 155.889 39.7588C155.579 39.4588 155.149 39.2686 154.669 39.2686C154.179 39.2686 153.739 39.4588 153.429 39.7588C153.119 40.0688 152.929 40.4887 152.929 40.9688C152.929 41.4388 153.119 41.8687 153.429 42.1787C153.739 42.4787 154.179 42.6685 154.669 42.6685C155.149 42.6685 155.579 42.4787 155.889 42.1787C156.199 41.8687 156.389 41.4488 156.389 40.9688ZM151.279 39.3784H149.089V43.3687H148.259V38.5688H151.469V39.3784H151.279ZM148.899 38.9985H151.089V38.9385H148.629V42.9985H148.709V38.9985H148.899ZM146.549 38.7588V43.3687H145.719V42.7485C145.559 42.9085 145.379 43.0487 145.179 43.1587C144.829 43.3587 144.409 43.4688 143.959 43.4688C143.259 43.4688 142.619 43.1988 142.159 42.7388C141.699 42.2888 141.419 41.6688 141.419 40.9688C141.419 40.2687 141.699 39.6487 142.159 39.1987C142.619 38.7387 143.259 38.4688 143.959 38.4688C144.409 38.4688 144.829 38.5788 145.179 38.7788C145.379 38.8888 145.559 39.0285 145.719 39.1885V38.5688H146.549V38.7588ZM146.179 42.9985V38.9385H146.089V40.4585L145.959 40.2285C146.049 40.4585 146.089 40.7088 146.089 40.9688C146.089 41.2287 146.049 41.4785 145.959 41.7085L146.089 41.4785V42.9985H146.179ZM144.999 42.8286C145.199 42.7186 145.369 42.5787 145.519 42.4087L145.479 42.4385C145.099 42.8185 144.579 43.0386 143.989 43.0386C143.399 43.0386 142.879 42.8185 142.499 42.4385C142.109 42.0685 141.879 41.5487 141.879 40.9688C141.879 40.3888 142.109 39.8685 142.499 39.4985C142.879 39.1185 143.399 38.8887 143.989 38.8887C144.579 38.8887 145.099 39.1188 145.479 39.4888L145.509 39.5186C145.359 39.3586 145.189 39.2189 144.999 39.1089C144.699 38.9389 144.349 38.8486 143.959 38.8486C143.359 38.8486 142.809 39.0788 142.419 39.4688C142.029 39.8388 141.789 40.3687 141.789 40.9688C141.789 41.5687 142.029 42.0887 142.419 42.4688C142.809 42.8587 143.359 43.0889 143.959 43.0889C144.349 43.0889 144.699 42.9986 144.999 42.8286ZM145.719 40.9688C145.719 40.4887 145.529 40.0688 145.219 39.7588C144.909 39.4588 144.479 39.2686 143.989 39.2686C143.499 39.2686 143.069 39.4588 142.759 39.7588C142.449 40.0688 142.259 40.4887 142.259 40.9688C142.259 41.4388 142.449 41.8687 142.759 42.1787C143.069 42.4787 143.499 42.6685 143.989 42.6685C144.479 42.6685 144.909 42.4787 145.219 42.1787C145.529 41.8687 145.719 41.4488 145.719 40.9688ZM139.839 43.3687H139.189V40.0586L137.779 42.2285H137.509L136.099 40.0488V43.3687H135.269V38.5688H136.089L137.639 40.9487L139.189 38.5688H140.029V43.3687H139.839ZM139.559 42.9985H139.649V38.9385H139.559V42.9985ZM139.219 39.3286L139.469 38.9385H139.389L137.639 41.6387L135.889 38.9385H135.829L137.649 41.7485L139.219 39.3286ZM135.719 39.4087V38.9385H135.639V42.9985H135.719V39.4087ZM130.059 43.2988L128.669 41.5488L127.229 43.3687H126.199L128.159 40.9087L126.309 38.5688H127.339L128.669 40.2485L130.019 38.5688H131.039L129.189 40.8984L131.149 43.3687H130.119L130.059 43.2988ZM128.819 41.1387L130.299 42.9985H130.369L128.719 40.8984L130.259 38.9385H130.199L128.669 40.8486L127.159 38.9385H127.079L128.639 40.9087L126.979 42.9985H127.049L128.669 40.9487L128.819 41.1387ZM124.039 41.8286C124.039 42.2786 123.849 42.6587 123.549 42.9287C123.239 43.2087 122.809 43.3687 122.349 43.3687H120.369V38.5688H121.199V40.2788H122.349C122.809 40.2788 123.239 40.4485 123.549 40.7285C123.849 40.9985 124.039 41.3786 124.039 41.8286ZM123.299 42.6484C123.519 42.4484 123.659 42.1686 123.659 41.8286C123.659 41.4886 123.519 41.1985 123.299 40.9985C123.059 40.7885 122.719 40.6587 122.349 40.6587H120.819V38.9385H120.749V42.9985H122.349C122.719 42.9985 123.059 42.8684 123.299 42.6484ZM123.199 41.8286C123.199 41.6086 123.109 41.4286 122.979 41.3086C122.819 41.1686 122.599 41.0986 122.349 41.0986H121.199V42.5586H122.349C122.599 42.5586 122.819 42.4786 122.969 42.3486C123.109 42.2186 123.199 42.0386 123.199 41.8286ZM123.219 41.0288C123.439 41.2188 123.579 41.4986 123.579 41.8286C123.579 42.1586 123.439 42.4284 123.219 42.6284C122.999 42.8284 122.689 42.9385 122.349 42.9385H120.819V40.7188H122.349C122.689 40.7188 122.999 40.8288 123.219 41.0288ZM125.189 38.7588V43.3687H124.359V38.5688H125.189V38.7588ZM124.809 42.9985V38.9385H124.739V42.9985H124.809ZM118.669 38.7588V43.3687H117.829V41.3687H115.379V43.3687H114.549V38.5688H115.379V40.5688H117.829V38.5688H118.669V38.7588ZM118.289 42.9985V38.9385H118.209V40.9487H114.999V38.9385H114.919V42.9985H114.999V40.9888H118.209V42.9985H118.289ZM112.849 38.7588V43.3687H112.009V41.3687H109.559V43.3687H108.729V38.5688H109.559V40.5688H112.009V38.5688H112.849V38.7588ZM112.469 42.9985V38.9385H112.379V40.9487H109.179V38.9385H109.099V42.9985H109.179V40.9888H112.379V42.9985H112.469ZM106.839 43.3687H106.199V41.6484H105.489L104.069 43.3687H102.989L104.499 41.5688C104.209 41.4888 103.959 41.3387 103.769 41.1387C103.509 40.8687 103.359 40.5189 103.359 40.1089C103.359 39.6589 103.539 39.2788 103.839 39.0088C104.149 38.7288 104.579 38.5688 105.039 38.5688H107.019V43.3687H106.839ZM106.569 42.9985H106.649V38.9385H105.039C104.669 38.9385 104.329 39.0686 104.089 39.2886C103.869 39.4886 103.729 39.7689 103.729 40.1089C103.729 40.4189 103.849 40.6784 104.039 40.8784C104.239 41.0884 104.539 41.2288 104.859 41.2588L105.209 41.2988L103.789 42.9985H103.889L105.319 41.2686H106.569V42.9985ZM106.199 40.8389V39.3784H105.039C104.799 39.3784 104.579 39.4489 104.419 39.5889C104.279 39.7189 104.199 39.8989 104.199 40.1089C104.199 40.3289 104.279 40.5084 104.419 40.6284C104.569 40.7684 104.789 40.8389 105.039 40.8389H106.199ZM106.569 39.1885V41.2188H105.039C104.699 41.2188 104.389 41.1087 104.169 40.9087C103.949 40.7187 103.819 40.4389 103.819 40.1089C103.819 39.7789 103.949 39.5086 104.169 39.3086C104.389 39.1086 104.699 38.9985 105.039 38.9985H106.569V39.1885ZM102.479 41.8286C102.479 42.2786 102.289 42.6587 101.989 42.9287C101.679 43.2087 101.259 43.3687 100.799 43.3687H98.8086V38.5688H99.6386V40.2788H100.799C101.259 40.2788 101.689 40.4485 101.989 40.7285C102.289 40.9985 102.479 41.3786 102.479 41.8286ZM101.739 42.6587C101.969 42.4487 102.109 42.1686 102.109 41.8286C102.109 41.4886 101.959 41.2085 101.739 40.9985C101.499 40.7885 101.159 40.6587 100.799 40.6587H99.2686V38.9385H99.1886V42.9985H100.799C101.159 42.9985 101.499 42.8687 101.739 42.6587ZM101.639 41.8286C101.639 41.6086 101.559 41.4286 101.419 41.3086C101.269 41.1686 101.039 41.0986 100.799 41.0986H99.6386V42.5586H100.799C101.039 42.5586 101.259 42.4786 101.419 42.3486C101.559 42.2186 101.639 42.0386 101.639 41.8286ZM101.669 41.0288C101.889 41.2188 102.019 41.4986 102.019 41.8286C102.019 42.1586 101.879 42.4284 101.669 42.6284C101.439 42.8284 101.139 42.9385 100.799 42.9385H99.2686V40.7188H100.799C101.139 40.7188 101.439 40.8288 101.669 41.0288ZM96.9186 43.3687H96.2786V39.3784H94.3686V41.3188C94.3686 42.1488 94.1886 42.6788 93.8786 42.9888C93.5586 43.3188 93.1286 43.4087 92.6486 43.3687L92.4686 43.3589V42.5586L92.6786 42.5786C92.9586 42.6086 93.1786 42.5484 93.3086 42.3784C93.4686 42.1884 93.5386 41.8488 93.5386 41.3188V38.5688H97.1086V43.3687H96.9186ZM96.6586 42.9985H96.7386V38.9385H93.9186V41.3188C93.9186 41.9388 93.8086 42.3489 93.6086 42.6089C93.4186 42.8489 93.1686 42.9485 92.8486 42.9585V42.9985C93.1486 42.9985 93.4186 42.9185 93.6086 42.7285C93.8486 42.4785 93.9986 42.0388 93.9986 41.3188V38.9985H96.6586V42.9985ZM91.3486 38.7588V43.3687H90.5086V42.7485C90.3586 42.9085 90.1786 43.0487 89.9786 43.1587C89.6286 43.3587 89.2086 43.4688 88.7486 43.4688C88.0486 43.4688 87.4186 43.1988 86.9586 42.7388C86.4986 42.2888 86.2186 41.6688 86.2186 40.9688C86.2186 40.2687 86.4986 39.6487 86.9586 39.1987C87.4186 38.7387 88.0486 38.4688 88.7486 38.4688C89.2086 38.4688 89.6286 38.5788 89.9786 38.7788C90.1786 38.8888 90.3586 39.0285 90.5086 39.1885V38.5688H91.3486V38.7588ZM90.9786 42.9985V38.9385H90.8886V40.4585L90.7586 40.2285C90.8386 40.4585 90.8886 40.7088 90.8886 40.9688C90.8886 41.2287 90.8386 41.4785 90.7586 41.7085L90.8886 41.4785V42.9985H90.9786ZM89.7986 42.8286C89.9986 42.7186 90.1686 42.5787 90.3086 42.4087L90.2786 42.4385C89.8986 42.8185 89.3786 43.0386 88.7886 43.0386C88.1986 43.0386 87.6686 42.8185 87.2886 42.4385C86.9086 42.0685 86.6786 41.5487 86.6786 40.9688C86.6786 40.3888 86.9086 39.8685 87.2886 39.4985C87.6686 39.1185 88.1986 38.8887 88.7886 38.8887C89.3786 38.8887 89.8986 39.1188 90.2786 39.4888L90.2986 39.5186C90.1586 39.3586 89.9886 39.2189 89.7986 39.1089C89.4986 38.9389 89.1486 38.8486 88.7486 38.8486C88.1586 38.8486 87.6086 39.0788 87.2186 39.4688C86.8286 39.8388 86.5886 40.3687 86.5886 40.9688C86.5886 41.5687 86.8286 42.0887 87.2186 42.4688C87.6086 42.8587 88.1586 43.0889 88.7486 43.0889C89.1486 43.0889 89.4986 42.9986 89.7986 42.8286ZM90.5086 40.9688C90.5086 40.4887 90.3286 40.0688 90.0186 39.7588C89.7086 39.4588 89.2786 39.2686 88.7886 39.2686C88.2986 39.2686 87.8686 39.4588 87.5586 39.7588C87.2386 40.0688 87.0486 40.4887 87.0486 40.9688C87.0486 41.4388 87.2386 41.8687 87.5586 42.1787C87.8686 42.4787 88.2986 42.6685 88.7886 42.6685C89.2786 42.6685 89.7086 42.4787 90.0186 42.1787C90.3286 41.8687 90.5086 41.4488 90.5086 40.9688ZM84.8386 43.3188L82.7486 41.4287V43.3687H81.9186V38.5688H82.7486V40.3486L84.7786 38.5688H85.9886L83.3286 40.8784L86.0586 43.3687H84.8886L84.8386 43.3188ZM82.7086 40.8887L85.0286 42.9985H85.0886L82.7686 40.8784L84.9886 38.9385H84.9186L82.7086 40.8887ZM82.3686 41.0088V38.9385H82.2886V42.9985H82.3686V41.0088ZM77.5086 41.8286C77.5086 42.2786 77.3286 42.6587 77.0286 42.9287C76.7186 43.2087 76.2886 43.3687 75.8286 43.3687H73.8486V38.5688H74.6786V40.2788H75.8286C76.2886 40.2788 76.7186 40.4485 77.0286 40.7285C77.3286 40.9985 77.5086 41.3786 77.5086 41.8286ZM76.7786 42.6484C76.9986 42.4484 77.1386 42.1686 77.1386 41.8286C77.1386 41.4886 76.9986 41.1985 76.7786 40.9985C76.5386 40.7885 76.1986 40.6587 75.8286 40.6587H74.2986V38.9385H74.2186V42.9985H75.8286C76.1986 42.9985 76.5386 42.8684 76.7786 42.6484ZM76.6786 41.8286C76.6786 41.6086 76.5886 41.4286 76.4486 41.3086C76.2986 41.1686 76.0786 41.0986 75.8286 41.0986H74.6786V42.5586H75.8286C76.0786 42.5586 76.2986 42.4786 76.4486 42.3486C76.5886 42.2186 76.6786 42.0386 76.6786 41.8286ZM76.6986 41.0288C76.9186 41.2188 77.0486 41.4986 77.0486 41.8286C77.0486 42.1586 76.9186 42.4284 76.6986 42.6284C76.4786 42.8284 76.1686 42.9385 75.8286 42.9385H74.2986V40.7188H75.8286C76.1686 40.7188 76.4786 40.8288 76.6986 41.0288ZM72.5386 39.3784H71.0786V43.3687H70.2486V39.3784H68.5986V38.5688H72.7286V39.3784H72.5386ZM70.8886 38.9985H72.3486V38.9385H68.9686V38.9985H70.6186V42.9985H70.6986V38.9985H70.8886ZM67.9886 40.9888C67.9886 41.1188 67.9786 41.2487 67.9786 41.3887H63.9086C63.9886 41.7387 64.1686 42.0388 64.4186 42.2588C64.7186 42.5188 65.1386 42.6685 65.6086 42.6685C65.9386 42.6685 66.2286 42.5985 66.4586 42.4785C66.7086 42.3485 66.8986 42.1685 67.0086 41.9585L67.1086 41.7886L67.8386 42.2085L67.7386 42.3784C67.5286 42.7184 67.2286 42.9985 66.8486 43.1885C66.4886 43.3685 66.0686 43.4688 65.5986 43.4688C64.8486 43.4688 64.2086 43.2086 63.7586 42.7686C63.2986 42.3186 63.0286 41.6888 63.0286 40.9688C63.0286 40.2587 63.2986 39.6287 63.7486 39.1787C64.1986 38.7387 64.8286 38.4688 65.5686 38.4688C66.2786 38.4688 66.8686 38.7485 67.2886 39.1885C67.7386 39.6585 67.9886 40.3088 67.9886 40.9888ZM67.6186 41.0088V40.9888C67.6186 40.3988 67.3986 39.8387 67.0186 39.4487C66.6686 39.0787 66.1686 38.8486 65.5686 38.8486C64.9286 38.8486 64.3886 39.0685 64.0186 39.4385C63.6286 39.8185 63.3986 40.3587 63.3986 40.9688C63.3986 41.5887 63.6286 42.1185 64.0186 42.4985C64.4086 42.8685 64.9486 43.0889 65.5986 43.0889C66.0086 43.0889 66.3686 43.0086 66.6786 42.8486C66.9286 42.7186 67.1486 42.5489 67.3086 42.3389L67.2386 42.2988C67.0886 42.5088 66.8786 42.6786 66.6286 42.8086C66.3486 42.9586 65.9986 43.0386 65.6086 43.0386C65.0486 43.0386 64.5486 42.8586 64.1786 42.5386C63.7986 42.2186 63.5586 41.7687 63.4986 41.2188L63.4786 41.0088H67.6186ZM63.8986 40.5786H67.1186C67.0486 40.1986 66.8786 39.8985 66.6486 39.6885C66.3586 39.4085 65.9786 39.2686 65.5686 39.2686C65.0986 39.2686 64.6986 39.4285 64.3986 39.6885C64.1486 39.9085 63.9786 40.2186 63.8986 40.5786ZM67.3286 40.9487H63.4786L63.4986 40.7485C63.5486 40.2085 63.7886 39.7387 64.1586 39.4087C64.5186 39.0787 64.9986 38.8887 65.5686 38.8887C66.0686 38.8887 66.5486 39.0785 66.9086 39.4185C67.2386 39.7285 67.4686 40.1785 67.5186 40.7485L67.5386 40.9487H67.3286Z" fill="#FEFEFE"/>
</svg>
