<svg width="21" height="19" viewBox="0 0 21 19" fill="none" xmlns="http://www.w3.org/2000/svg">
<path fill-rule="evenodd" clip-rule="evenodd" d="M6.77624 12.013C6.40722 12.1776 6.40723 12.4373 6.20954 12.9567C6.06456 13.3304 5.93276 13.6978 5.78778 14.0779C5.53737 14.7303 5.1288 15.4017 5.68892 15.6994C5.88661 15.8007 6.18316 15.769 6.44016 15.769C6.24906 16.0921 6.0645 16.2694 5.98543 16.7381C5.78774 17.8719 6.67739 19.0121 8.00851 18.9994C9.28692 18.9867 10.1765 17.8909 9.98543 16.7445C9.90635 16.2694 9.71521 16.0794 9.5307 15.7817L13.847 15.769C13.7877 15.9021 13.6559 16.0477 13.5702 16.2188C13.4779 16.3961 13.4252 16.5545 13.3923 16.7635C13.0364 18.936 16.1995 19.9052 17.2143 17.9226C17.7481 16.8775 17.1682 16.2314 16.9441 15.769C17.4779 15.769 18.0512 15.8197 18.0907 15.2686C18.1434 14.5719 17.3264 14.6796 16.9903 14.6796H6.77624L7.38904 13.0327C7.90963 13.1214 11.4747 13.0707 12.2984 13.0707C13.9459 13.0707 15.5933 13.0644 17.2407 13.0707C18.2555 13.0771 18.1435 12.6717 18.4268 11.8609C18.6377 11.2465 18.8486 10.6448 19.0331 10.0431C19.4087 8.82062 19.8568 7.64882 20.2456 6.42002C20.4301 5.83729 20.6278 5.21656 20.8387 4.63383C21.1352 3.81674 21.1088 3.34169 20.015 3.34803H5.14852C4.96401 3.23401 4.74656 2.38526 4.66748 2.1509C4.46979 1.59984 4.46979 1.37181 3.92284 1.17546C3.09254 0.871425 2.2623 0.554723 1.43199 0.231688C0.964121 0.0543355 0.588498 -0.180021 0.186525 0.219022C-0.103422 0.510387 -0.0902816 1.03611 0.476434 1.27047L2.99375 2.2269C3.36277 2.35992 3.2771 2.29658 3.40231 2.65762L6.77624 12.013ZM6.07769 6.07799L9.68225 6.09066V4.65283H5.57687L6.07769 6.07799ZM15.4944 6.08432L18.9342 6.09699L19.4021 4.65283H15.4944V6.08432ZM11.0398 9.05498L11.1913 9.06764H14.1369V7.4018H11.0398V9.05498ZM7.15842 9.06131L9.68225 9.06764V7.4018H6.56532L7.15842 9.06131ZM15.4944 9.05498L17.9392 9.06764L18.4862 7.4018H15.4944V9.05498ZM11.0398 6.08432L11.1913 6.09699L14.1106 6.09066L14.1369 4.65283H11.0398V6.08432ZM11.0398 11.7596L14.1238 11.7659L14.1303 10.3724H11.0464L11.0398 11.7596ZM8.14028 11.7659H9.67573L9.68225 10.3724H7.63945C7.69217 10.6765 8.02166 11.4492 8.14028 11.7659ZM15.4944 11.7596L17.0298 11.7659C17.1155 11.5189 17.4648 10.5815 17.4779 10.3724H15.501L15.4944 11.7596ZM7.75151 16.2314C6.6049 16.5291 7.07275 18.1886 8.23254 17.8846C9.31985 17.5996 8.90471 15.9274 7.75151 16.2314ZM15.1386 16.2504C13.9129 16.6685 14.6509 18.233 15.6921 17.8656C16.0611 17.7326 16.4104 17.3145 16.2523 16.8141C16.1271 16.4341 15.6723 16.0667 15.1386 16.2504Z" fill="white"/>
</svg>
