<svg width="32" height="30" viewBox="0 0 32 30" fill="none" xmlns="http://www.w3.org/2000/svg">
<path fill-rule="evenodd" clip-rule="evenodd" d="M10.2831 18.9658C9.72305 19.2258 9.72307 19.6358 9.42307 20.4558C9.20307 21.0458 9.00306 21.6258 8.78306 22.2258C8.40306 23.2558 7.78303 24.3158 8.63303 24.7858C8.93303 24.9458 9.38305 24.8958 9.77305 24.8958C9.48305 25.4058 9.20298 25.6858 9.08298 26.4258C8.78298 28.2158 10.1331 30.0158 12.1531 29.9958C14.0931 29.9758 15.4431 28.2458 15.1531 26.4358C15.0331 25.6858 14.743 25.3858 14.463 24.9158L21.013 24.8958C20.923 25.1058 20.723 25.3358 20.593 25.6058C20.453 25.8858 20.373 26.1358 20.323 26.4658C19.783 29.8958 24.583 31.4258 26.123 28.2958C26.933 26.6458 26.053 25.6258 25.713 24.8958C26.523 24.8958 27.393 24.9758 27.453 24.1058C27.533 23.0058 26.2931 23.1758 25.7831 23.1758H10.2831L11.213 20.5758C12.003 20.7158 17.4131 20.6358 18.6631 20.6358C21.1631 20.6358 23.6631 20.6258 26.1631 20.6358C27.7031 20.6458 27.533 20.0058 27.963 18.7258C28.283 17.7558 28.603 16.8058 28.883 15.8558C29.453 13.9258 30.133 12.0758 30.723 10.1358C31.003 9.21578 31.303 8.23578 31.623 7.31578C32.073 6.02578 32.033 5.27579 30.373 5.28579H7.81296C7.53296 5.10579 7.20298 3.76579 7.08298 3.39579C6.78298 2.52579 6.78298 2.16579 5.95298 1.85579C4.69298 1.37579 3.43307 0.875784 2.17307 0.365784C1.46307 0.0857837 0.893055 -0.284213 0.283055 0.345787C-0.156945 0.805787 -0.137004 1.63579 0.722996 2.00579L4.54306 3.51579C5.10306 3.72579 4.97306 3.62579 5.16306 4.19579L10.2831 18.9658ZM9.223 9.59578L14.693 9.61579V7.34578H8.46299L9.223 9.59578ZM23.513 9.60579L28.733 9.62578L29.443 7.34578H23.513V9.60579ZM16.753 14.2958L16.983 14.3158H21.453V11.6858H16.753V14.2958ZM10.863 14.3058L14.693 14.3158V11.6858H9.96299L10.863 14.3058ZM23.513 14.2958L27.223 14.3158L28.0531 11.6858H23.513V14.2958ZM16.753 9.60579L16.983 9.62578L21.4131 9.61579L21.453 7.34578H16.753V9.60579ZM16.753 18.5658L21.4331 18.5758L21.443 16.3758H16.763L16.753 18.5658ZM12.353 18.5758H14.6831L14.693 16.3758H11.593C11.673 16.8558 12.173 18.0758 12.353 18.5758ZM23.513 18.5658L25.843 18.5758C25.973 18.1858 26.503 16.7058 26.523 16.3758H23.523L23.513 18.5658ZM11.763 25.6258C10.023 26.0958 10.733 28.7158 12.493 28.2358C14.143 27.7858 13.513 25.1458 11.763 25.6258ZM22.973 25.6558C21.113 26.3158 22.233 28.7858 23.813 28.2058C24.373 27.9958 24.9031 27.3358 24.6631 26.5458C24.4731 25.9458 23.783 25.3658 22.973 25.6558Z" fill="#464646"/>
</svg>
