<svg width="24" height="18" viewBox="0 0 24 18" fill="none" xmlns="http://www.w3.org/2000/svg">
<path d="M23.671 3.69231C23.671 3.23077 23.671 2.76923 23.2042 2.30769L21.3368 0.461538C20.87 0 20.87 0 20.4031 0C19.9363 0 19.4694 0 19.4694 0.461538L9.19888 10.1538L4.99729 6C4.53045 5.53846 4.06361 5.53846 4.06361 5.53846C3.59676 5.53846 3.12992 5.53846 2.66307 6L0.795701 7.84615C0.328857 8.30769 0.328857 8.30769 0.328857 8.76923C0.328857 9.23077 0.328857 9.69231 0.795701 9.69231L6.39782 15.2308L8.2652 17.5385C8.73204 17.5385 8.73204 18 9.19888 18C9.66573 18 10.1326 17.5385 10.1326 17.5385L12.4668 15.2308L23.2042 4.61538C23.671 4.15385 23.671 3.69231 23.671 3.69231Z" fill="#EB653B"/>
</svg>
