<svg width="16" height="22" viewBox="0 0 16 22" fill="none" xmlns="http://www.w3.org/2000/svg">
<path fill-rule="evenodd" clip-rule="evenodd" d="M7.74317 22H8.15016C8.55716 21.5926 8.55716 21.5926 8.96415 21.1852C10.9991 19.5556 13.0341 16.7037 14.2551 14.2593C16.2901 10.5926 16.6971 6.92593 14.6621 3.25926C13.8481 2.03704 12.1627 0.814815 10.5921 0.407407C9.72071 0 8.55716 0 8.55716 0H7.8006C7.33616 0 5.30119 0 3.6732 1.22222C0.766794 3.25926 -0.803755 6.92593 0.417234 10.5926C1.23123 13.8519 3.26621 17.1111 5.30119 19.5556L6.11518 20.3704C6.52218 20.7778 6.52218 20.7778 6.92917 21.1852C7.33617 21.5926 7.33617 21.5926 7.74317 22ZM8.15016 19.1481C8.15016 19.1481 9.37115 17.5185 9.77815 17.1111C10.9991 15.4815 13.3837 12.6296 13.7907 10.1852C14.1962 7.74952 13.8481 6.11111 13.0341 4.48148C10.9991 1.22222 5.30119 1.22222 3.26621 4.48148C2.04522 6.11111 2.04522 8.14815 2.45221 10.1852C2.85921 12.2222 4.89419 15.0741 4.89419 15.0741C4.89419 15.0741 6.05775 17.1111 6.46474 17.5185L7.74317 18.7407C7.74317 18.7407 8.09273 19.1481 8.15016 19.1481ZM7.74317 3.66667C5.30119 4.07407 3.6732 6.11111 4.0802 8.55555C4.0802 10.5926 6.11518 12.2222 8.55716 12.2222C10.5921 11.8148 12.2201 9.77778 12.2201 7.33333C11.8131 5.2963 9.77815 3.66667 7.74317 3.66667ZM7.33617 5.2963C6.11518 5.7037 5.30119 6.92593 5.30119 8.55555C5.70818 9.77778 6.92917 10.5926 8.55716 10.5926C9.77815 10.1852 10.5921 8.96296 10.5921 7.33333C10.1851 6.11111 8.96416 5.2963 7.33617 5.2963Z" fill="white"/>
</svg>
