<svg width="12" height="21" viewBox="0 0 12 21" fill="none" xmlns="http://www.w3.org/2000/svg">
<path fill-rule="evenodd" clip-rule="evenodd" d="M2.73364 16.7477C3.23066 17.4933 3.9762 17.7418 4.72173 17.7418C5.96429 17.7418 6.95835 16.9963 7.20686 16.0022C7.20686 15.5052 7.20686 15.2567 7.45537 14.7596L7.95236 11.7775C7.95236 11.2805 8.69791 6.5588 8.69791 6.31029C8.69791 6.06178 8.69791 5.81325 8.4494 5.81325L8.20088 5.56474C7.95237 5.56474 7.95236 5.56474 7.95236 5.56474C7.45534 5.81325 7.45537 6.06178 7.45537 6.31029L5.96427 14.2626C5.96427 14.5112 5.96427 14.7596 5.96427 14.7596C5.96427 15.0081 5.96427 15.2567 5.71575 15.5052C5.46724 16.0022 5.21875 16.2507 4.47322 16.2507C3.97619 16.2507 3.72766 15.5052 3.72766 15.0082C3.72766 14.7596 3.72766 14.7596 3.72766 14.7596C3.72766 14.5111 3.72766 14.2626 3.72766 14.0141C3.72766 13.7656 4.72173 8.79536 4.72173 8.79536C4.72173 8.04983 5.46728 3.57664 5.46728 3.32813C5.46728 3.07962 5.46728 3.07961 5.46728 3.07961C5.7158 2.8311 5.71575 2.83109 5.71575 2.58258C6.21278 1.58853 7.20683 1.34004 8.20088 1.58855C9.44344 1.83707 9.94049 3.07963 9.69198 4.07368V4.32215C9.19496 7.80131 8.44938 11.2805 7.95236 14.7596C7.95236 15.2567 7.95236 15.5052 7.70384 16.0022V16.2507C7.70384 16.2507 7.70384 16.2507 7.70384 16.4993C7.70384 16.9963 7.45537 17.4933 7.20686 17.9903C6.95835 18.4873 6.21282 19.2329 5.46728 19.4814C5.21877 19.4814 4.97024 19.4814 4.47322 19.4814H3.97618C3.72767 19.4814 3.23067 19.2328 2.98216 19.2328C1.98811 18.7358 1.49106 17.7418 1.49106 16.4993C1.49106 16.2507 1.49106 15.5052 1.49106 15.0082C1.73957 14.7596 1.98809 12.5231 1.98809 12.2746C1.98809 12.026 1.98809 12.026 1.98809 11.7775L2.98216 6.06177C2.98216 5.81326 2.98216 5.56473 2.98216 5.31622C2.73365 5.06771 2.2366 5.06771 1.98809 5.31622C1.73958 5.31622 1.73957 5.81326 1.73957 6.06177L0.248517 15.2567C5.69353e-06 16.2507 0 16.4992 0 17.2448C0 17.4933 0.248517 17.7418 0.248517 17.9903C0.497029 18.9844 1.49107 19.9784 2.23661 20.2269C2.48512 20.4754 2.73365 20.4754 2.98216 20.724C3.47918 20.724 3.72767 20.724 3.97618 20.724C4.22469 20.9725 4.47322 20.9724 4.72173 20.9724L5.46728 20.724C5.96431 20.724 6.70983 20.4754 6.95834 20.2269C7.70387 19.7299 7.95237 19.4814 8.20088 18.9843C8.44939 18.9843 8.4494 18.7359 8.4494 18.7359C8.94642 17.9903 8.94644 17.4933 9.19495 16.7477L10.686 6.31029C10.9345 5.81326 11.183 3.82515 11.183 3.32813C11.183 2.8311 11.183 2.08558 10.686 1.58855C10.4375 1.09153 10.189 0.842997 9.69198 0.594486C9.69198 0.594486 9.69198 0.594486 9.44346 0.594486C8.69793 0.0974626 7.95239 -0.151013 6.95834 0.0974986C6.46132 0.0974986 5.96431 0.345974 5.46728 0.594486C5.21877 0.842997 4.72173 1.09153 4.72173 1.58855C4.47322 1.83707 4.2247 2.33406 4.2247 2.58258C3.72767 5.81323 3.23066 9.29243 2.73364 12.5231C2.48513 13.0201 2.23661 14.5111 2.23661 15.0082C2.23661 15.5052 2.23662 16.2507 2.73364 16.7477Z" fill="#727271"/>
</svg>
