<svg width="46" height="46" viewBox="0 0 46 46" fill="none" xmlns="http://www.w3.org/2000/svg">
<path fill-rule="evenodd" clip-rule="evenodd" d="M0.507812 22.1399V24.3899C0.507812 28.9399 2.5678 33.51 5.1478 36.97C5.3678 37.28 5.51779 37.4199 5.73779 37.6999L8.41782 40.3899C10.4678 41.9699 10.7178 42.24 13.2778 43.53C15.2978 44.54 18.8878 45.6599 21.8678 45.6599H23.9378C28.2378 45.6599 32.5578 43.8501 35.8478 41.5701L39.3878 38.4397C42.7878 34.7597 45.2878 29.42 45.2878 24.3V22.2297C45.2878 17.5797 42.7678 11.4897 39.4778 8.18969C38.8978 7.60969 38.3278 6.86993 37.4478 6.17993C34.6678 4.02993 32.2778 2.49008 28.6778 1.59008C23.5478 0.300084 17.9278 0.670006 13.2778 3.01001C10.1878 4.56001 7.2578 6.70975 5.18781 9.49975C2.64781 12.9198 0.507812 17.4699 0.507812 22.1399Z" fill="#FF9999"/>
<path fill-rule="evenodd" clip-rule="evenodd" d="M17.1178 11.3892C13.8978 11.8092 11.1778 14.1091 10.8078 17.2691C10.6078 18.9691 10.7478 21.4891 10.7478 23.2691C10.7478 25.1991 10.6378 27.489 10.7778 29.379C10.9978 32.559 13.7478 35.0393 16.7878 35.4893C18.4478 35.7393 20.9778 35.6192 22.7178 35.6192C24.5178 35.6192 27.0878 35.7491 28.7978 35.5391C31.9378 35.1491 34.5878 32.7292 34.9878 29.6192C35.1978 27.9592 35.0478 25.3892 35.0478 23.6392C35.0478 19.3192 35.7678 16.2091 33.0578 13.4791C30.3278 10.7291 26.9678 11.3094 23.0878 11.3194C21.3278 11.3194 18.7778 11.1792 17.1178 11.3892Z" fill="#FEFDFE"/>
<path fill-rule="evenodd" clip-rule="evenodd" d="M17.6274 13.1488C14.7774 13.3688 12.5974 15.3291 12.5774 18.4691C12.5674 21.8891 12.5174 25.3992 12.5874 28.8192C12.6174 30.5092 13.3474 31.4992 14.1974 32.3392C14.9774 33.1192 16.3474 33.7189 17.9074 33.7689C19.4174 33.8189 27.0274 33.8589 28.2174 33.7689C31.0574 33.5489 33.2874 31.4288 33.2474 28.4388C33.1974 24.9888 33.3074 21.5292 33.2374 18.0892C33.2274 17.3092 33.0874 16.6491 32.7674 16.0291C31.8774 14.3291 30.0674 13.189 27.8674 13.139C26.1474 13.099 18.9974 13.0488 17.6274 13.1488Z" fill="#FF9999"/>
<path fill-rule="evenodd" clip-rule="evenodd" d="M21.7972 17.4993C19.0572 18.0493 16.5473 20.7092 17.3473 24.2092C17.9673 26.9192 20.6372 29.2095 24.1072 28.5095C26.8072 27.9695 29.1773 25.3094 28.5073 21.8894C27.9673 19.1594 25.1672 16.8193 21.7972 17.4993Z" fill="#FEFDFE"/>
<path fill-rule="evenodd" clip-rule="evenodd" d="M22.148 19.2793C17.028 20.3793 18.7781 27.799 23.7281 26.729C25.5381 26.339 27.228 24.559 26.738 22.249C26.348 20.409 24.518 18.7593 22.148 19.2793Z" fill="#FF9999"/>
<path fill-rule="evenodd" clip-rule="evenodd" d="M29.0274 15.709C27.3974 16.169 28.0574 18.4989 29.5974 18.1089C31.0774 17.7389 30.5574 15.269 29.0274 15.709Z" fill="#FEFDFE"/>
</svg>
