<svg width="28" height="24" viewBox="0 0 28 24" fill="none" xmlns="http://www.w3.org/2000/svg">
<path d="M13.64 3.18C14.24 2.36 14.89 1.69 15.65 1.18C16.81 0.39 18.1701 0 19.9601 0C21.9501 0 23.7501 0.690001 25.0701 1.81C26.4401 2.96 27.28 4.57 27.28 6.35C27.28 9.31 25.6001 12.19 23.0801 15.04C20.6501 17.78 17.47 20.47 14.29 23.17C13.9 23.49 13.3501 23.48 12.9801 23.16C9.8001 20.47 6.62007 17.77 4.20007 15.04C1.68007 12.19 0 9.31 0 6.35C0 4.57 0.840083 2.96 2.21008 1.81C3.52008 0.690001 5.33007 0 7.32007 0C9.11007 0 10.47 0.39 11.63 1.18C12.39 1.69 13.04 2.36 13.64 3.18ZM16.77 2.84C15.93 3.4 15.22 4.3 14.51 5.52C14.43 5.66 14.3 5.79 14.15 5.88C13.67 6.16 13.06 6 12.78 5.53C12.06 4.31 11.36 3.41 10.51 2.84C9.70001 2.28 8.69007 2.01 7.32007 2.01C5.82007 2.01 4.47 2.52 3.5 3.34C2.58 4.12 2.01001 5.19 2.01001 6.35C2.01001 8.75 3.48007 11.21 5.70007 13.71C7.85007 16.15 10.72 18.62 13.64 21.09C16.56 18.62 19.4201 16.15 21.5801 13.71C23.8001 11.21 25.27 8.75 25.27 6.35C25.27 5.19 24.7 4.12 23.78 3.34C22.81 2.52 21.4601 2.01 19.9601 2.01C18.5901 2.01 17.58 2.28 16.77 2.84Z" fill="#464646"/>
</svg>
