<svg width="28" height="24" viewBox="0 0 28 24" fill="none" xmlns="http://www.w3.org/2000/svg">
<path d="M13.64 3.17993C14.24 2.35993 14.89 1.68993 15.65 1.17993C16.81 0.389932 18.17 0 19.96 0C21.95 0 23.76 0.689937 25.08 1.80994C26.44 2.95994 27.29 4.56998 27.29 6.34998C27.29 9.30998 25.6 12.19 23.08 15.04C20.66 17.78 17.47 20.47 14.29 23.17C13.91 23.49 13.35 23.48 12.98 23.16C9.81004 20.47 6.63002 17.77 4.21002 15.04C1.68002 12.19 0 9.30998 0 6.34998C0 4.56998 0.850022 2.95994 2.21002 1.80994C3.53002 0.689937 5.34001 0 7.32001 0C9.11001 0 10.48 0.389932 11.64 1.17993C12.4 1.68993 13.04 2.35993 13.64 3.17993Z" fill="#EB653B"/>
</svg>
