<svg width="358" height="86" viewBox="0 0 358 86" fill="none" xmlns="http://www.w3.org/2000/svg">
<path d="M26.9082 83.7188H37.331C34.5816 85.3559 32.1196 85.0935 32.1196 85.0935C32.1196 85.0935 29.6701 85.3559 26.9082 83.7188Z" fill="#EB653B"/>
<path d="M39.6556 81.8697H24.5837C24.1588 81.4198 23.7339 80.9074 23.334 80.3325H40.9178C40.5054 80.9074 40.093 81.4198 39.6556 81.8697Z" fill="#EB653B"/>
<path d="M42.0551 78.4581H22.1967C21.9468 77.9832 21.7093 77.4708 21.4844 76.9209H42.7549C42.5425 77.4708 42.305 77.9832 42.0551 78.4581Z" fill="#EB653B"/>
<path d="M43.2804 75.0711H20.9601C20.8851 74.5587 20.8726 74.0463 20.9101 73.5464H43.3304C43.3679 74.0463 43.3554 74.5587 43.2804 75.0711Z" fill="#EB653B"/>
<path d="M42.9792 71.6604H21.2588C21.3713 71.1855 21.4962 70.6731 21.6337 70.1357H42.6168C42.7543 70.6731 42.8668 71.1855 42.9792 71.6604Z" fill="#EB653B"/>
<path d="M42.1548 68.2862H22.084C22.2215 67.7738 22.3464 67.2614 22.4839 66.749H41.7549C41.8923 67.2614 42.0298 67.7738 42.1548 68.2862Z" fill="#EB653B"/>
<path d="M41.2434 64.8736H23.0098C23.1597 64.3487 23.3097 63.8238 23.4722 63.3364H40.781C40.931 63.8238 41.0935 64.3487 41.2434 64.8736Z" fill="#EB653B"/>
<path d="M40.1558 61.4871H24.0967C24.3216 60.8747 24.5341 60.3623 24.7466 59.9624H39.506C39.7059 60.3623 39.9309 60.8747 40.1558 61.4871Z" fill="#EB653B"/>
<path d="M39.8047 58.0755H24.4455C24.383 57.6255 24.3205 57.1132 24.2705 56.5508H39.9797C39.9297 57.1132 39.8672 57.6255 39.8047 58.0755Z" fill="#EB653B"/>
<path d="M46.5913 54.6883H17.6598C16.96 54.4383 16.3226 54.1009 15.7977 53.651C15.7103 53.576 15.6353 53.501 15.5478 53.426C15.4728 53.376 15.3603 53.2761 15.2354 53.1636H49.0033C48.8783 53.2761 48.7783 53.376 48.7033 53.426C48.6159 53.501 48.5284 53.576 48.4534 53.651C47.916 54.1009 47.2786 54.4383 46.5913 54.6883Z" fill="#EB653B"/>
<path d="M50.2785 51.2896H13.9736C13.7862 50.9147 13.5112 50.4023 13.1113 49.7524H51.1409C50.7409 50.4023 50.466 50.9147 50.2785 51.2896Z" fill="#EB653B"/>
<path d="M52.4283 47.9021H42.0429C42.0804 47.8646 42.1054 47.8396 42.1054 47.8396C42.5178 47.3397 43.5551 46.7149 43.5551 46.7149C43.7551 46.5899 43.9675 46.4774 44.205 46.3774H53.1031C52.9532 47.0523 52.5407 47.7396 52.4283 47.9021ZM40.0434 47.9021H24.0717C24.0467 47.4772 23.9467 47.1273 23.9467 47.1273C23.8592 46.8648 23.7593 46.6149 23.6343 46.3774H40.9932C40.5683 46.7649 40.2683 47.0023 40.2683 47.0023C40.0059 47.2273 39.9934 47.5897 40.0434 47.9021ZM22.2096 47.9021H11.8118C11.7118 47.7396 11.2869 47.0523 11.1494 46.3774H20.0475C20.2725 46.4774 20.4975 46.5899 20.6849 46.7149C20.6849 46.7149 21.7347 47.3397 22.1346 47.8396C22.1346 47.8396 22.1721 47.8646 22.2096 47.9021Z" fill="#EB653B"/>
<path d="M42.7052 44.4905H32.8072C32.8947 44.4655 32.9447 44.453 32.9447 44.453C33.6071 43.8531 34.2069 43.3532 34.7193 42.9658H43.58C43.5175 43.0658 43.4675 43.1783 43.4175 43.2908C43.2301 43.6907 42.9801 44.1031 42.7052 44.4905ZM31.1451 44.4905H22.3844C21.8595 43.8906 21.2721 43.3907 20.6973 42.9658H28.7456C29.9453 43.8781 31.0076 44.453 31.0076 44.453C31.0451 44.4655 31.0951 44.478 31.1451 44.4905Z" fill="#EB653B"/>
<path d="M45.6798 41.1038H37.6939C38.3688 40.5289 38.4938 39.7916 38.4938 39.7916C38.5188 39.7166 38.5312 39.6541 38.5562 39.5791H48.1292C47.1544 40.129 46.3296 40.6539 45.6798 41.1038ZM26.7587 41.1038H17.1982C16.2984 40.6789 15.3361 40.1415 14.3613 39.5791H25.8589C25.9089 39.8166 25.9464 39.9415 25.9464 39.9415C26.1588 40.3414 26.4463 40.7414 26.7587 41.1038Z" fill="#EB653B"/>
<path d="M51.9531 37.7042H46.3793C47.2041 37.2293 47.9289 36.7169 48.5788 36.167H56.1022C55.9898 36.217 55.9273 36.242 55.9273 36.242C54.4651 36.6919 53.1403 37.1918 51.9531 37.7042ZM40.7929 37.7042H38.9933C39.0808 37.1668 39.1433 36.6544 39.1808 36.167H40.8804C40.8679 36.7669 40.8304 37.3043 40.7929 37.7042ZM25.5336 37.7042H23.6465C23.6965 37.1543 23.759 36.6419 23.859 36.167H25.4337C25.4461 36.7294 25.4836 37.2418 25.5336 37.7042ZM17.8477 37.7042H11.2616C10.4368 37.1793 9.63696 36.6544 8.91211 36.167H16.5355C16.9854 36.2795 17.2854 36.2045 17.2854 36.2045C17.0229 37.2543 17.6728 37.5167 17.6728 37.5167C17.7353 37.5792 17.7852 37.6417 17.8477 37.7042Z" fill="#EB653B"/>
<path d="M59.7518 34.3177H50.4038C50.8037 33.8178 51.1661 33.3054 51.466 32.793H60.5141C60.4516 33.3179 60.4392 33.6303 60.4392 33.6303C60.3017 33.8552 60.0517 34.0927 59.7518 34.3177ZM40.8557 34.3177H39.2311C39.2061 33.7678 39.1686 33.2554 39.0936 32.793H40.6808C40.7683 33.2929 40.8182 33.8053 40.8557 34.3177ZM25.459 34.3177H24.3342C24.5342 33.7303 24.7466 33.2179 24.9591 32.793H25.6214C25.5464 33.3179 25.484 33.8303 25.459 34.3177ZM14.4113 34.3177H6.17551C5.40067 33.7678 4.92577 33.4303 4.92577 33.4303C4.60084 33.2429 4.28842 33.0179 4.00098 32.793H9.79974C10.5496 33.3429 11.1245 33.6553 11.1245 33.6553C11.162 33.3554 11.1745 33.0679 11.187 32.793H13.7114C13.9364 33.3928 14.1613 33.9052 14.4113 34.3177Z" fill="#EB653B"/>
<path d="M60.8644 30.906H56.4278C56.9152 30.4936 57.4151 29.9937 57.8401 29.3813H61.2893C61.1144 29.9187 60.9769 30.4311 60.8644 30.906ZM54.7782 30.906H52.4162C52.6287 30.3811 52.8036 29.8687 52.9411 29.3813H55.1156C54.9782 29.9562 54.8657 30.4811 54.7782 30.906ZM40.1438 30.906H38.6941C38.5066 30.2437 38.2942 29.7313 38.1317 29.3813H39.0315C39.5189 29.7563 39.8813 30.2937 40.1438 30.906ZM13.4494 30.906H11.0999C11.0249 30.2937 10.8999 29.7813 10.7749 29.3813H13.5618C13.4744 29.8937 13.4494 30.4311 13.4494 30.906ZM7.76307 30.906H2.13925C1.71434 30.3811 1.36439 29.8562 1.06445 29.3813H6.81326C7.03821 29.9312 7.37565 30.4436 7.76307 30.906Z" fill="#EB653B"/>
<path d="M62.0011 27.5313H58.7018V27.5188C58.7018 27.5188 58.8018 26.894 58.8768 25.9941H62.7759C62.4885 26.5065 62.226 27.0189 62.0011 27.5313ZM55.5774 27.5313H53.3529C53.4529 26.9564 53.5029 26.444 53.5279 25.9941H56.0148C55.8524 26.5065 55.7024 27.0189 55.5774 27.5313ZM13.8986 27.5313H12.3865C12.5364 26.9439 12.6739 26.444 12.8239 25.9941H13.9736C13.9236 26.5815 13.9111 27.1189 13.8986 27.5313ZM12.1115 27.5313H9.91198C9.62454 27.0064 9.38709 26.494 9.17464 25.9941H11.2117C11.5741 26.7565 11.9116 27.2564 12.1115 27.5313ZM6.46273 27.5313H0.189015C0.0515442 27.0314 -0.0109351 26.5065 0.00156232 25.9941H2.76351C2.95097 26.4191 3.27588 26.8315 3.75078 27.1689C3.75078 27.1689 3.7758 26.6815 3.73831 25.9941H6.1128C6.27527 26.6565 6.40024 27.2064 6.46273 27.5313Z" fill="#EB653B"/>
<path d="M63.2758 24.1202H58.9267C58.9142 23.6078 58.8768 23.0829 58.8018 22.583H63.4258C63.3633 23.1704 63.3133 23.6953 63.2758 24.1202ZM56.6647 24.1202H53.5154C53.4654 23.5703 53.4404 23.0579 53.4404 22.583H55.7024C55.7149 22.683 55.7274 22.7455 55.7274 22.7455C55.7399 22.6955 55.7524 22.6455 55.7649 22.583H57.3771C57.1271 23.0329 56.8896 23.5578 56.6647 24.1202ZM14.2236 24.1202H13.5487C14.1986 22.783 14.6735 22.733 14.6735 22.733C14.4736 23.1079 14.3236 23.5953 14.2236 24.1202ZM10.4744 24.1202H8.4873C8.32483 23.5703 8.18738 23.0579 8.0749 22.583H10.037C10.1744 23.1454 10.3119 23.6578 10.4744 24.1202ZM5.57542 24.1202H3.46336C3.33839 23.5828 3.1509 23.0579 2.88845 22.6205C2.88845 22.6205 2.58855 23.2579 2.48857 24.1202H0.101562C0.139055 23.5578 0.201548 23.0454 0.264035 22.583H5.02553C5.22549 23.0829 5.41296 23.6078 5.57542 24.1202Z" fill="#EB653B"/>
<path d="M63.688 20.7332H61.2135C61.301 20.2708 61.3634 19.7584 61.4009 19.2085H63.9879C63.8754 19.7209 63.7755 20.2333 63.688 20.7332ZM60.3012 20.7332H56.377C56.6894 19.9084 56.9894 19.2585 56.9894 19.2585C57.0019 19.2335 57.0144 19.221 57.0269 19.2085H59.9012C60.1137 19.7334 60.2262 20.2958 60.3012 20.7332ZM55.2522 20.7332H53.4901C53.5401 20.1333 53.6151 19.6334 53.6901 19.2085H54.7773C54.9523 19.7084 55.1148 20.2458 55.2522 20.7332ZM9.67429 20.7332H7.73718C7.64969 20.0458 7.63721 19.6459 7.63721 19.6459C7.63721 19.4959 7.63721 19.346 7.63721 19.2085H9.4868C9.53679 19.7459 9.59931 20.2458 9.67429 20.7332ZM4.58785 20.7332H0.638672C0.826133 20.0333 1.03859 19.5459 1.22605 19.2085H4.56283C4.55033 19.7959 4.57535 20.3208 4.58785 20.7332Z" fill="#EB653B"/>
<path d="M64.513 17.3216H61.5012C61.5137 16.8217 61.5136 16.3093 61.5136 15.7969H65.1379C64.9004 16.2718 64.7005 16.7842 64.513 17.3216ZM59.939 17.3216H57.6645C57.627 16.8092 57.4645 16.4592 57.4645 16.4592C57.327 16.2343 57.1896 16.0093 57.0646 15.7969H60.089C60.064 16.3843 60.0015 16.8966 59.939 17.3216ZM9.36209 17.3216H7.67494C7.68744 16.7842 7.72491 16.2718 7.7749 15.7969H9.33707C9.33707 16.3218 9.3371 16.8342 9.36209 17.3216ZM4.63808 17.3216H1.82617C1.82617 16.7592 1.83864 16.2468 1.83864 15.7969H4.82554C4.73805 16.3218 4.68807 16.8342 4.63808 17.3216Z" fill="#EB653B"/>
<path d="M65.9378 13.9348H61.4762C61.4637 13.4099 61.4387 12.8976 61.4137 12.4102H62.8509C62.8384 12.7726 62.8259 13.06 62.8134 13.2225C62.8134 13.335 62.8884 13.4349 63.0009 13.4599C63.0758 13.4724 63.1508 13.4849 63.2258 13.4724C63.3883 13.4599 63.5382 13.3475 63.5757 13.185C63.6382 12.935 63.7007 12.6726 63.7382 12.4102H66.0002C65.9877 13.0475 65.9628 13.5724 65.9378 13.9348ZM60.0265 13.9348H56.0648C55.8024 13.3975 55.5649 12.8851 55.365 12.4102H57.7895C58.1644 13.2475 58.3143 13.8099 58.3143 13.8099C58.6143 13.4349 58.8018 12.9225 58.9142 12.4102H59.7766C59.9015 12.935 59.9765 13.4474 60.0265 13.9348ZM9.41208 13.9348H8.01238C8.11236 13.3725 8.23733 12.8726 8.36231 12.4102H9.66205C9.52457 13.06 9.44957 13.6099 9.41208 13.9348ZM5.16298 13.9348H1.88867C1.92616 12.96 1.97616 12.5351 1.97616 12.5351C1.97616 12.4851 1.98863 12.4476 1.98863 12.4102H4.40066C4.41316 12.5601 4.42564 12.6351 4.42564 12.6351C4.46313 12.5601 4.50062 12.4851 4.53811 12.4102H5.57541C5.41295 12.935 5.27546 13.4349 5.16298 13.9348Z" fill="#EB653B"/>
<path d="M65.987 10.5352H63.9374C63.9624 10.0228 63.9499 9.51044 63.9374 8.99805H65.8995C65.937 9.52294 65.9745 10.0478 65.987 10.5352ZM62.8252 10.5352H61.3005C61.238 9.66041 61.188 9.12302 61.188 9.12302C61.188 9.08553 61.2005 9.03554 61.2005 8.99805H62.7127C62.7752 9.52294 62.8127 10.0478 62.8252 10.5352ZM59.2009 10.5352H59.101C59.101 10.3728 59.0885 10.2728 59.0885 10.2728C59.1259 10.3603 59.1634 10.4477 59.2009 10.5352ZM56.7265 10.5352H54.6519C54.4519 9.93535 54.3145 9.42296 54.2145 8.99805H55.5392C56.0016 9.51044 56.4015 10.0353 56.7265 10.5352ZM10.1737 10.5352H9.07394C9.44886 9.79788 9.84878 9.31048 10.2112 8.99805H10.8861C10.5986 9.47295 10.3612 9.99784 10.1737 10.5352ZM6.23705 10.5352H5.52469C5.9496 9.81038 6.27452 9.32298 6.52447 8.99805H6.94937C6.68693 9.51044 6.44951 10.0228 6.23705 10.5352ZM4.29993 10.5352H2.21289C2.30037 9.98534 2.38786 9.47295 2.48783 8.99805H4.34993C4.31244 9.54793 4.29993 10.0728 4.29993 10.5352Z" fill="#EB653B"/>
<path d="M65.7125 7.14822H63.7878C63.7254 6.62333 63.6379 6.11093 63.5629 5.62354H65.4375C65.55 6.12343 65.6375 6.63582 65.7125 7.14822ZM62.4256 7.14822H61.2384C61.1884 6.58584 61.0759 6.06094 60.951 5.62354H61.9507C62.1507 6.08594 62.3007 6.61083 62.4256 7.14822ZM4.57525 7.14822H2.97559C3.15055 6.57334 3.33803 6.07344 3.53798 5.62354H4.92517C4.77521 6.12343 4.66273 6.63582 4.57525 7.14822Z" fill="#EB653B"/>
<path d="M64.9257 3.73708H63.176C63.0511 3.1872 62.9261 2.66231 62.8011 2.2124H64.2508C64.5132 2.67481 64.7257 3.1997 64.9257 3.73708ZM60.3891 3.73708H60.1642C60.1142 3.6621 60.0892 3.62461 60.0892 3.62461C60.1892 3.6621 60.2891 3.69959 60.3891 3.73708ZM5.68808 3.73708H4.61328C5.23815 2.88726 5.85053 2.44985 6.30044 2.2124H6.76283C6.33792 2.67481 5.98801 3.1872 5.68808 3.73708Z" fill="#EB653B"/>
<path d="M62.7008 0.34993H62.2509C62.1759 0.124977 62.126 0 62.126 0C62.3259 0.0999791 62.5259 0.224956 62.7008 0.34993Z" fill="#EB653B"/>
<path d="M105.425 37.1064C105.425 46.1876 98.8293 53.5748 89.5397 53.5748H76.876V20.6519H89.5397C98.8293 20.6519 105.425 28.0252 105.425 37.1064ZM102.926 37.1064C102.926 29.3026 97.4823 22.9985 89.5397 22.9985H79.4309V51.2143H89.5397C97.4823 51.2143 102.926 44.924 102.926 37.1064Z" fill="#464646"/>
<path d="M137.737 41.9102C137.737 42.2852 137.681 42.6601 137.681 43.035H115.88C116.45 48.3532 120.588 51.8246 126.086 51.8246C130.03 51.8246 133.015 50.0473 134.418 47.5478L136.529 48.7698C134.557 51.9774 130.808 54.088 126.031 54.088C118.616 54.088 113.367 48.9086 113.367 41.813C113.367 34.898 118.477 29.5381 125.837 29.5381C133.154 29.5381 137.737 35.4673 137.737 41.9102ZM115.88 40.73H135.237C134.696 34.9952 130.558 31.8015 125.837 31.8015C120.352 31.8015 116.353 35.5089 115.88 40.73Z" fill="#464646"/>
<path d="M169.701 41.9102C169.701 42.2852 169.66 42.6601 169.66 43.035H147.845C148.428 48.3532 152.566 51.8246 158.051 51.8246C161.995 51.8246 164.98 50.0473 166.383 47.5478L168.493 48.7698C166.521 51.9774 162.772 54.088 158.009 54.088C150.594 54.088 145.346 48.9086 145.346 41.813C145.346 34.898 150.442 29.5381 157.815 29.5381C165.133 29.5381 169.701 35.4673 169.701 41.9102ZM147.845 40.73H167.202C166.674 34.9952 162.536 31.8015 157.815 31.8015C152.316 31.8015 148.331 35.5089 147.845 40.73Z" fill="#464646"/>
<path d="M189.391 29.7192V31.9826C185.253 31.9826 181.351 34.4681 181.351 40.4945V53.5749H178.949V30.0525H181.351V34.6625C182.99 30.9412 186.114 29.7192 189.391 29.7192Z" fill="#464646"/>
<path d="M217.802 53.5748L200.903 37.3425V53.5748H198.348V20.6519H200.903V35.9817L217.316 20.6519H220.745L203.694 36.6343L221.217 53.5748H217.802Z" fill="#464646"/>
<path d="M250.489 30.0519V53.5742H248.031V48.256C246.018 51.783 242.31 54.088 237.686 54.088C230.854 54.088 225.217 48.7698 225.217 41.813C225.217 34.8563 230.854 29.5381 237.686 29.5381C242.31 29.5381 246.018 31.8431 248.031 35.3701V30.0519H250.489ZM248.031 41.813C248.031 36.2171 243.601 31.8015 237.881 31.8015C232.146 31.8015 227.675 36.2171 227.675 41.813C227.675 47.409 232.146 51.8246 237.881 51.8246C243.601 51.8246 248.031 47.409 248.031 41.813Z" fill="#464646"/>
<path d="M261.514 19.2354H263.93V53.5747H261.514V19.2354Z" fill="#464646"/>
<path d="M295.172 30.0527L284.772 55.7413C282.939 60.2541 279.384 63.309 275.232 62.9757V60.7679C278.468 61.0456 280.912 58.6989 282.411 55.2691L282.939 53.9917L271.872 30.0527H274.469L284.189 50.9924L292.576 30.0527H295.172Z" fill="#464646"/>
<path d="M325.79 30.0519V53.5742H323.332V48.256C321.318 51.783 317.611 54.088 312.987 54.088C306.141 54.088 300.518 48.7698 300.518 41.813C300.518 34.8563 306.141 29.5381 312.987 29.5381C317.611 29.5381 321.318 31.8431 323.332 35.3701V30.0519H325.79ZM323.332 41.813C323.332 36.2171 318.902 31.8015 313.181 31.8015C307.447 31.8015 302.975 36.2171 302.975 41.813C302.975 47.409 307.447 51.8246 313.181 51.8246C318.902 51.8246 323.332 47.409 323.332 41.813Z" fill="#464646"/>
<path d="M357.185 38.9387V53.5742H354.727V38.9387C354.727 34.6203 352.172 31.8015 347.645 31.8015C342.924 31.8015 339.217 34.8008 339.217 41.1604V53.5742H336.814V30.0519H339.217V34.5231C341.05 31.0377 344.132 29.5381 347.84 29.5381C353.574 29.5381 357.185 33.2595 357.185 38.9387Z" fill="#464646"/>
<path d="M77 72C77 69.1732 79.0034 67 81.6894 67C83.4256 67 84.9244 67.9641 85.5625 69.451L84.8354 69.9248C84.316 68.7157 83.114 67.9314 81.6894 67.9314C79.5376 67.9314 77.9052 69.7288 77.9052 72C77.9052 74.2876 79.5376 76.085 81.6894 76.085C83.1288 76.085 84.3011 75.2843 84.8947 74.0915L85.6367 74.5817C84.9244 76.0523 83.4256 77 81.6894 77C79.0034 77 77 74.8431 77 72ZM328 74.1569C328 75.6111 327.11 76.8039 325.255 76.8039H320.936V67.2124H324.913C326.65 67.2124 327.57 68.3235 327.57 69.7288C327.57 70.6601 327.199 71.4444 326.427 71.8529C327.466 72.2124 328 73.0621 328 74.1569ZM321.827 68.1601V71.4771H324.913C326.056 71.4771 326.65 70.8562 326.65 69.7778C326.65 68.7647 326.041 68.1601 324.913 68.1601H321.827ZM327.11 74.1078C327.11 73.0621 326.427 72.4085 325.255 72.4085H321.827V75.8562H325.255C326.442 75.8562 327.11 75.2026 327.11 74.1078ZM308.115 72C308.115 69.1732 310.207 67 312.804 67C315.386 67 317.464 69.1732 317.464 72C317.464 74.8431 315.386 77 312.804 77C310.207 77 308.115 74.8431 308.115 72ZM316.559 72C316.559 69.7288 314.926 67.9314 312.804 67.9314C310.682 67.9314 309.02 69.7288 309.02 72C309.02 74.2876 310.682 76.085 312.804 76.085C314.926 76.085 316.559 74.2876 316.559 72ZM304.642 67.2124V76.8039H303.737V72.4575H298.172V76.8039H297.282V67.2124H298.172V71.5425H303.737V67.2124H304.642ZM293.201 67.2124V76.8039H292.296V68.8791L286.642 76.8039H285.855V67.2124H286.745V75.1373L292.429 67.2124H293.201ZM282.561 74.2222C282.561 75.6928 281.477 77 279.281 77C277.292 77 276.254 76.0196 275.809 74.7451L276.565 74.2712C276.907 75.3333 277.738 76.085 279.281 76.085C280.795 76.085 281.655 75.2843 281.655 74.1732C281.655 73.1438 280.899 72.4085 279.697 72.4085H278.465V71.4771H279.355C280.513 71.4771 281.225 70.7745 281.225 69.7124C281.225 68.6993 280.394 67.9314 279.118 67.9314C277.945 67.9314 277.085 68.4869 276.714 69.4837L275.972 69.0261C276.447 67.8497 277.5 67 279.118 67C281.002 67 282.115 68.2582 282.115 69.6634C282.115 70.6111 281.685 71.4281 280.869 71.8529C281.952 72.2451 282.561 73.1438 282.561 74.2222ZM272.514 67.2124V76.8039H271.609V74.6307C270.852 76.0686 269.487 77 267.78 77C265.243 77 263.165 74.8431 263.165 72C263.165 69.1732 265.243 67 267.78 67C269.487 67 270.852 67.9477 271.609 69.3856V67.2124H272.514ZM271.609 72C271.609 69.7288 269.962 67.9314 267.854 67.9314C265.732 67.9314 264.07 69.7288 264.07 72C264.07 74.2876 265.732 76.085 267.854 76.085C269.962 76.085 271.609 74.2876 271.609 72ZM261.206 68.1601H256.517V76.8039H255.626V67.2124H261.206V68.1601ZM251.545 67.2124V76.8039H250.64V74.6307C249.898 76.0686 248.518 77 246.812 77C244.289 77 242.196 74.8431 242.196 72C242.196 69.1732 244.289 67 246.812 67C248.518 67 249.898 67.9477 250.64 69.3856V67.2124H251.545ZM250.64 72C250.64 69.7288 249.008 67.9314 246.886 67.9314C244.764 67.9314 243.102 69.7288 243.102 72C243.102 74.2876 244.764 76.085 246.886 76.085C249.008 76.085 250.64 74.2876 250.64 72ZM238.724 76.8039H237.819V68.6667L234.48 74.3203H234.361L231.007 68.634V76.8039H230.117V67.2124H231.17L234.42 72.719L237.655 67.2124H238.724V76.8039ZM219.803 76.8039L216.806 72.6209L213.793 76.8039H212.71L216.271 71.8693L212.918 67.2124H214.001L216.806 71.1013L219.61 67.2124H220.679L217.355 71.8529L220.901 76.8039H219.803ZM207.323 73.8627C207.323 75.6275 205.973 76.8039 204.385 76.8039H200.853V67.2124H201.743V70.9379H204.385C205.973 70.9379 207.323 72.098 207.323 73.8627ZM206.418 73.8627C206.418 72.6373 205.512 71.8693 204.385 71.8693H201.743V75.8562H204.385C205.512 75.8562 206.418 75.0719 206.418 73.8627ZM209.579 67.2124V76.8039H208.688V67.2124H209.579ZM196.787 67.2124V76.8039H195.867V72.4575H190.317V76.8039H189.426V67.2124H190.317V71.5425H195.867V67.2124H196.787ZM185.345 67.2124V76.8039H184.44V72.4575H178.875V76.8039H177.985V67.2124H178.875V71.5425H184.44V67.2124H185.345ZM173.919 76.8039H173.013V73.0621H171.099L168.294 76.8039H167.137L169.986 73.0458C168.591 72.866 167.448 71.7549 167.448 70.1536C167.448 68.3889 168.799 67.2124 170.387 67.2124H173.919V76.8039ZM173.013 72.1471V68.1601H170.387C169.259 68.1601 168.354 68.9444 168.354 70.1536C168.354 71.3791 169.259 72.1471 170.387 72.1471H173.013ZM164.985 73.8627C164.985 75.6275 163.635 76.8039 162.047 76.8039H158.515V67.2124H159.42V70.9379H162.047C163.635 70.9379 164.985 72.098 164.985 73.8627ZM164.08 73.8627C164.08 72.6373 163.175 71.8693 162.047 71.8693H159.42V75.8562H162.047C163.175 75.8562 164.08 75.0719 164.08 73.8627ZM154.449 76.8039H153.558V68.1601H149.062V72.768C149.062 76.1177 147.741 76.9346 146.064 76.8039V75.8889C147.444 76.0359 148.172 75.2516 148.172 72.768V67.2124H154.449V76.8039ZM143.126 67.2124V76.8039H142.221V74.6307C141.479 76.0686 140.099 77 138.392 77C135.869 77 133.792 74.8431 133.792 72C133.792 69.1732 135.869 67 138.392 67C140.099 67 141.479 67.9477 142.221 69.3856V67.2124H143.126ZM142.221 72C142.221 69.7288 140.588 67.9314 138.466 67.9314C136.344 67.9314 134.697 69.7288 134.697 72C134.697 74.2876 136.344 76.085 138.466 76.085C140.588 76.085 142.221 74.2876 142.221 72ZM130.957 76.8039L126.224 72.0817V76.8039H125.348V67.2124H126.224V71.5588L130.735 67.2124H131.981L127.188 71.8203L132.159 76.8039H130.957ZM115.954 73.8627C115.954 75.6275 114.604 76.8039 113.016 76.8039H109.484V67.2124H110.375V70.9379H113.016C114.604 70.9379 115.954 72.098 115.954 73.8627ZM115.049 73.8627C115.049 72.6373 114.144 71.8693 113.016 71.8693H110.375V75.8562H113.016C114.144 75.8562 115.049 75.0719 115.049 73.8627ZM106.546 68.1601H103.311V76.8039H102.421V68.1601H99.1706V67.2124H106.546V68.1601ZM97.2563 72.049C97.2563 72.1961 97.2414 72.3595 97.2414 72.5065H89.1686C89.3763 74.6634 90.9049 76.085 92.9379 76.085C94.407 76.085 95.5052 75.366 96.0246 74.3366L96.8111 74.8431C96.0839 76.1503 94.689 77 92.9231 77C90.1777 77 88.2337 74.8922 88.2337 72C88.2337 69.1895 90.1332 67 92.8489 67C95.5646 67 97.2563 69.4183 97.2563 72.049ZM89.1686 71.5588H96.3214C96.1285 69.2222 94.6 67.9314 92.8489 67.9314C90.8307 67.9314 89.3467 69.4346 89.1686 71.5588Z" fill="#EB653B"/>
<path d="M77 71.9924C77 70.5704 77.5474 69.3147 78.45 68.4221C79.3525 67.5295 80.6102 67 82.0455 67C82.9776 67 83.8357 67.2269 84.5608 67.6505C85.3006 68.0893 85.8924 68.7095 86.2475 69.4811L86.3954 69.7988L85.0194 70.6006L84.8567 70.2224C84.6348 69.7383 84.25 69.3298 83.7618 69.0424C83.2735 68.7549 82.6817 68.5885 82.0455 68.5885C81.0689 68.5885 80.2255 68.9667 79.6189 69.5719C79.0122 70.1921 78.6423 71.0393 78.6423 71.9924C78.6423 72.9607 79.0122 73.8079 79.6189 74.4281C80.2255 75.0333 81.0689 75.3964 82.0455 75.3964C82.6817 75.3964 83.2587 75.2451 83.747 74.9576C84.2501 74.6702 84.6495 74.2617 84.9158 73.7474L85.0934 73.4145L86.4695 74.2315L86.3067 74.5492C85.922 75.3056 85.3006 75.9259 84.5608 76.3495C83.8357 76.7731 82.9628 77 82.0455 77C80.6102 77 79.3525 76.4705 78.45 75.5779C77.5474 74.6702 77 73.4145 77 71.9924ZM78.9679 68.9667C78.1985 69.7232 77.7398 70.7822 77.7398 71.9924C77.7398 73.2027 78.1985 74.2769 78.9679 75.0333C79.7225 75.7897 80.8026 76.2587 82.0455 76.2587C82.8444 76.2587 83.5842 76.0469 84.2057 75.6989C84.7235 75.3964 85.1526 74.9879 85.4781 74.5038L85.3598 74.4433C85.0342 74.9123 84.6199 75.3207 84.1021 75.6082C83.5102 75.9561 82.8148 76.1528 82.0455 76.1528C80.8766 76.1528 79.8408 75.6989 79.101 74.9576C78.3612 74.2012 77.9025 73.1573 77.9025 71.9924C77.9025 70.8275 78.3612 69.7837 79.101 69.0424C79.8408 68.3011 80.8766 67.8472 82.0455 67.8472C82.8148 67.8472 83.525 68.0439 84.1317 68.3918C84.6199 68.6793 85.0342 69.0726 85.3301 69.5567L85.419 69.4962C85.123 69.0121 84.7087 68.6036 84.2057 68.3011C83.5842 67.9531 82.8444 67.7413 82.0455 67.7413C80.8026 67.7413 79.7225 68.2103 78.9679 68.9667ZM328 73.9894C328 74.8064 327.704 75.5477 327.127 76.062C326.609 76.531 325.855 76.8033 324.893 76.8033H320.217V67.1967H324.553C325.485 67.1967 326.21 67.4539 326.713 67.9077C327.275 68.407 327.571 69.1029 327.571 69.8896C327.571 70.4039 327.453 70.8729 327.216 71.2663C327.112 71.4629 326.979 71.6294 326.816 71.7958C327.097 71.9622 327.334 72.174 327.512 72.4312C327.837 72.8699 328 73.3994 328 73.9894ZM326.639 75.5023C327.053 75.1241 327.26 74.5794 327.26 73.9894C327.26 73.5507 327.142 73.1725 326.92 72.885C326.757 72.6581 326.535 72.4766 326.254 72.3253C326.328 72.3858 326.417 72.4463 326.476 72.5068C326.89 72.8548 327.112 73.3389 327.112 73.944C327.112 74.5794 326.89 75.0787 326.491 75.4266C326.106 75.7595 325.573 75.941 324.893 75.941H321.105V71.9924H324.893C325.07 71.9924 325.248 72.0076 325.411 72.0378L325.07 71.9319L325.426 71.7504C325.159 71.8411 324.878 71.8714 324.553 71.8714H321.105V68.059H324.553C325.204 68.059 325.707 68.2254 326.077 68.5431C326.461 68.876 326.654 69.3601 326.654 69.935C326.654 70.5552 326.461 71.0393 326.077 71.3722L325.929 71.5083C326.224 71.357 326.446 71.1452 326.594 70.888C326.757 70.6006 326.831 70.2678 326.831 69.8896C326.831 69.3298 326.624 68.8154 326.239 68.4675C325.855 68.1498 325.292 67.938 324.553 67.938H320.957V76.062H324.893C325.677 76.062 326.254 75.8502 326.639 75.5023ZM321.845 68.8154V71.1301H324.553C325.026 71.1301 325.381 71.0242 325.603 70.8124C325.81 70.6309 325.929 70.3283 325.929 69.935C325.929 69.587 325.81 69.2995 325.603 69.118C325.366 68.9213 325.011 68.8154 324.553 68.8154H321.845ZM326.372 73.944C326.372 73.5809 326.239 73.2784 326.017 73.0817C325.766 72.8699 325.381 72.7489 324.893 72.7489H321.845V75.1846H324.893C325.396 75.1846 325.766 75.0635 326.017 74.8517C326.254 74.6551 326.372 74.3525 326.372 73.944ZM307.434 71.9924C307.434 70.5855 307.996 69.3449 308.898 68.4523C309.816 67.5446 311.073 67 312.479 67C313.87 67 315.127 67.5446 316.045 68.4523C316.933 69.3449 317.495 70.5855 317.495 71.9924C317.495 73.4145 316.933 74.6551 316.045 75.5477C315.127 76.4554 313.87 77 312.479 77C311.073 77 309.816 76.4554 308.898 75.5477C307.996 74.6551 307.434 73.4145 307.434 71.9924ZM309.416 68.9819C308.647 69.7383 308.173 70.7973 308.173 71.9924C308.173 73.2027 308.647 74.2617 309.416 75.0182C310.186 75.7897 311.266 76.2587 312.479 76.2587C313.677 76.2587 314.758 75.7897 315.527 75.0182C316.296 74.2617 316.755 73.2027 316.755 71.9924C316.755 70.7973 316.296 69.7383 315.527 68.9819C314.758 68.2103 313.677 67.7413 312.479 67.7413C311.266 67.7413 310.186 68.2103 309.416 68.9819ZM315.852 71.9924C315.852 71.0393 315.483 70.1921 314.876 69.587C314.269 68.9667 313.426 68.5885 312.479 68.5885C311.517 68.5885 310.674 68.9667 310.067 69.587C309.446 70.1921 309.076 71.0393 309.076 71.9924C309.076 72.9455 309.446 73.8079 310.052 74.413C310.674 75.0182 311.517 75.3964 312.479 75.3964C313.426 75.3964 314.269 75.0333 314.876 74.413C315.483 73.8079 315.852 72.9455 315.852 71.9924ZM315.394 69.0424C316.134 69.7988 316.592 70.8427 316.592 71.9924C316.592 73.1573 316.134 74.2012 315.394 74.9576C314.654 75.6989 313.633 76.1528 312.479 76.1528C311.325 76.1528 310.289 75.6989 309.549 74.9425C308.795 74.2012 308.351 73.1573 308.351 71.9924C308.351 70.8427 308.795 69.7988 309.549 69.0424C310.289 68.3011 311.325 67.8472 312.479 67.8472C313.633 67.8472 314.654 68.3011 315.394 69.0424ZM304.711 67.5598V76.8033H303.069V72.7943H298.26V76.8033H296.647V67.1967H298.26V71.1906H303.069V67.1967H304.711V67.5598ZM303.971 76.062V67.938H303.808V71.9471H297.535V67.938H297.372V76.062H297.535V72.053H303.808V76.062H303.971ZM293.303 67.5598V76.8033H291.661V70.1921L286.571 76.8033H285.239V67.1967H286.867V73.8079L291.986 67.1967H293.303V67.5598ZM292.578 76.062V67.938H292.342L286.127 75.9713V67.938H285.979V76.062H286.216L292.401 68.0287V76.062H292.578ZM282.695 74.0499C282.695 74.882 282.339 75.6687 281.629 76.2284C281.023 76.6974 280.164 77 279.055 77C278.063 77 277.279 76.7882 276.673 76.4251C275.977 75.9864 275.518 75.3661 275.252 74.6702L275.134 74.3676L276.554 73.5507L276.702 73.9743C276.85 74.413 277.116 74.7761 277.516 75.0333C277.886 75.2602 278.389 75.3964 279.055 75.3964C279.706 75.3964 280.224 75.2451 280.549 75.003C280.875 74.761 281.052 74.413 281.052 74.0045C281.052 73.6415 280.904 73.3238 280.653 73.112C280.372 72.885 279.972 72.7489 279.469 72.7489H277.871V71.1301H279.129C279.617 71.1301 280.002 70.9939 280.253 70.7821C280.49 70.5703 280.623 70.2526 280.623 69.8744C280.623 69.5113 280.46 69.2088 280.179 68.9819C279.868 68.7398 279.439 68.5885 278.892 68.5885C278.374 68.5885 277.93 68.7095 277.59 68.9213C277.25 69.118 276.998 69.4206 276.835 69.7988L276.673 70.1921L275.282 69.3903L275.415 69.0726C275.696 68.4372 276.155 67.9077 276.791 67.5295C277.353 67.1967 278.063 67 278.892 67C279.883 67 280.682 67.2874 281.259 67.7564C281.896 68.2859 282.251 69.0424 282.251 69.8291C282.251 70.3434 282.117 70.8275 281.866 71.2511C281.733 71.4478 281.585 71.6294 281.392 71.7958C281.703 71.9773 281.97 72.2042 282.162 72.4614C282.502 72.9153 282.695 73.4599 282.695 74.0499ZM281.185 75.6384C281.703 75.23 281.955 74.6551 281.955 74.0499C281.955 73.6263 281.822 73.2481 281.585 72.9304C281.407 72.7035 281.171 72.5068 280.875 72.3555C280.949 72.4009 281.037 72.4614 281.111 72.5219C281.54 72.885 281.777 73.3994 281.777 74.0045C281.777 74.6551 281.511 75.2148 280.993 75.6082C280.52 75.941 279.868 76.1528 279.055 76.1528C278.256 76.1528 277.619 75.9713 277.131 75.6687C276.702 75.4115 276.391 75.0484 276.184 74.6248L276.066 74.7005C276.273 75.1241 276.599 75.5023 277.057 75.7746C277.546 76.0772 278.197 76.2587 279.055 76.2587C280.002 76.2587 280.697 76.0166 281.185 75.6384ZM279.469 71.9924C279.647 71.9924 279.824 72.0076 279.987 72.0378L279.632 71.9168L279.972 71.7504C279.721 71.8411 279.439 71.8714 279.129 71.8714H278.611V71.9924H279.469ZM280.727 71.3419L280.564 71.4781C280.86 71.3116 281.082 71.0998 281.245 70.8427C281.422 70.5552 281.511 70.2073 281.511 69.8291C281.511 69.2693 281.259 68.7247 280.801 68.3464C280.357 67.9834 279.706 67.7413 278.892 67.7413C278.197 67.7413 277.605 67.9077 277.146 68.18C276.761 68.407 276.465 68.7247 276.243 69.0878L276.347 69.1483C276.554 68.7852 276.85 68.4826 277.22 68.2708C277.679 67.9985 278.241 67.8472 278.892 67.8472C279.602 67.8472 280.194 68.0439 280.623 68.3918C281.097 68.7549 281.363 69.2693 281.363 69.8744C281.363 70.4796 281.126 70.994 280.727 71.3419ZM272.678 67.5598V76.8033H271.035V75.5477C270.725 75.8805 270.384 76.1528 269.985 76.3797C269.289 76.7731 268.476 77 267.588 77C266.212 77 264.969 76.4554 264.066 75.5477C263.164 74.6551 262.616 73.3994 262.616 71.9924C262.616 70.5855 263.164 69.3449 264.066 68.4523C264.969 67.5446 266.212 67 267.588 67C268.476 67 269.289 67.2269 269.985 67.6203C270.369 67.8472 270.725 68.1195 271.035 68.4523V67.1967H272.678V67.5598ZM271.938 76.062V67.938H271.775V70.9788L271.494 70.4947C271.671 70.9637 271.775 71.4629 271.775 71.9924C271.775 72.5219 271.671 73.0363 271.509 73.4902L271.775 73.0212V76.062H271.938ZM269.63 75.7292C270.014 75.5023 270.355 75.23 270.636 74.882L270.577 74.9576C269.837 75.6989 268.801 76.1528 267.662 76.1528C266.493 76.1528 265.472 75.6989 264.717 74.9425C263.978 74.2012 263.519 73.1573 263.519 71.9924C263.519 70.8427 263.978 69.7988 264.717 69.0424C265.472 68.3011 266.493 67.8472 267.662 67.8472C268.801 67.8472 269.837 68.3011 270.577 69.0424L270.621 69.1029C270.34 68.77 270.014 68.4977 269.63 68.2708C269.038 67.938 268.357 67.7413 267.588 67.7413C266.404 67.7413 265.339 68.2103 264.569 68.9819C263.815 69.7534 263.356 70.7973 263.356 71.9924C263.356 73.1876 263.815 74.2466 264.569 75.003C265.339 75.7897 266.404 76.2587 267.588 76.2587C268.357 76.2587 269.053 76.062 269.63 75.7292ZM271.035 71.9924C271.035 71.0393 270.665 70.1921 270.059 69.587C269.452 68.9667 268.609 68.5885 267.662 68.5885C266.7 68.5885 265.842 68.9667 265.235 69.587C264.629 70.1921 264.259 71.0393 264.259 71.9924C264.259 72.9455 264.629 73.8079 265.235 74.413C265.842 75.0182 266.7 75.3964 267.662 75.3964C268.609 75.3964 269.452 75.0333 270.059 74.413C270.665 73.8079 271.035 72.9455 271.035 71.9924ZM261.033 68.8154H256.727V76.8033H255.1V67.1967H261.403V68.8154H261.033ZM256.358 68.059H260.663V67.938H255.84V76.062H255.988V68.059H256.358ZM251.771 67.5598V76.8033H250.128V75.5477C249.833 75.8805 249.477 76.1528 249.093 76.3797C248.397 76.7731 247.584 77 246.681 77C245.32 77 244.062 76.4554 243.16 75.5477C242.272 74.6551 241.709 73.3994 241.709 71.9924C241.709 70.5855 242.272 69.3449 243.16 68.4523C244.062 67.5446 245.32 67 246.681 67C247.584 67 248.397 67.2269 249.093 67.6203C249.477 67.8472 249.833 68.1195 250.128 68.4523V67.1967H251.771V67.5598ZM251.031 76.062V67.938H250.868V70.9788L250.602 70.5098C250.779 70.9637 250.868 71.4781 250.868 71.9924C250.868 72.5219 250.779 73.0212 250.602 73.4902L250.868 73.0212V76.062H251.031ZM248.723 75.7292C249.122 75.5023 249.448 75.2148 249.744 74.882L249.67 74.9576C248.93 75.6989 247.909 76.1528 246.755 76.1528C245.601 76.1528 244.565 75.6989 243.825 74.9425C243.071 74.2012 242.612 73.1573 242.612 71.9924C242.612 70.8427 243.071 69.7988 243.825 69.0424C244.565 68.3011 245.601 67.8472 246.755 67.8472C247.909 67.8472 248.93 68.3011 249.67 69.0424L249.714 69.1029C249.433 68.77 249.108 68.4826 248.723 68.2708C248.146 67.938 247.45 67.7413 246.681 67.7413C245.512 67.7413 244.447 68.2103 243.677 68.9819C242.923 69.7534 242.449 70.7973 242.449 71.9924C242.449 73.1876 242.923 74.2466 243.677 75.003C244.447 75.7897 245.512 76.2587 246.681 76.2587C247.45 76.2587 248.146 76.062 248.723 75.7292ZM250.128 71.9924C250.128 71.0393 249.759 70.1921 249.152 69.587C248.545 68.9667 247.702 68.5885 246.755 68.5885C245.793 68.5885 244.95 68.9667 244.343 69.587C243.722 70.1921 243.352 71.0393 243.352 71.9924C243.352 72.9455 243.722 73.8079 244.343 74.413C244.95 75.0182 245.793 75.3964 246.755 75.3964C247.702 75.3964 248.545 75.0333 249.152 74.413C249.759 73.8079 250.128 72.9455 250.128 71.9924ZM238.617 76.8033H237.345V70.177L234.593 74.5189H234.075L231.293 70.1467V76.8033H229.68V67.1967H231.293L234.326 71.9622L237.359 67.1967H238.987V76.8033H238.617ZM238.084 76.062H238.247V67.938H238.084V76.062ZM237.404 68.7095L237.892 67.938H237.744L234.326 73.3389L230.894 67.938H230.775L234.326 73.5507L237.404 68.7095ZM230.568 68.876V67.938H230.405V76.062H230.568V68.876ZM219.471 76.6672L216.763 73.1725L213.937 76.8033H211.91L215.757 71.8714L212.132 67.1967H214.145L216.763 70.5703L219.382 67.1967H221.38L217.77 71.8563L221.602 76.8033H219.589L219.471 76.6672ZM217.045 72.3404L219.93 76.062H220.092L216.837 71.8563L219.871 67.938H219.737L216.763 71.7655L213.789 67.938H213.641L216.689 71.8714L213.434 76.062H213.582L216.763 71.9622L217.045 72.3404ZM207.679 73.7171C207.679 74.6248 207.309 75.3812 206.732 75.9259C206.125 76.4856 205.282 76.8033 204.379 76.8033H200.503V67.1967H202.115V70.6309H204.379C205.282 70.6309 206.125 70.9486 206.732 71.5083C207.309 72.053 207.679 72.8094 207.679 73.7171ZM206.229 75.3661C206.672 74.9728 206.939 74.3979 206.939 73.7171C206.939 73.0363 206.672 72.4766 206.229 72.0681C205.77 71.6294 205.104 71.3722 204.379 71.3722H201.39V67.938H201.228V76.062H204.379C205.104 76.062 205.77 75.8048 206.229 75.3661ZM206.036 73.7171C206.036 73.2784 205.874 72.9304 205.592 72.6732C205.296 72.4009 204.867 72.2496 204.379 72.2496H202.115V75.1846H204.379C204.867 75.1846 205.296 75.0333 205.592 74.761C205.874 74.5038 206.036 74.1558 206.036 73.7171ZM206.081 72.1135C206.51 72.5068 206.776 73.0514 206.776 73.7171C206.776 74.3828 206.51 74.9274 206.081 75.3207C205.652 75.7141 205.045 75.941 204.379 75.941H201.39V71.4932H204.379C205.045 71.4932 205.652 71.7201 206.081 72.1135ZM209.928 67.5598V76.8033H208.315V67.1967H209.928V67.5598ZM209.203 76.062V67.938H209.04V76.062H209.203ZM197.159 67.5598V76.8033H195.531V72.7943H190.722V76.8033H189.095V67.1967H190.722V71.1906H195.531V67.1967H197.159V67.5598ZM196.434 76.062V67.938H196.256V71.9471H189.983V67.938H189.835V76.062H189.983V72.053H196.256V76.062H196.434ZM185.766 67.5598V76.8033H184.123V72.7943H179.315V76.8033H177.702V67.1967H179.315V71.1906H184.123V67.1967H185.766V67.5598ZM185.026 76.062V67.938H184.863V71.9471H178.59V67.938H178.427V76.062H178.59V72.053H184.863V76.062H185.026ZM174.003 76.8033H172.745V73.354H171.354L168.573 76.8033H166.457L169.416 73.2027C168.869 73.0363 168.366 72.7337 167.996 72.3404C167.493 71.8109 167.182 71.0999 167.182 70.2829C167.182 69.3752 167.552 68.6188 168.129 68.0741C168.735 67.5144 169.579 67.1967 170.481 67.1967H174.358V76.8033H174.003ZM173.47 76.062H173.633V67.938H170.481C169.756 67.938 169.091 68.1952 168.617 68.6188C168.188 69.0272 167.922 69.6021 167.922 70.2829C167.922 70.9032 168.144 71.4175 168.513 71.8109C168.913 72.2345 169.49 72.5068 170.126 72.5825L170.807 72.6581L168.04 76.062H168.232L171.014 72.5976H173.47V76.062ZM172.745 71.7504V68.8154H170.481C169.993 68.8154 169.564 68.9667 169.268 69.239C168.987 69.4962 168.824 69.8442 168.824 70.2829C168.824 70.7216 168.987 71.0696 169.268 71.3268C169.564 71.5991 169.993 71.7504 170.481 71.7504H172.745ZM173.47 68.4372V72.5068H170.481C169.816 72.5068 169.209 72.2799 168.78 71.8865C168.351 71.4932 168.084 70.9486 168.084 70.2829C168.084 69.6173 168.351 69.0726 168.78 68.6793C169.209 68.2859 169.816 68.059 170.481 68.059H173.47V68.4372ZM165.465 73.7171C165.465 74.6248 165.096 75.3812 164.519 75.9259C163.912 76.4856 163.069 76.8033 162.166 76.8033H158.289V67.1967H159.902V70.6309H162.166C163.069 70.6309 163.912 70.9486 164.519 71.5083C165.096 72.053 165.465 72.8094 165.465 73.7171ZM164.016 75.3661C164.459 74.9728 164.726 74.3979 164.726 73.7171C164.726 73.0363 164.459 72.4766 164.016 72.0681C163.557 71.6294 162.891 71.3722 162.166 71.3722H159.177V67.938H159.014V76.062H162.166C162.891 76.062 163.557 75.8048 164.016 75.3661ZM163.823 73.7171C163.823 73.2784 163.66 72.9304 163.379 72.6732C163.083 72.4009 162.654 72.2496 162.166 72.2496H159.902V75.1846H162.166C162.654 75.1846 163.083 75.0333 163.379 74.761C163.66 74.5038 163.823 74.1558 163.823 73.7171ZM163.868 72.1135C164.297 72.5068 164.563 73.0514 164.563 73.7171C164.563 74.3828 164.297 74.9274 163.868 75.3207C163.438 75.7141 162.832 75.941 162.166 75.941H159.177V71.4932H162.166C162.832 71.4932 163.438 71.7201 163.868 72.1135ZM154.59 76.8033H153.333V68.8154H149.589V72.7035C149.589 74.3676 149.219 75.4115 148.613 76.0469C147.991 76.6974 147.148 76.879 146.216 76.8033L145.876 76.7882V75.1846L146.275 75.23C146.822 75.2753 147.252 75.1694 147.518 74.8215C147.814 74.4433 147.962 73.7625 147.962 72.7035V67.1967H154.96V76.8033H154.59ZM154.073 76.062H154.221V67.938H148.702V72.7035C148.702 73.944 148.494 74.7761 148.08 75.2905C147.725 75.7595 147.222 75.9713 146.601 75.9864V76.0772C147.192 76.062 147.725 75.9107 148.095 75.5174C148.568 75.0333 148.85 74.1558 148.85 72.7035V68.059H154.073V76.062ZM143.671 67.5598V76.8033H142.029V75.5477C141.733 75.8805 141.378 76.1528 140.993 76.3797C140.297 76.7731 139.484 77 138.581 77C137.22 77 135.962 76.4554 135.06 75.5477C134.172 74.6551 133.624 73.3994 133.624 71.9924C133.624 70.5855 134.172 69.3449 135.06 68.4523C135.962 67.5446 137.22 67 138.581 67C139.484 67 140.297 67.2269 140.993 67.6203C141.378 67.8472 141.733 68.1195 142.029 68.4523V67.1967H143.671V67.5598ZM142.946 76.062V67.938H142.768V70.9788L142.502 70.5098C142.68 70.9637 142.768 71.4781 142.768 71.9924C142.768 72.5219 142.68 73.0212 142.502 73.4902L142.768 73.0212V76.062H142.946ZM140.638 75.7292C141.022 75.5023 141.348 75.23 141.629 74.882L141.57 74.9576C140.83 75.6989 139.809 76.1528 138.655 76.1528C137.501 76.1528 136.465 75.6989 135.725 74.9425C134.971 74.2012 134.527 73.1573 134.527 71.9924C134.527 70.8427 134.971 69.7988 135.725 69.0424C136.465 68.3011 137.501 67.8472 138.655 67.8472C139.809 67.8472 140.83 68.3011 141.57 69.0424L141.629 69.0878C141.348 68.7701 141.008 68.4826 140.638 68.2708C140.046 67.938 139.351 67.7413 138.581 67.7413C137.412 67.7413 136.347 68.2103 135.578 68.9819C134.823 69.7534 134.349 70.7973 134.349 71.9924C134.349 73.1876 134.823 74.2466 135.578 75.003C136.347 75.7897 137.412 76.2587 138.581 76.2587C139.351 76.2587 140.046 76.062 140.638 75.7292ZM142.029 71.9924C142.029 71.0393 141.673 70.1921 141.067 69.587C140.46 68.9667 139.617 68.5885 138.655 68.5885C137.708 68.5885 136.85 68.9667 136.243 69.587C135.637 70.1921 135.267 71.0393 135.267 71.9924C135.267 72.9455 135.637 73.8079 136.243 74.413C136.85 75.0182 137.708 75.3964 138.655 75.3964C139.617 75.3964 140.46 75.0333 141.067 74.413C141.673 73.8079 142.029 72.9455 142.029 71.9924ZM130.917 76.7126L126.818 72.9153V76.8033H125.205V67.1967H126.818V70.767L130.813 67.1967H133.166L127.972 71.826L133.314 76.8033H131.02L130.917 76.7126ZM126.744 71.826L131.301 76.062H131.42L126.863 71.8109L131.213 67.938H131.08L126.744 71.826ZM126.093 72.0681V67.938H125.945V76.062H126.093V72.0681ZM116.579 73.7171C116.579 74.6248 116.209 75.3812 115.632 75.9259C115.026 76.4856 114.182 76.8033 113.28 76.8033H109.389V67.1967H111.016V70.6309H113.28C114.182 70.6309 115.026 70.9486 115.632 71.5083C116.209 72.053 116.579 72.8094 116.579 73.7171ZM115.129 75.3661C115.573 74.9728 115.84 74.3979 115.84 73.7171C115.84 73.0363 115.573 72.4766 115.129 72.0681C114.656 71.6294 114.005 71.3722 113.28 71.3722H110.276V67.938H110.128V76.062H113.28C114.005 76.062 114.671 75.8048 115.129 75.3661ZM114.937 73.7171C114.937 73.2784 114.774 72.9304 114.493 72.6732C114.197 72.4009 113.768 72.2496 113.28 72.2496H111.016V75.1846H113.28C113.768 75.1846 114.197 75.0333 114.493 74.761C114.759 74.5038 114.937 74.1558 114.937 73.7171ZM114.981 72.1135C115.41 72.5068 115.677 73.0514 115.677 73.7171C115.677 74.3828 115.41 74.9274 114.981 75.3207C114.552 75.7141 113.946 75.941 113.28 75.941H110.276V71.4932H113.28C113.946 71.4932 114.552 71.7201 114.981 72.1135ZM106.829 68.8154H103.973V76.8033H102.346V68.8154H99.1201V67.1967H107.199V68.8154H106.829ZM103.603 68.059H106.474V67.938H99.8451V68.059H103.085V76.062H103.233V68.059H103.603ZM97.9364 72.0378C97.9216 72.3101 97.9068 72.5673 97.9068 72.8396H89.9317C90.0945 73.5507 90.4348 74.1407 90.9378 74.5794C91.5297 75.1089 92.3435 75.3964 93.2608 75.3964C93.9119 75.3964 94.4741 75.2602 94.9328 75.0182C95.4211 74.761 95.7909 74.3979 96.0129 73.9743L96.2052 73.6566L97.6257 74.4887L97.4333 74.8215C97.019 75.5023 96.4272 76.062 95.6874 76.4402C94.9919 76.8033 94.1634 77 93.246 77C91.7812 77 90.5235 76.4856 89.6358 75.593C88.7332 74.7005 88.2154 73.4448 88.2154 71.9924C88.2154 70.5704 88.7332 69.3147 89.6358 68.407C90.5088 67.5295 91.7368 67 93.1721 67C94.5777 67 95.7318 67.5598 96.5456 68.4221C97.4333 69.3601 97.9364 70.6763 97.9364 72.0378ZM97.1966 72.0832V72.0378C97.1966 70.8578 96.7675 69.7534 96.0277 68.9516C95.3323 68.2103 94.3557 67.7413 93.1721 67.7413C91.9292 67.7413 90.8786 68.1952 90.1388 68.9365C89.3842 69.708 88.9404 70.7822 88.9404 71.9924C88.9404 73.233 89.3843 74.3071 90.1537 75.0635C90.9083 75.8048 91.9884 76.2587 93.246 76.2587C94.045 76.2587 94.7553 76.0772 95.3619 75.7746C95.8502 75.5174 96.2644 75.1694 96.5899 74.7458L96.4568 74.6702C96.1609 75.0787 95.7613 75.4266 95.2731 75.6838C94.7108 75.9713 94.0302 76.1528 93.2608 76.1528C92.1659 76.1528 91.1894 75.7897 90.4496 75.1392C89.7246 74.5038 89.2511 73.5961 89.1327 72.5068L89.0883 72.0832H97.1966ZM89.9169 71.2209H96.22C96.0721 70.4644 95.7466 69.8593 95.3027 69.4357C94.7404 68.8911 93.9858 68.5885 93.1721 68.5885C92.2695 68.5885 91.4853 68.9062 90.9083 69.4357C90.42 69.8896 90.0649 70.4947 89.9169 71.2209ZM96.6343 71.9622H89.1032L89.1327 71.5537C89.2363 70.4645 89.695 69.5416 90.42 68.876C91.1302 68.2254 92.0772 67.8472 93.1721 67.8472C94.1782 67.8472 95.1103 68.2103 95.8058 68.8911C96.4568 69.5113 96.9007 70.4191 97.0042 71.5537L97.0338 71.9622H96.6343Z" fill="#EB653B"/>
</svg>
