<svg width="19" height="19" viewBox="0 0 19 19" fill="none" xmlns="http://www.w3.org/2000/svg">
<path fill-rule="evenodd" clip-rule="evenodd" d="M4 11.386V12H7.96119L7.96034 11.386H7.17797C7.18775 11.3398 7.21836 11.2759 7.23537 11.2323C7.49985 10.5527 7.77325 9.8704 8.0339 9.19165L8.076 9.08286C8.07685 9.08066 8.08195 9.06833 8.08322 9.06612C8.09598 9.04586 8.08407 9.06128 8.09683 9.05115C8.14658 9.17183 8.21631 9.30265 8.27329 9.42377L8.79841 10.5267C8.91705 10.7685 9.03398 11.0204 9.14793 11.2631C9.16579 11.301 9.48257 11.9824 9.50383 11.9938L10.9112 9.05291C10.9274 9.0648 10.9363 9.0996 10.9444 9.12206L11.1421 9.63079C11.2157 9.82811 11.2931 10.0188 11.3692 10.214L11.7089 11.0883C11.7298 11.1407 11.8127 11.3464 11.822 11.386L11.0388 11.3886L11.0384 12H15V11.386L14.3107 11.3838C14.284 11.3406 14.2376 11.201 14.2181 11.1504C14.1874 11.072 14.1585 10.9975 14.1288 10.92C14.0671 10.761 14.0089 10.6143 13.9489 10.4584C13.596 9.53521 13.2256 8.61422 12.8731 7.6919C12.4641 6.62071 12.0321 5.53807 11.6192 4.4638C11.5941 4.39861 11.4445 4.03215 11.4436 4C11.4245 4.00749 11.4308 4.00264 11.4194 4.02731L11.3739 4.12685C11.3526 4.17266 11.3348 4.21142 11.3131 4.25899L10.2262 6.6053C10.0698 6.94445 9.89459 7.30959 9.74322 7.64874C9.70495 7.73463 9.66285 7.82007 9.62288 7.90861C9.58504 7.99229 9.53529 8.08479 9.5034 8.16847C9.48129 8.15086 9.45025 8.06673 9.43792 8.0403L8.05261 5.03948C8.01179 4.95094 7.97267 4.86329 7.931 4.77476L7.59977 4.05682C7.58744 4.03039 7.58233 4.00793 7.56788 4.00132L4.68925 11.386H4Z" fill="#EB653B"/>
<path fill-rule="evenodd" clip-rule="evenodd" d="M9.5 18C14.1944 18 18 14.1944 18 9.5C18 4.80558 14.1944 1 9.5 1C4.80558 1 1 4.80558 1 9.5C1 14.1944 4.80558 18 9.5 18Z" stroke="#EB653B" stroke-width="2" stroke-linecap="round" stroke-linejoin="round"/>
</svg>
