<svg width="91" height="68" viewBox="0 0 91 68" fill="none" xmlns="http://www.w3.org/2000/svg">
<path fill-rule="evenodd" clip-rule="evenodd" d="M45.4518 0.321289L49.5048 5.72532L55.0053 1.09329L57.4178 6.88333L64.0763 3.21631L64.8484 9.29584L72.3754 6.78682L71.4104 12.8664L79.5164 11.4188L76.8144 17.3054L85.1135 17.1124L80.8674 22.4199L88.9735 23.5779L83.28 28.1134L91 30.4295L84.1485 34L91 37.474L83.28 39.8865L88.9735 44.422L80.8674 45.58L85.1135 50.7911L76.8144 50.6946L79.5164 56.5811L71.4104 55.1336L72.3754 61.2131L64.8484 58.6076L64.0763 64.7836L57.4178 61.1166L55.0053 66.9067L49.5048 62.2746L45.4518 67.6787L41.4952 62.2746L35.9947 66.9067L33.5822 61.1166L26.9236 64.7836L26.1516 58.6076L18.6246 61.2131L19.5896 55.1336L11.4836 56.5811L14.1856 50.6946L5.88653 50.7911L10.1326 45.58L2.02651 44.422L7.62354 39.8865L0 37.474L6.85154 34L0 30.4295L7.62354 28.1134L2.02651 23.5779L10.1326 22.4199L5.88653 17.1124L14.1856 17.3054L11.4836 11.4188L19.5896 12.8664L18.6246 6.78682L26.1516 9.29584L26.9236 3.21631L33.5822 6.88333L35.9947 1.09329L41.4952 5.72532L45.4518 0.321289Z" fill="#EB653B"/>
<path d="M32.5202 41.2375H28.6602V33.807C28.6602 32.263 28.5637 31.2015 28.4672 30.8155C28.2742 30.333 27.9847 29.947 27.5987 29.754C27.2127 29.4645 26.8267 29.368 26.2477 29.368C25.5722 29.368 24.9932 29.4645 24.4142 29.8505C23.9317 30.2365 23.5456 30.719 23.3526 31.298C23.1596 31.9735 23.0631 33.035 23.0631 34.6755V41.2375H19.2031V26.666H22.7736V28.789C24.0282 27.245 25.6687 26.3765 27.5987 26.3765C28.4672 26.3765 29.2392 26.5695 29.9147 26.859C30.6867 27.1485 31.1692 27.5345 31.5552 28.017C31.9412 28.4995 32.1342 28.982 32.3272 29.6575C32.4237 30.2365 32.5202 31.105 32.5202 32.1665V41.2375ZM44.7758 36.6055L48.6358 37.281C48.1533 38.7285 47.3813 39.79 46.3198 40.4655C45.2583 41.2375 43.9073 41.6236 42.3633 41.6236C39.8542 41.6236 37.9242 40.755 36.7662 39.1145C35.8012 37.7635 35.3187 36.123 35.3187 34.0965C35.3187 31.684 35.8977 29.754 37.1522 28.403C38.4067 27.052 40.0472 26.3765 41.9772 26.3765C44.1003 26.3765 45.8373 27.052 47.0918 28.4995C48.3463 29.947 48.9253 32.1665 48.8288 35.0615H39.2752C39.2752 36.2195 39.5647 37.088 40.1437 37.7635C40.7227 38.439 41.4947 38.7285 42.3633 38.7285C42.9423 38.7285 43.5213 38.5355 43.9073 38.246C44.2933 37.86 44.5828 37.3775 44.7758 36.6055ZM45.0653 32.7455C44.9688 31.5875 44.7758 30.8155 44.1968 30.2365C43.6178 29.6575 42.9423 29.368 42.1702 29.368C41.3017 29.368 40.6262 29.6575 40.1437 30.2365C39.5647 30.8155 39.2752 31.684 39.2752 32.7455H45.0653ZM54.7153 41.2375L50.0833 26.666H53.8468L56.5488 36.2195L59.0578 26.666H62.8214L65.2339 36.2195L67.9359 26.666H71.7959L67.0674 41.2375H63.4004L60.8913 31.877L58.4788 41.2375H54.7153Z" fill="white"/>
</svg>
