<svg width="29" height="29" viewBox="0 0 29 29" fill="none" xmlns="http://www.w3.org/2000/svg">
<path d="M11.6939 9.83418C11.5389 9.6792 11.5389 9.29174 11.6939 9.13676C11.9264 8.90428 12.2363 8.90428 12.4688 9.13676L17.5832 14.2512C17.7382 14.4062 17.7382 14.7936 17.5832 14.9486L12.3913 20.1406C12.2363 20.2955 11.9264 20.2955 11.6939 20.1406C11.4614 19.9081 11.4614 19.5981 11.6939 19.3656L16.4983 14.6387L11.6939 9.83418Z" fill="#666666" stroke="#666666" stroke-width="1.00739" stroke-miterlimit="22.9256"/>
<path d="M14.6385 28.2771C22.1709 28.2771 28.2771 22.1709 28.2771 14.6385C28.2771 7.10619 22.1709 1 14.6385 1C7.10619 1 1 7.10619 1 14.6385C1 22.1709 7.10619 28.2771 14.6385 28.2771Z" stroke="#727271" stroke-width="1.00739" stroke-miterlimit="22.9256"/>
</svg>
