<svg width="18" height="18" viewBox="0 0 18 18" fill="none" xmlns="http://www.w3.org/2000/svg">
<path fill-rule="evenodd" clip-rule="evenodd" d="M16.8882 12.9194V15.316C16.8901 15.7659 16.7021 16.1957 16.3706 16.4999C16.0391 16.804 15.5948 16.9543 15.1467 16.9138C12.6884 16.6467 10.327 15.8067 8.25234 14.4612C6.32211 13.2347 4.68561 11.5982 3.45906 9.66794C2.10893 7.58382 1.26872 5.21098 1.00649 2.74164C0.966125 2.29496 1.11536 1.85189 1.41773 1.52065C1.7201 1.18941 2.14777 1.0005 2.59626 1.00008H4.99291C5.79488 0.992185 6.47843 1.58004 6.59067 2.37415C6.69183 3.14113 6.87943 3.89421 7.14989 4.61901C7.36937 5.20289 7.22899 5.86112 6.79039 6.30465L5.77581 7.31923C6.91306 9.31927 8.56906 10.9753 10.5691 12.1125L11.5837 11.0979C12.0272 10.6593 12.6854 10.519 13.2693 10.7384C13.9941 11.0089 14.7472 11.1965 15.5142 11.2977C16.3175 11.411 16.9084 12.1084 16.8882 12.9194Z" stroke="white" stroke-width="2" stroke-linecap="round" stroke-linejoin="round"/>
</svg>
