<svg width="16" height="17" viewBox="0 0 16 17" fill="none" xmlns="http://www.w3.org/2000/svg">
<path fill-rule="evenodd" clip-rule="evenodd" d="M14.9996 11.5025V13.6142C15.0012 14.0106 14.8356 14.3894 14.5435 14.6573C14.2514 14.9253 13.8598 15.0577 13.465 15.0221C11.299 14.7867 9.2183 14.0465 7.39023 12.861C5.68945 11.7803 4.24749 10.3383 3.16674 8.63755C1.97711 6.80118 1.23677 4.7104 1.00572 2.53461C0.970152 2.14103 1.10164 1.75062 1.36807 1.45876C1.6345 1.16689 2.01133 1.00044 2.40651 1.00007H4.51826C5.22489 0.993114 5.82719 1.51109 5.92609 2.2108C6.01522 2.88661 6.18052 3.55016 6.41883 4.18881C6.61222 4.70328 6.48853 5.28326 6.10207 5.67407L5.20809 6.56804C6.21016 8.33033 7.6693 9.78947 9.43159 10.7915L10.3256 9.89756C10.7164 9.5111 11.2963 9.38741 11.8108 9.5808C12.4495 9.81911 13.113 9.98441 13.7888 10.0735C14.4967 10.1734 15.0173 10.7879 14.9996 11.5025Z" stroke="#EB653B" stroke-width="2" stroke-linecap="round" stroke-linejoin="round"/>
</svg>
