<svg width="29" height="28" viewBox="0 0 29 28" fill="none" xmlns="http://www.w3.org/2000/svg">
<path fill-rule="evenodd" clip-rule="evenodd" d="M8.72707 15.3988H21.2731V26.5877H21.2177H8.69937L8.72707 15.3988ZM17.8111 10.6075C17.8388 10.8844 18.0604 11.0783 18.282 11.1614C18.5589 11.2444 22.9071 11.2168 23.5164 11.2168C23.9318 11.2168 24.9012 11.2444 24.7627 10.3859C24.6519 9.72121 23.9318 9.80429 23.2394 9.80429H19.0297C18.6697 9.80429 18.365 9.7766 18.1158 9.91507C17.9219 10.0535 17.7558 10.3028 17.8111 10.6075ZM10.1395 25.2029H19.8329L19.8606 23.8181H10.1395V25.2029ZM10.1672 22.4057H19.8329C19.9437 22.0179 19.8329 21.4363 19.8883 21.0209H10.1118C10.1395 21.4363 10.0564 22.0179 10.1672 22.4057ZM10.1672 19.6084H19.8329C19.916 19.2484 19.8606 18.6114 19.8606 18.2237H19.7498H10.2226H10.1118C10.1395 18.6114 10.0564 19.2484 10.1672 19.6084ZM7.3146 20.9932C6.70531 20.9932 3.90808 21.0209 3.54804 20.9655C2.19097 20.6886 2.41253 19.2761 2.41253 18.3068C2.41253 15.8142 2.41253 13.3216 2.41253 10.829C2.41253 10.0259 2.24636 8.50261 3.7696 8.41952C4.93281 8.33644 6.31757 8.41952 7.50847 8.41952H22.5194C23.6826 8.41952 25.1227 8.33644 26.2582 8.41952C26.8121 8.44722 27.2276 8.77956 27.4214 9.1396C27.643 9.61042 27.5876 10.2751 27.5876 10.829C27.5876 13.3493 27.5876 15.8419 27.5876 18.3622C27.5876 19.2761 27.8092 20.744 26.3967 20.9655C26.0367 21.0209 23.2948 20.9932 22.6855 20.9932V15.3988C23.0456 15.3988 24.0703 15.4541 24.3196 15.3434C24.7073 15.2049 24.9565 14.6787 24.6242 14.2632C24.3196 13.9032 23.821 13.9863 23.2394 13.9863H6.70531C6.1237 13.9863 5.65288 13.9032 5.34824 14.2909C5.01589 14.7341 5.32054 15.2326 5.70827 15.3711C5.92984 15.4541 6.95457 15.3988 7.3146 15.3988V20.9932ZM8.72707 7.00706C8.67168 6.73011 8.69937 2.07729 8.72707 1.4126H21.2731C21.3008 2.07729 21.3285 6.73011 21.2454 7.00706H8.72707ZM7.28691 7.00706C6.1237 7.00706 4.93281 6.97937 3.7696 7.00706C2.66179 7.03476 1.91401 7.64405 1.49858 8.25335C0.889284 9.1396 1.00007 10.0536 1.00007 11.2445V18.2237C1.00007 19.3592 0.944675 20.4116 1.52628 21.1871C1.9971 21.8241 2.68948 22.3503 3.7973 22.378C4.9605 22.4334 6.1237 22.378 7.3146 22.378V27.9724H22.6855L22.7132 22.378C23.8764 22.378 25.0673 22.4334 26.2305 22.378C27.3106 22.3503 28.0584 21.7964 28.5016 21.1594C29.0832 20.3285 28.9724 19.3315 28.9724 18.1683V11.1891C28.9724 9.99816 29.1108 9.11191 28.4739 8.22566C28.0307 7.61636 27.283 7.03476 26.1751 7.00706C25.0396 6.97937 23.8764 7.00706 22.7132 7.00706C22.6301 6.70241 22.6855 0.858693 22.6855 0.027832H7.3146C7.3146 0.858693 7.3423 6.70241 7.28691 7.00706Z" fill="black"/>
</svg>
