<svg width="33" height="39" viewBox="0 0 33 39" fill="none" xmlns="http://www.w3.org/2000/svg">
<path fill-rule="evenodd" clip-rule="evenodd" d="M0.00642022 31.1689V10.0232V9.28557C-0.0225492 7.11605 -0.0369208 5.33703 1.933 3.71712C3.06281 2.79146 3.84491 2.74807 5.29338 2.66129L5.69899 2.64682C6.36529 2.58628e-06 8.23381 0 10.392 0H22.9793C24.0222 0 24.9636 0.0723195 25.7313 0.448371C26.47 0.824422 27.035 1.47528 27.2813 2.64682C28.0779 2.69022 28.7296 2.7336 29.3235 2.86377C29.9463 3.00841 30.4968 3.25429 31.0473 3.71712C33.0606 5.38042 33.0316 7.10158 32.9882 9.27111C32.9737 9.57484 32.9737 9.90751 32.9737 10.2691V32.8611C32.9881 34.0471 32.9881 35.1753 32.4087 36.2889C31.0037 38.9647 28.7443 38.9647 26.2384 38.9647H7.79921C7.48054 38.9647 7.19084 38.9792 6.88666 38.9792C5.43819 39.0225 3.85941 39.0659 2.59924 38.3572C-0.0514621 36.8819 -0.0225492 34.481 0.00642022 31.9644V31.1689ZM27.4261 5.53952C27.2523 5.66969 27.2232 5.81433 27.1943 6.01682C27.1363 6.37841 27.0495 6.87016 26.1949 7.65119C25.8038 8.01278 25.4416 8.21528 25.0071 8.31652C24.587 8.43223 24.1236 8.44669 23.5153 8.44669H9.71129C6.71295 8.46115 6.35081 7.46317 5.8873 6.21931C5.80039 6.00235 5.71341 5.77094 5.6265 5.55399C4.59808 5.48167 3.91734 5.68416 3.49729 6.13253C3.06275 6.59536 2.88887 7.34747 2.88887 8.35991V32.4416C2.87438 34.2351 2.85992 35.6959 4.54015 36.0431C5.23541 36.1732 14.6217 36.1298 19.532 36.1009L22.1826 36.0865C23.2545 36.0865 24.2104 36.1154 25.0506 36.1443C25.6734 36.1588 26.2094 36.1732 26.7308 36.1732C29.4974 36.1732 30.0767 35.6959 30.0767 32.3115V8.60579C30.0912 7.50656 29.9609 6.72553 29.5698 6.23377C29.1932 5.75648 28.5269 5.53952 27.4261 5.53952ZM8.53794 3.51463L8.59594 5.46721L9.8271 5.56845C10.4934 5.55399 12.1591 5.56845 14.129 5.58291C18.1703 5.6263 23.5442 5.6697 24.3698 5.46721C24.4567 5.13455 24.4566 4.68618 24.4421 4.26674V3.87622L24.4566 3.34107C24.4566 2.96502 24.3842 2.87824 23.7614 2.87824H9.21886C8.87123 2.87824 8.68286 2.87824 8.61044 2.95056C8.53801 3.02287 8.53794 3.18197 8.53794 3.51463ZM10.0009 21.4349C10.1313 21.0733 10.4354 20.7407 10.899 20.5526C11.0728 20.4803 12.84 20.4514 15.1286 20.4369C18.996 20.4225 24.3697 20.4369 25.7023 20.4514C26.4265 20.4514 26.9046 20.6973 27.1653 21.0299C27.3246 21.218 27.4116 21.4494 27.4406 21.6808C27.4695 21.9122 27.4405 22.1581 27.3681 22.375C27.2232 22.7945 26.9046 23.1416 26.499 23.2718C26.2528 23.3441 24.4712 23.373 22.1971 23.3875C18.3442 23.402 13.0717 23.373 11.6377 23.3586C11.0149 23.3441 10.5514 23.1271 10.2617 22.809C10.0879 22.6209 9.98655 22.3895 9.9431 22.1581C9.88516 21.9122 9.91401 21.6663 10.0009 21.4349ZM9.98641 29.3175C10.1023 28.9559 10.363 28.6233 10.7396 28.4063C11.1887 28.1605 19.2277 28.2038 23.4428 28.2328L25.572 28.2472C26.2673 28.2472 26.7598 28.4353 27.064 28.739C27.2523 28.927 27.3826 29.1584 27.4261 29.4043C27.484 29.6502 27.455 29.8961 27.3826 30.1275C27.2667 30.5035 26.9915 30.8217 26.6293 30.9953C26.1224 31.2267 16.6639 31.1689 12.9124 31.1544L11.768 31.1399C11.1162 31.1399 10.6527 30.9808 10.363 30.7205C10.1458 30.5469 10.001 30.3155 9.9431 30.0696C9.88516 29.8237 9.89951 29.5634 9.98641 29.3175ZM11.5219 12.67H25.688C25.9197 12.67 26.1514 12.699 26.3542 12.7568C26.6729 12.8436 26.9337 12.9882 27.1365 13.2052C27.3248 13.4221 27.4406 13.7114 27.4406 14.0441C27.4406 14.2032 27.426 14.3623 27.3826 14.5214C27.0929 15.5627 26.1514 15.5627 25.0216 15.5627C20.7775 15.5338 16.5191 15.5338 12.2751 15.5627C11.2322 15.5627 10.2471 15.5627 9.98641 14.5214C9.94296 14.3623 9.9286 14.2176 9.9286 14.073C9.9286 13.7259 10.0444 13.4221 10.2327 13.1907C10.4355 12.9738 10.7108 12.8002 11.0294 12.7279C11.1888 12.6845 11.3481 12.6556 11.5219 12.67ZM7.98752 23.2429L5.45269 23.2139L5.48169 20.5671L8.14683 20.5816L8.11801 23.2429H7.98752ZM7.98752 15.4036L5.48169 15.3747V12.7713L8.11801 12.8002V15.4036H7.98752ZM7.98752 31.0098L5.48169 30.9808V28.3774L8.11801 28.4063V31.0098H7.98752Z" fill="#EB653B"/>
</svg>
