<svg width="23" height="27" viewBox="0 0 23 27" fill="none" xmlns="http://www.w3.org/2000/svg">
<path fill-rule="evenodd" clip-rule="evenodd" d="M0.00443461 21.55V6.93005V6.42004C-0.0155654 4.92004 -0.0255483 3.69007 1.33445 2.57007C2.11445 1.93007 2.66447 1.89997 3.66447 1.83997L3.94444 1.83008C4.39444 7.80821e-05 5.68442 0 7.17442 0H15.8644C16.5844 0 17.2444 0.0500586 17.7644 0.310059C18.2844 0.570059 18.6645 1.02008 18.8445 1.83008C19.3845 1.86008 19.8344 1.88998 20.2444 1.97998C20.6744 2.07998 21.0544 2.25007 21.4444 2.57007C22.8344 3.72007 22.8045 4.91003 22.7745 6.41003C22.7745 6.62003 22.7644 6.84999 22.7644 7.10999V22.72C22.7744 23.54 22.7844 24.32 22.3744 25.09C21.4044 26.94 19.8544 26.9401 18.1144 26.9401H5.39445C5.17445 26.9401 4.96443 26.9501 4.75443 26.9501C3.75443 26.9801 2.66447 27.01 1.79447 26.52C-0.0355264 25.5 -0.0155654 23.84 0.00443461 22.1V21.55ZM18.9444 3.83008C18.8144 3.92008 18.7945 4.02003 18.7745 4.16003C18.7345 4.41003 18.6745 4.75004 18.0845 5.29004C17.8145 5.54004 17.5644 5.68001 17.2644 5.76001C16.9744 5.83001 16.6544 5.83997 16.2344 5.83997H6.70445C4.63445 5.84997 4.38443 5.16005 4.06443 4.30005C4.01443 4.15005 3.95444 3.98997 3.88444 3.83997C3.17444 3.78997 2.70447 3.92999 2.41447 4.23999C2.11447 4.55999 1.99442 5.08003 1.99442 5.78003V22.4301C1.98442 23.6701 1.98444 24.68 3.13444 24.92C3.62444 25.01 10.1044 24.98 13.4844 24.96L15.3144 24.9501C16.0544 24.9501 16.7245 24.97 17.2945 24.99C17.7245 25 18.0944 25.01 18.4544 25.01C20.3744 25.01 20.7745 24.68 20.7745 22.34V5.95007C20.7745 5.19007 20.6944 4.65006 20.4244 4.31006C20.1544 3.98006 19.6944 3.83008 18.9444 3.83008ZM5.89445 2.43005L5.93443 3.78003L6.79447 3.84998C7.25447 3.83998 8.39443 3.84999 9.75443 3.85999C12.5544 3.88999 16.2645 3.92003 16.8345 3.78003C16.8845 3.55003 16.8844 3.24007 16.8844 2.95007V2.68005V2.31006C16.8944 2.05006 16.8345 1.98999 16.4045 1.98999H6.37443C6.13443 1.98999 6.00445 1.99004 5.95445 2.04004C5.90445 2.09004 5.89445 2.20005 5.89445 2.43005ZM6.90446 14.8201C6.99446 14.5701 7.20446 14.34 7.53446 14.21C7.64446 14.16 8.87444 14.14 10.4444 14.13C13.1244 14.12 16.8244 14.13 17.7444 14.14C18.2544 14.14 18.5744 14.31 18.7644 14.54C18.8744 14.67 18.9344 14.83 18.9544 14.99C18.9744 15.15 18.9544 15.32 18.8944 15.47C18.7944 15.76 18.5845 16 18.2945 16.09C18.1345 16.14 16.8945 16.16 15.3345 16.17C12.6645 16.18 9.02446 16.16 8.03446 16.15C7.60446 16.14 7.29446 15.99 7.09446 15.77C6.97446 15.64 6.89442 15.4801 6.86442 15.3201C6.83442 15.1501 6.84446 14.9801 6.90446 14.8201ZM6.89445 20.27C6.97445 20.02 7.15447 19.79 7.41447 19.64C7.72447 19.47 13.2844 19.5 16.1844 19.52L17.6645 19.53C18.1445 19.53 18.4744 19.66 18.6844 19.87C18.8244 20 18.9044 20.1601 18.9344 20.3301C18.9744 20.5001 18.9645 20.6701 18.9145 20.8301C18.8245 21.0901 18.6444 21.3101 18.3844 21.4301C18.0444 21.5901 11.5045 21.55 8.91447 21.54L8.12443 21.53C7.68443 21.53 7.36446 21.42 7.15446 21.24C7.00446 21.12 6.91443 20.96 6.87443 20.79C6.83443 20.62 6.84445 20.44 6.89445 20.27ZM7.95445 8.76001H17.7444C17.9044 8.76001 18.0544 8.78007 18.1944 8.82007C18.4144 8.88007 18.6044 8.98001 18.7344 9.13C18.8744 9.28 18.9544 9.47996 18.9544 9.70996C18.9544 9.81996 18.9345 9.93004 18.9045 10.04C18.7045 10.76 18.0645 10.76 17.2745 10.76C14.3545 10.74 11.4044 10.74 8.48442 10.76C7.75442 10.76 7.08445 10.76 6.89445 10.04C6.86445 9.93004 6.85447 9.82998 6.85447 9.72998C6.85447 9.48998 6.93444 9.27999 7.07444 9.12C7.20444 8.97 7.39442 8.85005 7.61442 8.80005C7.72442 8.77005 7.84445 8.76001 7.95445 8.76001ZM5.51444 16.0701L3.77445 16.05L3.79447 14.22L5.62443 14.23L5.60447 16.0701H5.51444ZM5.51444 10.65L3.79447 10.63L3.78446 8.83008L5.61442 8.84998V10.65H5.51444ZM5.51444 21.4401L3.79447 21.42L3.78446 19.62L5.60447 19.64V21.4401H5.51444Z" fill="#464646"/>
</svg>
