<svg width="19" height="18" viewBox="0 0 19 18" fill="none" xmlns="http://www.w3.org/2000/svg">
<path d="M3.88129 5.54322C3.91825 5.49018 3.95518 5.48134 3.95518 5.45481L3.90904 5.26915C3.88132 5.18959 3.86278 5.11002 3.85354 5.03045C3.79809 4.62377 3.73339 4.13752 3.72415 3.64244C3.72415 3.13851 3.76119 2.62574 3.91829 2.20138C3.9645 2.06876 4.01989 1.92731 4.09382 1.7947C4.15851 1.65324 4.24169 1.52063 4.3341 1.4057L4.3526 1.38802C4.76846 0.92829 5.15658 0.592338 5.6094 0.371316C6.06223 0.150294 6.56125 0.0353635 7.21738 0H7.24513C8.48346 0 8.60356 0.0618858 9.05638 0.318271C9.20424 0.397839 9.39828 0.503929 9.72172 0.645383C10.3686 0.928291 10.7846 1.17584 11.0803 1.51179C11.376 1.85658 11.5331 2.2721 11.6255 2.8998V2.90864C11.644 3.00589 11.644 3.12083 11.644 3.22692L11.6532 3.49214C11.644 3.6778 11.5238 4.111 11.4037 4.53536C11.2928 4.94204 11.1449 5.26915 11.1634 5.30452L11.2466 5.38409C11.3575 5.48134 11.4684 5.60511 11.5053 5.70236L11.57 5.89686C11.5885 5.96758 11.5977 6.05599 11.5977 6.1444C11.5977 6.39195 11.5423 6.7279 11.4315 7.02849C11.3298 7.29371 11.182 7.53242 10.9879 7.69155L10.1191 9.30943V9.50393C10.1099 9.81336 10.1007 10.167 10.1654 10.3792L10.1747 10.3969C10.2024 10.4676 10.2393 10.5029 10.267 10.5206H10.2763C10.4057 10.609 10.5073 10.6709 10.5258 10.7682C10.6829 10.5825 10.8215 10.4411 11.0063 10.2554L11.1819 10.0874C11.6532 9.76031 11.9581 9.56581 12.2908 9.41552L12.3093 9.40668C12.6328 9.25638 12.9839 9.15913 13.5476 9.03536H13.5661C14.5734 8.84086 15.5715 9.03536 16.4401 9.49509C17.3643 9.9725 18.1314 10.7505 18.5749 11.6523C18.8614 12.2358 19 12.8458 19 13.447C19 14.3134 18.7228 15.1621 18.2423 15.8782C17.7617 16.6031 17.0686 17.2043 16.2369 17.5756C15.6362 17.8497 14.9708 18 14.2592 18H14.1946C13.0117 18 11.9396 17.5668 11.1264 16.8595C10.2855 16.1346 9.73107 15.1267 9.59245 14.0128C9.57396 13.8448 9.5647 13.6326 9.5647 13.4293C9.57394 13.2259 9.58311 13.0138 9.61083 12.8458C9.66628 12.4656 9.74023 12.1739 9.86037 11.891L9.97126 11.6434C9.92505 11.6699 9.86967 11.6876 9.80498 11.6876C9.5647 11.6876 9.32445 11.502 9.13038 11.2721C8.92707 11.0157 8.76071 10.6798 8.76071 10.4941V10.0963C8.76995 9.68075 8.78841 9.11493 8.74221 8.94695C8.72373 8.84086 8.7607 8.71709 8.8716 8.64637C9.04718 8.53144 9.21353 8.30157 9.33366 8.03635C9.50925 7.68271 9.61086 7.26719 9.63859 6.98428C9.64783 6.84283 9.76802 6.7279 9.92512 6.71906L10.0821 6.69253L10.1099 6.62181C10.1469 6.56876 10.1746 6.48919 10.193 6.41847C10.2023 6.32122 10.2115 6.22397 10.2115 6.12672C10.2115 6.10904 10.1376 6.08251 10.0914 6.03831C9.9805 5.94106 9.88812 5.86149 9.88812 5.72004C9.88812 5.41061 9.999 5.06581 10.1099 4.6945V4.68566C10.3502 3.9165 10.6274 2.98821 9.90662 2.20138C9.75876 2.04224 9.50923 1.98035 9.31516 1.92731C9.09337 1.86542 8.9086 1.81238 8.78846 1.67092L8.77921 1.66208C8.64059 1.48526 8.48347 1.39686 8.29865 1.35265C8.0861 1.30845 7.82728 1.29961 7.5408 1.29961C7.06025 1.29961 6.57046 1.38802 6.15461 1.58251L6.14536 1.59136C5.81267 1.75049 5.51695 2.00688 5.33212 2.36051C4.99019 3.01473 5.08267 3.86346 5.16584 4.61493C5.17508 4.72986 5.21201 4.86247 5.23973 4.97741C5.31366 5.26916 5.40612 5.64047 5.40612 5.78192C5.40612 5.9057 5.31372 6.02063 5.18434 6.05599L5.0827 6.1886C5.0827 6.27701 5.11039 6.44499 5.16584 6.5776L5.21209 6.67485C5.64643 6.85167 5.73879 7.21414 5.84969 7.62082C5.93286 7.95678 6.03452 8.33694 6.43189 8.60216C6.51506 8.64637 6.57978 8.74362 6.57978 8.84971L6.55203 10.1582C6.56127 10.609 6.39497 11.0069 6.12697 11.334C5.84049 11.6699 5.43388 11.9352 4.98106 12.0855L3.86279 12.554C2.29177 13.1817 1.77432 13.3939 1.49708 14.2426H9.13963C9.27825 14.2426 9.34289 14.2426 9.4353 14.3045L9.4538 14.3134C9.55546 14.3841 9.57397 14.446 9.6017 14.5609L9.79573 15.1886L9.80498 15.2682C9.80498 15.4185 9.67554 15.5511 9.50919 15.5511H0.295671C0.129328 15.5511 0 15.4185 0 15.2593L0.0183878 14.5963C0.0368703 14.1719 0.230964 13.6857 0.508202 13.2613C0.794682 12.8281 1.1736 12.4303 1.57097 12.1916L1.58947 12.1739C1.87595 12.0147 2.45814 11.7495 3.0773 11.4754C3.97371 11.0776 4.96257 10.6444 5.09195 10.4941C5.15664 10.4145 5.22126 10.1139 5.24898 9.8222C5.26746 9.60118 5.27671 9.39784 5.25823 9.38016C5.06416 9.20334 4.73146 8.58448 4.43574 8.03635C4.2694 7.7446 4.12159 7.46169 4.02918 7.32024L4.01993 7.3114C3.87207 7.09921 3.77961 6.79862 3.74265 6.49803C3.70568 6.20629 3.72424 5.89686 3.81665 5.66699L3.88129 5.54322ZM13.4091 13.447L13.9821 13.942L15.8118 11.7584C15.9135 11.6346 16.089 11.6169 16.2184 11.6965L16.5418 11.9263C17.0131 12.28 17.0408 12.3684 16.7821 12.6866L16.4401 13.0756C16.089 13.5 15.7286 13.9332 15.3866 14.3664C15.0817 14.7377 14.7768 15.1444 14.4534 15.498C14.4164 15.6483 14.25 15.7456 14.0929 15.7014C13.9543 15.6749 13.8434 15.5776 13.751 15.4892L13.3536 15.1532C12.7344 14.6405 11.644 13.7122 11.644 13.5265C11.644 13.4204 11.7364 13.2701 11.8565 13.1287C11.9674 13.0138 12.106 12.8811 12.1799 12.8104C12.2539 12.7397 12.3648 12.7132 12.4665 12.7397C12.6143 12.775 13.0024 13.1022 13.252 13.3055L13.4091 13.447ZM16.6435 11.2279C16.0336 10.6532 15.1833 10.2996 14.2315 10.2996C13.9173 10.2996 13.6031 10.3438 13.3073 10.4234C13.0024 10.5118 12.716 10.6444 12.448 10.8035C11.7456 11.2986 11.2743 11.9352 11.0618 12.6336C10.8492 13.3143 10.8954 14.0747 11.2281 14.835C11.4683 15.3743 11.9027 15.8428 12.4295 16.1699C12.9655 16.5059 13.5938 16.6916 14.2315 16.6916C15.1556 16.6916 16.0059 16.3379 16.625 15.7544C17.2442 15.1886 17.6231 14.3929 17.6231 13.5265C17.6231 12.6248 17.2535 11.8114 16.6435 11.2279Z" fill="#FEFEFE"/>
</svg>
