<svg width="45" height="46" viewBox="0 0 45 46" fill="none" xmlns="http://www.w3.org/2000/svg">
<path fill-rule="evenodd" clip-rule="evenodd" d="M0.138184 21.6998L0.118164 22.0797C0.288164 28.3097 1.47818 34.0198 6.34818 38.6398C6.70818 38.9798 6.93816 39.2295 7.32816 39.6495C8.08816 40.4295 9.68817 41.5198 10.6282 42.1398C11.4082 42.6498 12.2182 43.0996 13.1582 43.4996C19.1382 45.8296 22.8382 46.1997 29.1882 44.5597C34.9582 42.4697 39.0282 39.4497 42.0782 34.1197C44.7082 29.5197 45.2582 24.8498 44.7082 19.6998C44.4482 18.5998 44.3182 17.6297 43.9882 16.5597C40.7082 5.62968 30.1382 -0.600356 19.0482 1.26964C8.92816 2.98964 0.418184 10.5798 0.138184 21.6998Z" fill="#568CC4"/>
<path fill-rule="evenodd" clip-rule="evenodd" d="M18.1384 23.5391C17.0284 23.9691 16.2884 22.4192 15.8484 21.6392L14.6083 19.5591C13.5083 17.4491 14.2984 16.5192 11.1384 16.4492C7.91837 16.3892 7.31835 16.889 8.26835 19.249C8.98835 21.029 9.57835 22.1491 10.5483 23.5591C11.2783 24.4991 11.8484 25.379 12.5684 26.249C14.2184 28.239 15.1183 29.6989 17.5183 30.8789C18.9583 31.5889 19.4384 31.9389 21.3884 31.8789C23.5284 31.8189 23.9584 31.9791 24.0084 29.7691C24.0484 28.0791 25.0083 27.4389 26.2383 29.3789C26.5383 29.8589 27.1884 30.2191 28.0284 31.0991C28.2384 31.3191 28.4584 31.4689 28.7184 31.6489C29.6984 32.3489 31.6384 32.2091 32.9684 32.0591C36.2184 31.5891 35.2484 29.8693 34.8384 29.5693C34.7784 29.2293 34.9184 29.6089 34.7784 29.3789C34.6984 29.2589 34.6584 29.2392 34.5984 29.1992C32.3184 24.1792 28.0784 28.5392 33.6984 20.6192C34.1784 19.9392 34.7783 19.119 35.0783 18.209C35.6283 16.569 34.2684 16.7291 32.9784 16.7891C31.9984 16.8391 29.9884 16.6691 29.1984 16.8091C28.6984 16.8891 28.6484 17.3792 28.4084 17.8892C27.7984 19.1892 27.0984 20.579 26.3184 21.689C25.6084 22.709 25.2484 23.8791 24.4184 23.5391C23.3684 23.1091 24.9184 16.9893 23.3884 16.2793C22.5384 15.8893 20.6884 16.0693 19.5884 16.0493C18.6084 16.0193 16.6484 16.3094 16.7584 17.3394C17.4684 17.9694 18.0683 17.2693 18.3583 18.5293L18.1384 23.5391Z" fill="#FEFEFE"/>
</svg>
